<?xml version="1.0" standalone="no"?>
<!DOCTYPE svg PUBLIC "-//W3C//DTD SVG 1.1//EN" "http://www.w3.org/Graphics/SVG/1.1/DTD/svg11.dtd" >
<svg>
<metadata>
Created by FontForge 20090914 at Mon Jun  7 04:30:19 2021
 By www-data
Copyright 2011 The Alegreya Project Authors (https://github.com/huertatipografica/Alegreya)
</metadata>
<defs>
<font id="AlegreyaSC-Bold" horiz-adv-x="0" >
  <font-face 
    font-family="Alegreya SC"
    font-weight="700"
    font-stretch="normal"
    units-per-em="1000"
    panose-1="0 0 8 0 0 0 0 0 0 0"
    ascent="800"
    descent="-200"
    x-height="504.999"
    cap-height="648.998"
    bbox="-426 -316.004 1501 1022"
    underline-thickness="75"
    underline-position="-129"
    unicode-range="U+000D-U+FB02"
  />
<missing-glyph horiz-adv-x="641" 
d="M336 228l321 -321l-16 -16l-321 321l-321 -321l-16 16l321 321l-321 321l16 16l321 -321l321 321l16 -16z" />
    <glyph glyph-name="Idieresis" unicode="&#xa8;I" horiz-adv-x="365" 
d="M44 55c29.333 6 49 14.498 59 25.498s15 30.5 15 58.5v387c0 20.667 -2.33301 34.5 -7 41.5s-14.334 10.5 -29.001 10.5l-35 -1l-5 8l8 58l138 -1c22 0 68.667 2.33301 140 7l-5 -66c-25.333 -3.33301 -42.166 -8.5 -50.499 -15.5s-13.166 -19.833 -14.499 -38.5
c-8.66699 -157.333 -13 -289.666 -13 -396.999c0 -27.333 2.66699 -45.666 8 -54.999s15.666 -14 30.999 -14c7.33301 0 22 1 44 3l4 -6l-9 -63l-36 1l-111 2c-30.667 0 -76.667 -3 -138 -9zM46.5 717.498c-10.333 11 -15.501 25.5 -15.501 43.5
c0 19.333 6.16699 35.333 18.5 48s28.5 19 48.5 19c18 0 32.167 -5.5 42.5 -16.5s15.5 -25.5 15.5 -43.5c0 -19.333 -6.16699 -35.333 -18.5 -48s-28.166 -19 -47.499 -19c-18.667 0 -33.167 5.5 -43.5 16.5zM224.499 717.498c-10.333 11 -15.5 25.5 -15.5 43.5
c0 19.333 6.16699 35.333 18.5 48s28.166 19 47.499 19c18.667 0 33.167 -5.5 43.5 -16.5s15.5 -25.5 15.5 -43.5c0 -19.333 -6.16699 -35.333 -18.5 -48s-28.166 -19 -47.499 -19c-18.667 0 -33.167 5.5 -43.5 16.5z" />
    <glyph glyph-name="Odieresis" unicode="&#xa8;O" horiz-adv-x="675" 
d="M162.5 26.5c-43 25.667 -76.002 62.167 -99.002 109.5s-34.5 103.333 -34.5 168c0 69.333 13.667 130.333 41 183s65.833 93.667 115.5 123s106.834 44 171.501 44c60 0 111.833 -12.5 155.5 -37.5s77 -61 100 -108s34.5 -102.833 34.5 -167.5
c0 -69.333 -13.833 -130.833 -41.5 -184.5s-66.667 -95.167 -117 -124.5s-108.166 -44 -173.499 -44c-58.667 0 -109.5 12.833 -152.5 38.5zM453.498 129.5c27 37.667 40.501 90.834 40.501 159.501c0 87.333 -14.333 154.166 -43 200.499s-69.334 69.5 -122.001 69.5
c-47.333 0 -84.166 -18.833 -110.499 -56.5s-39.5 -90.834 -39.5 -159.501c0 -87.333 14.167 -154.166 42.5 -200.499s68.166 -69.5 119.499 -69.5c48 0 85.5 18.833 112.5 56.5zM197.499 717.5c-10.333 11 -15.501 25.5 -15.501 43.5c0 19.333 6.16699 35.333 18.5 48
s28.5 19 48.5 19c18 0 32.167 -5.5 42.5 -16.5s15.5 -25.5 15.5 -43.5c0 -19.333 -6.16699 -35.333 -18.5 -48s-28.166 -19 -47.499 -19c-18.667 0 -33.167 5.5 -43.5 16.5zM375.498 717.5c-10.333 11 -15.5 25.5 -15.5 43.5c0 19.333 6.16699 35.333 18.5 48
s28.166 19 47.499 19c18.667 0 33.167 -5.5 43.5 -16.5s15.5 -25.5 15.5 -43.5c0 -19.333 -6.16699 -35.333 -18.5 -48s-28.166 -19 -47.499 -19c-18.667 0 -33.167 5.5 -43.5 16.5z" />
    <glyph glyph-name="Yacute" unicode="&#xb4;Y" horiz-adv-x="594" 
d="M143 56c26.667 3.33301 46.1699 8.16699 58.5029 14.5s20.666 15.333 24.999 27s6.5 29.5 6.5 53.5v31c0 18 -2 34.333 -6 49s-11.667 32.667 -23 54l-98 190c-16.667 34 -32.334 58 -47.001 72s-37 23.667 -67 29l-2 5l7 63c9.33301 0 26.833 -0.5 52.5 -1.5
s50.834 -1.5 75.501 -1.5c21.333 0 50.333 1.16699 87 3.5s61 3.83301 73 4.5l4 -9l-5 -56c-22.667 -1.33301 -38.5 -4.33301 -47.5 -9s-13.5 -12 -13.5 -22c0 -12.667 22.667 -67.667 68 -165c13.333 -30.667 19.666 -45.334 18.999 -44.001h9l81 168
c10 20 15 35.667 15 47c0 7.33301 -4.16699 12.833 -12.5 16.5s-21.5 6.16699 -39.5 7.5l-2 5l7 57l48 -2c36 -1.33301 64 -2 84 -2c18.667 0 38.667 0.5 60 1.5s35 1.83301 41 2.5l4 -7l-7 -60c-26.667 -8.66699 -47.834 -21.667 -63.501 -39s-35.167 -47 -58.5 -89
l-95 -179c-9.33301 -16.667 -14.833 -33.667 -16.5 -51s-2.5 -49 -2.5 -95c0 -22 3.33301 -37.5 10 -46.5s18.667 -13.5 36 -13.5c12 0 22.5 0.333008 31.5 1s15.167 1.33398 18.5 2.00098l4 -5l-9 -67c-12 0.666992 -34.333 1.5 -67 2.5s-64.667 1.5 -96 1.5
c-24 0 -53 -1.5 -87 -4.5s-56.333 -5.16699 -67 -6.5zM248.003 706.001l-13 44.998l134.5 62.5l87.5 42.5l12 -5l25 -75l-5 -13c-13.333 -3.33301 -42.833 -11.166 -88.5 -23.499s-92.167 -26.166 -139.5 -41.499z" />
    <glyph glyph-name="idieresis" unicode="&#xa8;i" horiz-adv-x="320" 
d="M41.5 590.5c-9.66699 10.333 -14.5 24.167 -14.5 41.5c0 18 5.83301 33 17.5 45s26.834 18 45.501 18c17.333 0 30.833 -5.16699 40.5 -15.5s14.5 -23.833 14.5 -40.5c0 -18.667 -5.83301 -34 -17.5 -46s-26.834 -18 -45.501 -18c-17.333 0 -30.833 5.16699 -40.5 15.5z
M194.5 590.501c-9.66699 10.333 -14.501 24.167 -14.501 41.5c0 18 5.83301 33 17.5 45s26.834 18 45.501 18c17.333 0 30.833 -5.16699 40.5 -15.5s14.5 -23.833 14.5 -40.5c0 -18.667 -5.66699 -34 -17 -46s-26.333 -18 -45 -18c-18 0 -31.833 5.16699 -41.5 15.5z
M41.999 49.002c24 4.66699 39.6641 11.168 46.9971 19.501s11 23.5 11 45.5l1 291c0 16 -2 26.667 -6 32s-12 8 -24 8h-27l-4 8l5 49l119 -1c14.667 0 36.334 0.666992 65.001 2s47.667 2.33301 57 3l-5 -57c-20.667 -2.66699 -34.167 -6.66699 -40.5 -12
s-10.166 -15.333 -11.499 -30c-6.66699 -98 -10 -197.667 -10 -299c0 -21.333 2 -35.5 6 -42.5s12.333 -10.5 25 -10.5c8.66699 0 15.834 0.333008 21.501 1s9.5 1 11.5 1l5 -6l-7 -53c-9.33301 0 -26.833 0.333008 -52.5 1s-50.167 1 -73.5 1
c-19.333 0 -42 -0.833008 -68 -2.5s-43 -2.83398 -51 -3.50098z" />
    <glyph glyph-name="odieresis" unicode="&#xa8;o" horiz-adv-x="571" 
d="M149.5 607.5c-10.333 11 -15.501 25.501 -15.501 43.501c0 19.333 6.16699 35.166 18.5 47.499s28.5 18.5 48.5 18.5c18 0 32.167 -5.33301 42.5 -16s15.5 -25 15.5 -43c0 -19.333 -6.16699 -35.333 -18.5 -48s-28.166 -19 -47.499 -19c-18.667 0 -33.167 5.5 -43.5 16.5
zM327.499 607.501c-10.333 11 -15.5 25.501 -15.5 43.501c0 19.333 6.16699 35.166 18.5 47.499s28.166 18.5 47.499 18.5c18.667 0 33.167 -5.33301 43.5 -16s15.5 -25 15.5 -43c0 -19.333 -6.16699 -35.333 -18.5 -48s-28.166 -19 -47.499 -19
c-18.667 0 -33.167 5.5 -43.5 16.5zM93.499 56.502c-42.333 43.667 -63.5 104.165 -63.5 181.498c0 55.333 11 103.5 33 144.5s53.5 72.5 94.5 94.5s88.833 33 143.5 33c76 0 135 -21.5 177 -64.5s63 -103.167 63 -180.5c0 -55.333 -11.167 -103.666 -33.5 -144.999
s-54 -73.166 -95 -95.499s-88.833 -33.5 -143.5 -33.5c-74.667 0 -133.167 21.833 -175.5 65.5zM371.999 106c19.333 26.667 29 65.333 29 116c0 68 -10.5 119 -31.5 153s-51.167 51 -90.5 51c-35.333 0 -62.333 -13 -81 -39s-28 -64.667 -28 -116
c0 -68.667 10.167 -120 30.5 -154s49.833 -51 88.5 -51c36 0 63.667 13.333 83 40z" />
    <glyph glyph-name="yacute" unicode="&#xb4;y" horiz-adv-x="521" 
d="M175 564l-31 37l99.5 104.5l63.5 69.5h13l56 -67l-1 -13l-72 -50.5c-37.333 -26.333 -75 -54.5 -113 -84.5zM126 50c22 2.66699 38.333 6.16309 49 10.4961s17.834 11 21.501 20s5.5 22.167 5.5 39.5v21c0 12.667 -1.66699 24.667 -5 36s-9.33301 25 -18 41l-83 150
c-12 22.667 -24.333 39.334 -37 50.001s-30.667 19 -54 25l-3 4l8 55c8.66699 0 24 -0.333008 46 -1s43.333 -1 64 -1c17.333 0 41.5 0.833008 72.5 2.5s51.5 2.83398 61.5 3.50098l5 -8l-5 -49c-17.333 -0.666992 -29.333 -2.66699 -36 -6s-10 -9 -10 -17
c0 -6 7 -24 21 -54l25 -54l19 -40h8l59 118c8.66699 15.333 13 27.333 13 36c0 5.33301 -3.16699 9.33301 -9.5 12s-16.5 4.33398 -30.5 5.00098l-3 4l6 50l47 -1c29.333 -1.33301 51.666 -2 66.999 -2c20 0 38.167 0.333008 54.5 1s27.166 1.33398 32.499 2.00098l3 -6
l-6 -52c-21.333 -7.33301 -39 -18.333 -53 -33s-29.333 -36.667 -46 -66l-78 -140c-6.66699 -12.667 -10.667 -25.167 -12 -37.5s-2.33301 -32.833 -3 -61.5c0 -18.667 2.83301 -31.667 8.5 -39s16.167 -11 31.5 -11c9.33301 0 17.833 0.333008 25.5 1s12.834 1 15.501 1
l3 -4l-8 -59c-10.667 0.666992 -30.334 1.5 -59.001 2.5s-56.667 1.5 -84 1.5c-20 -0 -45.167 -1.16699 -75.5 -3.5s-50.166 -3.83301 -59.499 -4.5z" />
    <glyph glyph-name="Itilde" unicode="&#x7e;I" horiz-adv-x="365" 
d="M44 55c29.333 6 49 14.498 59 25.498s15 30.5 15 58.5v387c0 20.667 -2.33301 34.5 -7 41.5s-14.334 10.5 -29.001 10.5l-35 -1l-5 8l8 58l138 -1c22 0 68.667 2.33301 140 7l-5 -66c-25.333 -3.33301 -42.166 -8.5 -50.499 -15.5s-13.166 -19.833 -14.499 -38.5
c-8.66699 -157.333 -13 -289.666 -13 -396.999c0 -27.333 2.66699 -45.666 8 -54.999s15.666 -14 30.999 -14c7.33301 0 22 1 44 3l4 -6l-9 -63l-36 1l-111 2c-30.667 0 -76.667 -3 -138 -9zM15 744.998l0.00195312 10l77 101l16 4c10.667 0 34 -6 70 -18
c32 -10.667 51.667 -16 59 -16c6.66699 0 14.667 4.16699 24 12.5s17.666 17.166 24.999 26.499l14 18h11l39 -36v-10l-77 -101l-17 -4c-11.333 0 -34.333 6 -69 18c-3.33301 1.33301 -12.333 4.33301 -27 9s-25.334 7 -32.001 7c-7.33301 0 -15.833 -4.16699 -25.5 -12.5
s-18 -17.166 -25 -26.499l-13.5 -18h-10z" />
    <glyph glyph-name="itilde" unicode="&#x7e;i" horiz-adv-x="320" 
d="M-5 608l0.00195312 10l77 101l16 4c10.667 0 34 -6 70 -18c32 -10.667 51.667 -16 59 -16c6.66699 0 14.667 4.16699 24 12.5s17.666 17.166 24.999 26.499l14 18h11l39 -36v-10l-77 -101l-17 -4c-11.333 0 -34.333 6 -69 18c-3.33301 1.33301 -12.333 4.33301 -27 9
s-25.334 7 -32.001 7c-7.33301 0 -15.833 -4.16699 -25.5 -12.5s-18 -17.166 -25 -26.499l-13.5 -18h-10zM42.002 49c24 4.66699 39.6641 11.168 46.9971 19.501s11 23.5 11 45.5l1 291c0 16 -2 26.667 -6 32s-12 8 -24 8h-27l-4 8l5 49l119 -1
c14.667 0 36.334 0.666992 65.001 2s47.667 2.33301 57 3l-5 -57c-20.667 -2.66699 -34.167 -6.66699 -40.5 -12s-10.166 -15.333 -11.499 -30c-6.66699 -98 -10 -197.667 -10 -299c0 -21.333 2 -35.5 6 -42.5s12.333 -10.5 25 -10.5c8.66699 0 15.834 0.333008 21.501 1
s9.5 1 11.5 1l5 -6l-7 -53c-9.33301 0 -26.833 0.333008 -52.5 1s-50.167 1 -73.5 1c-19.333 0 -42 -0.833008 -68 -2.5s-43 -2.83398 -51 -3.50098z" />
    <glyph glyph-name="Utilde" unicode="&#x7e;U" horiz-adv-x="657" 
d="M86 204l-0.000976562 320.001c0 22 -2.16699 36.5 -6.5 43.5s-13.166 10.5 -26.499 10.5c-6.66699 0 -13.167 -0.333008 -19.5 -1s-10.5 -1 -12.5 -1l-2 4l9 65c9.33301 -0.666992 27.5 -1.33398 54.5 -2.00098s55.833 -1 86.5 -1c17.333 0 39.333 0.833008 66 2.5
s44.334 2.83398 53.001 3.50098l-7 -66c-21.333 -2.66699 -35.833 -7.83398 -43.5 -15.501s-12.167 -20.5 -13.5 -38.5l-7 -292c0 -50.667 10.833 -89.834 32.5 -117.501s52.834 -41.5 93.501 -41.5c83.333 0 125 44 125 132c0 51.333 -0.5 110 -1.5 176
s-1.83301 112.333 -2.5 139c-0.666992 22 -3 36.5 -7 43.5s-12.333 10.5 -25 10.5c-6.66699 0 -13.334 -0.333008 -20.001 -1s-11.334 -1 -14.001 -1l-2 4l9 65c8.66699 0 24.5 -0.5 47.5 -1.5s45.833 -1.5 68.5 -1.5c21.333 0 44.5 0.833008 69.5 2.5
s41.167 2.83398 48.5 3.50098l-6 -65c-18 -4 -31 -7.66699 -39 -11s-13.333 -8 -16 -14s-4 -15 -4 -27v-311c0 -74.667 -22 -132 -66 -172s-107.667 -60 -191 -60c-154 0 -231 72 -231 216zM163.999 750.001l0.00195312 10l77 101l16 4c10.667 0 34 -6 70 -18
c32 -10.667 51.667 -16 59 -16c6.66699 0 14.667 4.16699 24 12.5s17.666 17.166 24.999 26.499l14 18h11l39 -36v-10l-77 -101l-17 -4c-11.333 0 -34.333 6 -69 18c-3.33301 1.33301 -12.333 4.33301 -27 9s-25.334 7 -32.001 7c-7.33301 0 -15.833 -4.16699 -25.5 -12.5
s-18 -17.166 -25 -26.499l-13.5 -18h-10z" />
    <glyph glyph-name="utilde" unicode="&#x7e;u" horiz-adv-x="554" 
d="M115 608l0.00195312 10l77 101l16 4c10.667 0 34 -6 70 -18c32 -10.667 51.667 -16 59 -16c6.66699 0 14.667 4.16699 24 12.5s17.666 17.166 24.999 26.499l14 18h11l39 -36v-10l-77 -101l-17 -4c-11.333 0 -34.333 6 -69 18c-3.33301 1.33301 -12.333 4.33301 -27 9
s-25.334 7 -32.001 7c-7.33301 0 -15.833 -4.16699 -25.5 -12.5s-18 -17.166 -25 -26.499l-13.5 -18h-10zM122.502 32c-31.667 27.333 -47.5039 69.3311 -47.5039 125.998v245c0 17.333 -1.66699 28.666 -5 33.999s-10.666 8 -21.999 8l-25 -1l-2 3l7 56
c8 0 23.833 -0.333008 47.5 -1s49.167 -1 76.5 -1c20 0 40 0.5 60 1.5s33.667 1.83301 41 2.5l-7 -58c-16 -1.33301 -27.167 -5 -33.5 -11s-10.166 -15.667 -11.499 -29l-5 -227c0 -34.667 8.16699 -62 24.5 -82s39.5 -30 69.5 -30c62 0 93 31 93 93
c0 39.333 -0.5 84.333 -1.5 135s-1.5 86.334 -1.5 107.001c0 16.667 -1.66699 27.834 -5 33.501s-10 8.5 -20 8.5l-26 -1l-2 3l8 56c7.33301 0 20.5 -0.333008 39.5 -1s37.833 -1 56.5 -1s38.834 0.5 60.501 1.5s35.834 1.83301 42.501 2.5l-5 -57
c-20 -4.66699 -32.833 -9.16699 -38.5 -13.5s-8.5 -12.5 -8.5 -24.5v-236c0 -59.333 -18.333 -104.666 -55 -135.999s-89.667 -47 -159 -47c-65.333 0 -113.833 13.667 -145.5 41z" />
    <glyph glyph-name="uni1EBC" unicode="&#x7e;E" horiz-adv-x="596" 
d="M557 189c-10.667 -52 -19.6689 -113.666 -27.002 -184.999l-10 -11c-127.333 4.66699 -231 7 -311 7c-56 0 -113 -3.33301 -171 -10l7 67c28 4 47 12 57 24s15 32.667 15 62l1 381c0 22 -2 36.5 -6 43.5s-12.667 10.5 -26 10.5c-8.66699 0 -19 -0.666992 -31 -2l-6 9
l8 60h20c47.333 -2 101 -3 161 -3c148.667 0 250 4 304 12l8 -11c-5.33301 -24.667 -10.166 -54 -14.499 -88s-7.16602 -65 -8.49902 -93l-89 -6l2 40c0 20 -2.83301 34.167 -8.5 42.5s-17 14 -34 17s-45.5 4.5 -85.5 4.5c-17.333 0 -29.333 -0.666992 -36 -2
s-11.167 -4.33301 -13.5 -9s-3.83301 -12.334 -4.5 -23.001l-7 -157l94 -1c14 0 31.5 0.833008 52.5 2.5s42.167 3.83398 63.5 6.50098l8 -9l-14 -85c-8.66699 0 -15.334 0.333008 -20.001 1c-46.667 1.33301 -83.667 2 -111 2c-20.667 0 -46.334 -2 -77.001 -6l-2 -143
c0 -18.667 1.5 -32 4.5 -40s8.66699 -13.333 17 -16s22.833 -4 43.5 -4c44 0 75.833 2.5 95.5 7.5s33.834 15.167 42.501 30.5s15.334 40.666 20.001 75.999l82 7zM139.998 724.001l-0.000976562 10l78 95l16 4c8 0 19.5 -1.83301 34.5 -5.5l45.5 -11.5
c3.33301 -0.666992 13.833 -3.5 31.5 -8.5s30.5 -7.5 38.5 -7.5c6.66699 0 14.834 3.83301 24.501 11.5s18.334 15.5 26.001 23.5s12.5 13.333 14.5 16h10l39 -36v-10l-78 -95l-17 -4c-12.667 0 -39.667 6 -81 18c-34.667 10 -57.334 15 -68.001 15
c-7.33301 0 -15.833 -3.83301 -25.5 -11.5s-18.167 -15.5 -25.5 -23.5s-12 -13.333 -14 -16h-11z" />
    <glyph glyph-name="uni1EBD" unicode="&#x7e;e" horiz-adv-x="512" 
d="M82 612v10.001l78 101l17 4c12.667 0 39.667 -6 81 -18c37.333 -10.667 60 -16 68 -16c7.33301 0 15.833 4.16699 25.5 12.5s18.167 17.166 25.5 26.499l14 18h11l38 -36v-10l-78 -101l-16 -4c-8 0 -19.5 1.83301 -34.5 5.5l-45.5 11.5
c-3.33301 0.666992 -13.833 3.5 -31.5 8.5s-30.5 7.5 -38.5 7.5c-7.33301 0 -15.833 -4.16699 -25.5 -12.5s-18.167 -17 -25.5 -26s-12 -14.833 -14 -17.5h-10zM42 50.001c22.667 2.66699 38.001 8.83105 46.001 18.498s12 26.167 12 49.5l1 285
c0 16.667 -1.66699 27.834 -5 33.501s-10.333 8.5 -21 8.5l-24 -1l-6 8l7 51c10.667 0 31.167 -0.333008 61.5 -1s62.833 -1 97.5 -1c118 0 202 3 252 9l7 -9c-2 -8.66699 -5.16699 -27.5 -9.5 -56.5s-7.5 -58.833 -9.5 -89.5l-83 -5c0 2 0.333008 6.16699 1 12.5
s1 12.5 1 18.5c0 14.667 -2.33301 25 -7 31s-13.667 10.167 -27 12.5s-35.333 3.5 -66 3.5c-18 0 -29.167 -1.33301 -33.5 -4s-6.83301 -9.33398 -7.5 -20.001l-5 -113h74c12 0 29 0.833008 51 2.5s36.667 2.83398 44 3.50098l8 -9l-12 -72
c-7.33301 0 -21.166 0.333008 -41.499 1s-41.833 1 -64.5 1c-18 0 -38.667 -1.66699 -62 -5c-1.33301 -32 -2 -64.667 -2 -98c0 -14.667 1 -25 3 -31s6.33301 -10.167 13 -12.5s18 -3.5 34 -3.5c33.333 0 57.666 2.16699 72.999 6.5s26.333 12.333 33 24
s12 30.834 16 57.501l76 6l8 -9c-2 -8 -5.5 -26.667 -10.5 -56s-9.16699 -60.333 -12.5 -93l-9 -9c-16.667 0.666992 -52.834 1.66699 -108.501 3s-105.834 2 -150.501 2c-31.333 0 -61.666 -1.16699 -90.999 -3.5l-57 -4.5z" />
    <glyph glyph-name="uni1EF8" unicode="&#x7e;Y" horiz-adv-x="594" 
d="M143 56c26.667 3.33301 46.1699 8.16699 58.5029 14.5s20.666 15.333 24.999 27s6.5 29.5 6.5 53.5v31c0 18 -2 34.333 -6 49s-11.667 32.667 -23 54l-98 190c-16.667 34 -32.334 58 -47.001 72s-37 23.667 -67 29l-2 5l7 63c9.33301 0 26.833 -0.5 52.5 -1.5
s50.834 -1.5 75.501 -1.5c21.333 0 50.333 1.16699 87 3.5s61 3.83301 73 4.5l4 -9l-5 -56c-22.667 -1.33301 -38.5 -4.33301 -47.5 -9s-13.5 -12 -13.5 -22c0 -12.667 22.667 -67.667 68 -165c13.333 -30.667 19.666 -45.334 18.999 -44.001h9l81 168
c10 20 15 35.667 15 47c0 7.33301 -4.16699 12.833 -12.5 16.5s-21.5 6.16699 -39.5 7.5l-2 5l7 57l48 -2c36 -1.33301 64 -2 84 -2c18.667 0 38.667 0.5 60 1.5s35 1.83301 41 2.5l4 -7l-7 -60c-26.667 -8.66699 -47.834 -21.667 -63.501 -39s-35.167 -47 -58.5 -89
l-95 -179c-9.33301 -16.667 -14.833 -33.667 -16.5 -51s-2.5 -49 -2.5 -95c0 -22 3.33301 -37.5 10 -46.5s18.667 -13.5 36 -13.5c12 0 22.5 0.333008 31.5 1s15.167 1.33398 18.5 2.00098l4 -5l-9 -67c-12 0.666992 -34.333 1.5 -67 2.5s-64.667 1.5 -96 1.5
c-24 0 -53 -1.5 -87 -4.5s-56.333 -5.16699 -67 -6.5zM157.003 724.001l-0.000976562 10l78 95l16 4c8 0 19.5 -1.83301 34.5 -5.5l45.5 -11.5c3.33301 -0.666992 13.833 -3.5 31.5 -8.5s30.5 -7.5 38.5 -7.5c6.66699 0 14.834 3.83301 24.501 11.5s18.334 15.5 26.001 23.5
s12.5 13.333 14.5 16h10l39 -36v-10l-78 -95l-17 -4c-12.667 0 -39.667 6 -81 18c-34.667 10 -57.334 15 -68.001 15c-7.33301 0 -15.833 -3.83301 -25.5 -11.5s-18.167 -15.5 -25.5 -23.5s-12 -13.333 -14 -16h-11z" />
    <glyph glyph-name="uni1EF9" unicode="&#x7e;y" horiz-adv-x="521" 
d="M81 612v10.001l78 101l17 4c12.667 0 39.667 -6 81 -18c37.333 -10.667 60 -16 68 -16c7.33301 0 15.833 4.16699 25.5 12.5s18.167 17.166 25.5 26.499l14 18h11l38 -36v-10l-78 -101l-16 -4c-8 0 -19.5 1.83301 -34.5 5.5l-45.5 11.5
c-3.33301 0.666992 -13.833 3.5 -31.5 8.5s-30.5 7.5 -38.5 7.5c-7.33301 0 -15.833 -4.16699 -25.5 -12.5s-18.167 -17 -25.5 -26s-12 -14.833 -14 -17.5h-10zM126 50.001c22 2.66699 38.333 6.16309 49 10.4961s17.834 11 21.501 20s5.5 22.167 5.5 39.5v21
c0 12.667 -1.66699 24.667 -5 36s-9.33301 25 -18 41l-83 150c-12 22.667 -24.333 39.334 -37 50.001s-30.667 19 -54 25l-3 4l8 55c8.66699 0 24 -0.333008 46 -1s43.333 -1 64 -1c17.333 0 41.5 0.833008 72.5 2.5s51.5 2.83398 61.5 3.50098l5 -8l-5 -49
c-17.333 -0.666992 -29.333 -2.66699 -36 -6s-10 -9 -10 -17c0 -6 7 -24 21 -54l25 -54l19 -40h8l59 118c8.66699 15.333 13 27.333 13 36c0 5.33301 -3.16699 9.33301 -9.5 12s-16.5 4.33398 -30.5 5.00098l-3 4l6 50l47 -1c29.333 -1.33301 51.666 -2 66.999 -2
c20 0 38.167 0.333008 54.5 1s27.166 1.33398 32.499 2.00098l3 -6l-6 -52c-21.333 -7.33301 -39 -18.333 -53 -33s-29.333 -36.667 -46 -66l-78 -140c-6.66699 -12.667 -10.667 -25.167 -12 -37.5s-2.33301 -32.833 -3 -61.5c0 -18.667 2.83301 -31.667 8.5 -39
s16.167 -11 31.5 -11c9.33301 0 17.833 0.333008 25.5 1s12.834 1 15.501 1l3 -4l-8 -59c-10.667 0.666992 -30.334 1.5 -59.001 2.5s-56.667 1.5 -84 1.5c-20 0 -45.167 -1.16699 -75.5 -3.5s-50.166 -3.83301 -59.499 -4.5z" />
    <glyph glyph-name="Gtilde" unicode="&#x7e;G" horiz-adv-x="654" 
d="M168 26c-44.667 25.333 -79.002 61.667 -103.002 109s-36 103.333 -36 168c0 72 14.333 134.333 43 187s69.667 93.167 123 121.5s116.333 42.5 189 42.5c26 0 53.667 -1.83301 83 -5.5s54.333 -7.5 75 -11.5s34 -6.66699 40 -8l7 -13
c-1.33301 -4 -3.66602 -14.167 -6.99902 -30.5s-6.83301 -38 -10.5 -65s-6.5 -55.833 -8.5 -86.5l-96 -7c0.666992 2.66699 1.33398 9 2.00098 19s1 22 1 36c0 28 -8.5 47.833 -25.5 59.5s-45.167 17.5 -84.5 17.5c-60.667 0 -106 -18.167 -136 -54.5
s-45 -92.166 -45 -167.499c0 -82 15.167 -145.5 45.5 -190.5s72.5 -67.5 126.5 -67.5c18 0 34.333 2 49 6s26.167 8.16699 34.5 12.5s13.5 7.16602 15.5 8.49902v95c0 19.333 -3 32.166 -9 38.499s-18 9.5 -36 9.5h-52l-5 8l10 71c16 0 29.667 -0.333008 41 -1
c37.333 -1.33301 70 -2 98 -2c20.667 0 41 0.666992 61 2s33 2.33301 39 3l7 -38c-11.333 -7.33301 -19.833 -16.5 -25.5 -27.5s-9.5 -26.667 -11.5 -47s-3 -50.166 -3 -89.499c0 -40 2.33301 -69 7 -87l-9 -12c0 -0.666992 -11.167 -4.66699 -33.5 -12s-51 -14 -86 -20
s-73.5 -9 -115.5 -9c-61.333 0 -114.333 12.667 -159 38zM178.998 724.001l-0.000976562 10l78 95l16 4c8 0 19.5 -1.83301 34.5 -5.5l45.5 -11.5c3.33301 -0.666992 13.833 -3.5 31.5 -8.5s30.5 -7.5 38.5 -7.5c6.66699 0 14.834 3.83301 24.501 11.5
s18.334 15.5 26.001 23.5s12.5 13.333 14.5 16h10l39 -36v-10l-78 -95l-17 -4c-12.667 0 -39.667 6 -81 18c-34.667 10 -57.334 15 -68.001 15c-7.33301 0 -15.833 -3.83301 -25.5 -11.5s-18.167 -15.5 -25.5 -23.5s-12 -13.333 -14 -16h-11z" />
    <glyph glyph-name="gtilde" unicode="&#x7e;g" horiz-adv-x="555" 
d="M123 612v10.001l78 101l17 4c12.667 0 39.667 -6 81 -18c37.333 -10.667 60 -16 68 -16c7.33301 0 15.833 4.16699 25.5 12.5s18.167 17.166 25.5 26.499l14 18h11l38 -36v-10l-78 -101l-16 -4c-8 0 -19.5 1.83301 -34.5 5.5l-45.5 11.5
c-3.33301 0.666992 -13.833 3.5 -31.5 8.5s-30.5 7.5 -38.5 7.5c-7.33301 0 -15.833 -4.16699 -25.5 -12.5s-18.167 -17 -25.5 -26s-12 -14.833 -14 -17.5h-10zM96 57.001c-44 44 -65.9971 104.331 -65.9971 180.998c0 85.333 26 152 78 200s124.333 72 217 72
c21.333 0 44.166 -1.5 68.499 -4.5s45.166 -6 62.499 -9s28.333 -5.16699 33 -6.5l6 -11c-0.666992 -3.33301 -2.5 -11.5 -5.5 -24.5s-6.16699 -30.333 -9.5 -52s-5.66602 -44.834 -6.99902 -69.501l-90 -6c0 2 0.333008 6.83301 1 14.5s1 16.834 1 27.501
c0 21.333 -6.16699 36.333 -18.5 45s-32.833 13 -61.5 13c-46.667 0 -81 -13 -103 -39s-33 -67 -33 -123c0 -62.667 11 -110.334 33 -143.001s54 -49 96 -49c13.333 0 25.333 1.33301 36 4s19 5.33398 25 8.00098s9.66699 4.33398 11 5.00098v67
c0 14.667 -2.16699 24.334 -6.5 29.001s-13.5 7 -27.5 7h-40l-5 8l10 60l116 -1c17.333 0 34.833 0.5 52.5 1.5s29.167 1.83301 34.5 2.5l6 -35c-10.667 -6 -18.334 -13.167 -23.001 -21.5s-7.83398 -20.5 -9.50098 -36.5s-2.5 -40.333 -2.5 -73
c0 -26.667 1.66699 -49 5 -67l-8 -11c-4 -1.33301 -14 -4.33301 -30 -9s-38.5 -9.16699 -67.5 -13.5s-61.5 -6.5 -97.5 -6.5c-76.667 0 -137 22 -181 66z" />
    <glyph glyph-name=".notdef" horiz-adv-x="641" 
d="M336 228l321 -321l-16 -16l-321 321l-321 -321l-16 16l321 321l-321 321l16 16l321 -321l321 321l16 -16z" />
    <glyph glyph-name="uni0000" 
 />
    <glyph glyph-name="uni0000" 
 />
    <glyph glyph-name="nonmarkingreturn" unicode="&#xd;" horiz-adv-x="174" 
 />
    <glyph glyph-name="space" unicode=" " horiz-adv-x="174" 
 />
    <glyph glyph-name="exclam" unicode="!" horiz-adv-x="264" 
d="M93 181l-18 298l10 14l110 18l14 -15l-45 -317l-58 -9zM70 6.5c-12 11.667 -18 27.167 -18 46.5c0 22 6.66699 39.667 20 53s31.666 20.333 54.999 21c21.333 0 38 -6 50 -18s18 -28 18 -48c0 -22 -6.66699 -39.5 -20 -52.5s-31.666 -19.5 -54.999 -19.5
c-21.333 0 -38 5.83301 -50 17.5z" />
    <glyph glyph-name="quotedbl" unicode="&#x22;" horiz-adv-x="320" 
d="M47 282l1 44.999c0 40.667 -1.16699 78.834 -3.5 114.501l-4.5 68.5l99 14l8 -10l-13.5 -84.5c-7 -43.667 -15.167 -87.5 -24.5 -131.5l-47 -19zM191 281.999l1 44.999c0 40.667 -1.16699 78.834 -3.5 114.501l-4.5 68.5l99 14l8 -10l-13.5 -84.5
c-7 -43.667 -15.167 -87.5 -24.5 -131.5l-47 -19z" />
    <glyph glyph-name="numbersign" unicode="#" horiz-adv-x="525" 
d="M83 41l28 139l-96 -1l-6 11l15 68l102 -1l10 52l9 43h-96l-6 11l15 68l100 -1l28 140l70 7l11 -6l-31 -142h94l28 141l71 7l10 -6l-31 -141l98 1l5 -11l-14 -68h-104l-6 -29l-13 -66l97 2l6 -12l-15 -68l-101 1l-27 -136l-69 -11l-10 8l29 139l-57 1l-38 -1l-27 -136
l-69 -11zM284 288l28 29l-35 21l-18 15l-27 -22h-16l-10 -46h29l25 -29z" />
    <glyph glyph-name="dollar" unicode="$" horiz-adv-x="466" 
d="M291 484l-72 -5l18 170l67 9l6 -9zM337 49.5c-25.333 -25.667 -58.335 -43.4961 -99.002 -53.4961l-16 -147l-65 -8l-7 7l16 140c-23.333 0 -44.5 2 -63.5 6s-33.833 8.16699 -44.5 12.5s-17.334 7.16602 -20.001 8.49902l-6 10c2.66699 18 5.16699 39 7.5 63
s4.16602 47 5.49902 69l55 5c0.666992 -67.333 30.334 -101 89.001 -101c19.333 0 35.333 4.16699 48 12.5s19 18.833 19 31.5c0 13.333 -6.66699 25.5 -20 36.5s-40 26.167 -80 45.5c-40 18.667 -69 38.5 -87 59.5s-27 45.5 -27 73.5c0 30 8.66699 56.5 26 79.5
s41.666 41 72.999 54s67 19.5 107 19.5c19.333 0 37.333 -1.33301 54 -4s29.834 -5.5 39.501 -8.5s15.834 -4.83301 18.501 -5.5l5 -10c-1.33301 -7.33301 -4.16602 -23.833 -8.49902 -49.5s-7.83301 -52.167 -10.5 -79.5l-56 -4l1 18c0 23.333 -5.66699 40.5 -17 51.5
s-29 16.5 -53 16.5c-17.333 0 -32 -4.16699 -44 -12.5s-18 -18.833 -18 -31.5s5.33301 -24.334 16 -35.001s28.334 -22 53.001 -34c39.333 -18.667 69.5 -35.334 90.5 -50.001s35.667 -29.5 44 -44.5s12.5 -32.833 12.5 -53.5c0 -32.667 -12.667 -61.834 -38 -87.501z" />
    <glyph glyph-name="percent" unicode="%" horiz-adv-x="710" 
d="M81 -67l-6 14l87.5 132l121.5 186l261 413l60 -24l8 -19l-119.5 -181.5l-146.5 -225.5l-127 -201l-76 -120zM56.5 354.5c-25 29.667 -37.499 69.833 -37.499 120.5c0 54 14.333 97.333 43 130s67 49 115 49c45.333 0 80 -15 104 -45s36 -69 36 -117
c0 -54 -13.833 -97.833 -41.5 -131.5s-65.834 -50.5 -114.501 -50.5c-44.667 0 -79.5 14.833 -104.5 44.5zM255.001 473.999c0 24 -8.16699 43.168 -24.5 57.501s-39.5 21.5 -69.5 21.5c-26 0 -45.833 -5.83301 -59.5 -17.5s-20.5 -27.834 -20.5 -48.501
c0 -27.333 8.5 -47.5 25.5 -60.5s39.167 -19.5 66.5 -19.5c54.667 0 82 22.333 82 67zM443.001 32.5c-24.667 29.667 -36.999 69.833 -36.999 120.5c0 53.333 14.333 96.5 43 129.5s66.667 49.5 114 49.5c46 0 81 -14.833 105 -44.5s36 -68.5 36 -116.5
c0 -54 -14 -98 -42 -132s-66.333 -51 -115 -51c-44.667 0 -79.334 14.833 -104.001 44.5zM641.002 151.999c0 24 -7.99902 43.168 -23.999 57.501s-39 21.5 -69 21.5c-26 0 -46 -5.83301 -60 -17.5s-21 -27.834 -21 -48.501c0 -26.667 8.66699 -46.667 26 -60
s39.666 -20 66.999 -20c54 0 81 22.333 81 67z" />
    <glyph glyph-name="ampersand" unicode="&#x26;" horiz-adv-x="707" 
d="M777 319l0.00292969 -5.99902l-81 -82l-19 -6l-71 7c-17.333 -46 -43.5 -87.667 -78.5 -125s-75 -66.666 -120 -87.999s-91.167 -32 -138.5 -32c-48.667 0 -91.334 10.167 -128.001 30.5s-65 48.833 -85 85.5s-30 79 -30 127c0 49.333 11.333 95.5 34 138.5
s52 77.167 88 102.5s73 38 111 38c28 0 50.333 -6.83301 67 -20.5s25 -30.834 25 -51.501c0 -7.33301 -1.16699 -14.166 -3.5 -20.499s-4.16602 -10.5 -5.49902 -12.5l5 -4c54 44.667 96.167 88.667 126.5 132s51.166 90.666 62.499 141.999l12 11h31
c2 -4 5.66699 -13 11 -27s10.666 -29 15.999 -45s8 -28 8 -36c0 -10 -12 -29.667 -36 -59c-41.333 -49.333 -97.666 -103.333 -168.999 -162s-160.333 -117.334 -267 -176.001c12 -31.333 32.333 -55.5 61 -72.5s64 -25.5 106 -25.5c50 0 93.167 14 129.5 42
s61.833 67 76.5 117l-45 5c-6.66699 0 -14.834 -3.33301 -24.501 -10s-18.334 -13.5 -26.001 -20.5s-12.5 -11.5 -14.5 -13.5h-6l-26 45v5l85 82l16 5c10.667 0 28.667 -1.66699 54 -5s42 -5.33301 50 -6c53.333 -6.66699 85 -10 95 -10c6.66699 0 15.5 3.33301 26.5 10
s21 13.667 30 21s14.833 12 17.5 14h7zM124.003 236.001c36 20.667 63.5 38.166 82.5 52.499s32.167 27.5 39.5 39.5s11 25.333 11 40c0 12.667 -3.16699 22.167 -9.5 28.5s-15.5 9.5 -27.5 9.5c-27.333 0 -50.5 -12.667 -69.5 -38s-28.5 -57.666 -28.5 -96.999
c0 -11.333 0.666992 -23 2 -35z" />
    <glyph glyph-name="quotesingle" unicode="'" horiz-adv-x="176" 
d="M47 282l1 44.999c0 40.667 -1.16699 78.834 -3.5 114.501l-4.5 68.5l99 14l8 -10l-13.5 -84.5c-7 -43.667 -15.167 -87.5 -24.5 -131.5l-47 -19z" />
    <glyph glyph-name="parenleft" unicode="(" horiz-adv-x="290" 
d="M183 -117.5c-32.667 23.667 -61.998 58.335 -87.998 104.002s-39 104.5 -39 176.5v173c0 72.667 13.333 132.167 40 178.5s56.5 81.5 89.5 105.5s49.5 33.667 49.5 29h10l31 -45l-1 -6c0 3.33301 -10.333 -4.33398 -31 -23.001s-39.334 -46.334 -56.001 -83.001
s-25 -83.667 -25 -141v-173c0 -62 8.66699 -113.333 26 -154s36.666 -72 57.999 -94s32 -31 32 -27v-8l-39 -41h-8c0 -4.66699 -16.333 4.83301 -49 28.5z" />
    <glyph glyph-name="parenright" unicode=")" horiz-adv-x="290" 
d="M14 -101l0.998047 5.99902c0 -3.33301 10.333 4.33398 31 23.001s39.334 46.334 56.001 83.001s25 83.667 25 141v173c0 62 -8.66699 113.333 -26 154s-36.666 72 -57.999 94s-32 31 -32 27v8l39 41h8c0 4.66699 16.333 -4.83301 49 -28.5s62 -58.334 88 -104.001
s39 -104.5 39 -176.5v-173c0 -72.667 -13.333 -132.167 -40 -178.5s-56.5 -81.5 -89.5 -105.5s-49.5 -33.667 -49.5 -29h-10z" />
    <glyph glyph-name="asterisk" unicode="*" horiz-adv-x="415" 
d="M178 617c-0.666992 23.333 -1.83105 46.333 -3.49805 69s-2.83398 37.334 -3.50098 44.001c4.66699 1.33301 15.5 4 32.5 8s32.833 6 47.5 6l7 -9c-1.33301 -6.66699 -4.83301 -21.334 -10.5 -44.001s-12.834 -47 -21.501 -73l-41 -5zM85.5029 579.5
c-21.667 5.66699 -35.832 9.16602 -42.499 10.499c0 5.33301 0.666992 16.333 2 33s4.33301 32 9 46l10 4c6 -3.33301 19.167 -11.166 39.5 -23.499s41.166 -26.5 62.499 -42.5l-7 -41l-8 -6c-22 7.33301 -43.833 13.833 -65.5 19.5zM237.005 600.999l3 10.001
c21.333 7.33301 42.666 15.166 63.999 23.499s35 13.833 41 16.5l8.5 -13c4.33301 -6.66699 9.5 -15.5 15.5 -26.5s10.333 -21.5 13 -31.5l-6 -9c-6.66699 -0.666992 -21.667 -2 -45 -4s-48.666 -2.66699 -75.999 -2zM257.005 407l-18 41.501
c-9.33301 21.667 -18 45.5 -26 71.5l30 29h9l42.5 -54l28.5 -34l-21.5 -25c-11 -12.667 -22.5 -23.334 -34.5 -32.001zM105.505 436.001c-15.667 6.66699 -29.501 14.332 -41.501 22.999v10c4.66699 4.66699 15.834 14.834 33.501 30.501s37.834 31.167 60.501 46.5l36 -19
l3 -8c-13.333 -18.667 -26 -37.667 -38 -57s-19.667 -32 -23 -38c-4.66699 1.33301 -14.834 5.33301 -30.501 12z" />
    <glyph glyph-name="plus" unicode="+" horiz-adv-x="506" 
d="M202 32l1 177c-42 -0.666992 -79.667 -1 -113 -1h-66l-7 11l14 87l172 -1l1 182l87 10l12 -7c-0.666992 -12 -1.66699 -35.5 -3 -70.5s-2.33301 -73.167 -3 -114.5c41.333 0.666992 79.5 1.66699 114.5 3s58.5 2.33301 70.5 3l7 -12l-10 -89l-182 -1l1 -170l-85 -14z" />
    <glyph glyph-name="comma" unicode="," horiz-adv-x="269" 
d="M31 -112l0.00195312 16.999c21.333 14.667 38.666 32.334 51.999 53.001s20 41 20 61c0 13.333 -2.83301 26.5 -8.5 39.5s-12.834 23.833 -21.501 32.5l2 14c12.667 10 25.834 18.333 39.501 25s26.5 10 38.5 10c19.333 0 35.166 -8 47.499 -24s18.5 -37.667 18.5 -65
c0 -34.667 -14.5 -69 -43.5 -103s-65.167 -63.667 -108.5 -89z" />
    <glyph glyph-name="hyphen" unicode="-" horiz-adv-x="355" 
d="M50 207l7.99805 76.998l164 18c22.667 2.66699 39.834 4.83398 51.501 6.50098s18.834 2.83398 21.501 3.50098l10 -13l-9 -78l-236 -26z" />
    <glyph glyph-name="period" unicode="." horiz-adv-x="275" 
d="M79.5 9c-12.333 13.333 -18.5 31.333 -18.5 54c0 24 7.16699 43.5 21.5 58.5s33.833 22.5 58.5 22.5c22.667 0 40.5 -6.83301 53.5 -20.5s19.5 -31.5 19.5 -53.5c0 -24 -7.33301 -43.5 -22 -58.5s-34 -22.5 -58 -22.5s-42.167 6.66699 -54.5 20z" />
    <glyph glyph-name="slash" unicode="/" horiz-adv-x="329" 
d="M20 -99c6 19.333 18.667 62.5 38 129.5s37 132.167 53 195.5l115 449h79l12 -15l-48.5 -177l-72.5 -268l-54 -208.5l-30 -116.5h-83z" />
    <glyph glyph-name="zero" unicode="0" horiz-adv-x="503" 
d="M84 55c-38 44.667 -57 105.333 -57 182c0 54 10 101.667 30 143s48 73.333 84 96s77.333 34 124 34c65.333 0 117 -22.167 155 -66.5s57 -104.5 57 -180.5c0 -54.667 -9.83301 -102.667 -29.5 -144s-47.5 -73.5 -83.5 -96.5s-77.667 -34.5 -125 -34.5
c-65.333 0 -117 22.333 -155 67zM359.5 148.999c25 22 37.5 52.3311 37.5 90.998c0 41.333 -13.667 74.5 -41 99.5s-64.333 37.5 -111 37.5c-43.333 0 -77.333 -11.167 -102 -33.5s-37 -53.166 -37 -92.499c0 -41.333 13.5 -74.166 40.5 -98.499s63.5 -36.5 109.5 -36.5
c44 0 78.5 11 103.5 33z" />
    <glyph glyph-name="one" unicode="1" horiz-adv-x="358" 
d="M40 51c34 3.33301 57.334 11.335 70.001 24.002s19 35.667 19 69v216c0 23.333 -3.66699 38.666 -11 45.999s-20.666 11 -39.999 11c-8 0 -17.5 -0.666992 -28.5 -2s-18.167 -2.33301 -21.5 -3l-6 6l6 57c39.333 4 79.333 9 120 15
c49.333 6.66699 83.666 11.667 102.999 15s29.666 5 30.999 5l10 -29c-12 -10 -20.667 -20.5 -26 -31.5s-9.33301 -26.833 -12 -47.5c-6.66699 -76 -10 -166.667 -10 -272c0 -24.667 3.16699 -41.834 9.5 -51.501s17.833 -14.5 34.5 -14.5c12 0 22.5 0.333008 31.5 1
s14.833 1 17.5 1l3 -5l-11 -65c-10 0.666992 -29 1.5 -57 2.5s-56.667 1.5 -86 1.5s-61.5 -1.83301 -96.5 -5.5s-54.167 -5.5 -57.5 -5.5z" />
    <glyph glyph-name="two" unicode="2" horiz-adv-x="483" 
d="M91 106c53.333 61.333 91.502 110.332 114.502 146.999s34.5 67 34.5 91c0 20 -5.5 35.333 -16.5 46s-26.5 16 -46.5 16s-39.833 -6.83301 -59.5 -20.5s-37.5 -32.5 -53.5 -56.5h-13l-17 71c25.333 34 55 60.833 89 80.5s68.667 29.5 104 29.5
c46.667 0 84.167 -11.833 112.5 -35.5s42.5 -54.834 42.5 -93.501c0 -21.333 -5.5 -43.5 -16.5 -66.5s-29.833 -51 -56.5 -84s-65 -76.833 -115 -131.5l4 -8h99c31.333 0 53.5 6.16699 66.5 18.5s23.167 36.5 30.5 72.5l74 7c-2.66699 -12 -7.33398 -37.667 -14.001 -77
s-11.334 -75.666 -14.001 -108.999l-14 -12c-26.667 0.666992 -80 2.33398 -160 5.00098s-139.667 4 -179 4l-64 -9l-7 32z" />
    <glyph glyph-name="three" unicode="3" horiz-adv-x="430" 
d="M34 -77.5c-11.333 15 -17.9971 40.834 -19.9971 77.501l12 14c25.333 -8.66699 54 -13 86 -13c42.667 0 77.834 9.16699 105.501 27.5s41.5 41.5 41.5 69.5s-12 48.5 -36 61.5s-61.667 19.833 -113 20.5l-9 9l-7 60l65 15c22.667 10 41 23.667 55 41s21 35.666 21 54.999
c0 16.667 -5.83301 30.167 -17.5 40.5s-26.834 15.5 -45.501 15.5c-16.667 0 -34.834 -4.5 -54.501 -13.5s-37.834 -21.167 -54.501 -36.5h-13l-19 69c18.667 15.333 46.5 31.666 83.5 48.999s70.5 26 100.5 26c44 0 79.5 -10.667 106.5 -32s40.5 -49.666 40.5 -84.999
c0 -27.333 -10 -53.333 -30 -78s-46.667 -44.334 -80 -59.001v-7c45.333 -12 79.666 -29.167 102.999 -51.5s35 -49.166 35 -80.499c0 -34 -14.667 -68 -44 -102s-67 -61.667 -113 -83s-92.667 -32 -140 -32c-28 0 -47.667 7.5 -59 22.5z" />
    <glyph glyph-name="four" unicode="4" horiz-adv-x="470" 
d="M241 -90c0.666992 10 1.66797 31.668 3.00098 65.001s2.33301 65 3 95c-104 2.66699 -184 4 -240 4l3 65l266 369l6 2l81 -11v-342h82l8 -12l-9 -81l-81 3c1.33301 -36 2.66602 -67.333 3.99902 -94s2.33301 -44.334 3 -53.001l-8 -8l-113 -12zM248.001 157.001v180h-10
l-127 -180h137z" />
    <glyph glyph-name="five" unicode="5" horiz-adv-x="427" 
d="M23.5 -78c-12.333 14.667 -19.5 40.668 -21.5 78.001l12 14c26.667 -8.66699 55.334 -13 86.001 -13c44 0 80.5 9.16699 109.5 27.5s43.5 41.833 43.5 70.5c0 26.667 -14 47.5 -42 62.5s-77.333 27.5 -148 37.5l-9 11c5.33301 54 9.66602 108.333 12.999 163
s5.33301 90 6 106l8 8l194 7c19.333 1.33301 33.333 4.66602 42 9.99902s15.667 15.333 21 30l53 4l-26 -146l-12 -11l-74.5 4.5c-39 2.33301 -81.167 3.5 -126.5 3.5l-7 -92c80 -16 139.5 -36.667 178.5 -62s58.5 -60.333 58.5 -105c0 -38 -15.167 -74.833 -45.5 -110.5
s-69 -64.5 -116 -86.5s-93.5 -33 -139.5 -33c-26 0 -45.167 7.33301 -57.5 22z" />
    <glyph glyph-name="six" unicode="6" horiz-adv-x="467" 
d="M395.5 312.5c31.667 -31.667 47.499 -72.5 47.499 -122.5c0 -39.333 -9 -74.333 -27 -105s-43.333 -54.5 -76 -71.5s-70 -25.5 -112 -25.5c-38 0 -71.667 9 -101 27s-52.166 43.167 -68.499 75.5s-24.5 69.833 -24.5 112.5c0 58.667 14.333 114.167 43 166.5
s69 98.333 121 138s112.667 69.834 182 90.501l10 -5l19 -53c-116 -50.667 -192.667 -120.334 -230 -209.001l8 -9c38.667 22 67.667 34.667 87 38c49.333 0 89.833 -15.833 121.5 -47.5zM305.999 92.5c14 17 20.999 41.167 20.999 72.5c0 32 -8.5 58 -25.5 78
s-38.5 30 -64.5 30c-12 0 -25.167 -2.5 -39.5 -7.5s-28.166 -11.833 -41.499 -20.5c-2 -14 -3 -28 -3 -42c0 -42.667 8.16699 -76 24.5 -100s38.833 -36 67.5 -36c26.667 0 47 8.5 61 25.5z" />
    <glyph glyph-name="seven" unicode="7" horiz-adv-x="427" 
d="M94 -73l-10.998 23.999l225 445l-136 -8c-22 -2 -38.333 -5.5 -49 -10.5s-18.834 -13.167 -24.501 -24.5s-10.5 -29 -14.5 -53l-59 -6c2 12.667 5.33301 40.334 10 83.001s8 82.667 10 120l6 5c6.66699 -0.666992 22.167 -1.5 46.5 -2.5s49.5 -1.5 75.5 -1.5h216l38 -47
c-78.667 -163.333 -144.334 -310 -197.001 -440l-31 -111h-16z" />
    <glyph glyph-name="eight" unicode="8" horiz-adv-x="480" 
d="M92 27c-35.333 26 -52.9951 60.335 -52.9951 103.002c0 37.333 11.333 68.166 34 92.499s49 43.166 79 56.499c-30.667 18.667 -54.834 39.834 -72.501 63.501s-26.5 52.5 -26.5 86.5c0 30 8.66699 58 26 84s41.166 46.667 71.499 62s64.166 23 101.499 23
c30.667 0 59 -5.66699 85 -17s47 -27.5 63 -48.5s24 -45.5 24 -73.5c0 -32.667 -8.83301 -60.334 -26.5 -83.001s-38.834 -40.334 -63.501 -53.001c32.667 -18.667 58.334 -39.667 77.001 -63s28 -52 28 -86c0 -34.667 -9.33301 -66.167 -28 -94.5
s-44.334 -50.666 -77.001 -66.999s-69.334 -24.5 -110.001 -24.5c-52.667 0 -96.667 13 -132 39zM316.005 436.002c0 26.667 -7.16895 47.5 -21.502 62.5s-33.166 22.5 -56.499 22.5c-21.333 0 -38.666 -6.5 -51.999 -19.5s-20 -28.833 -20 -47.5
c0 -22 8.83301 -40 26.5 -54s45.167 -30 82.5 -48c27.333 21.333 41 49.333 41 84zM302.003 82.502c16 15 24.001 34.167 24.001 57.5c0 16 -5.33301 30.167 -16 42.5s-23.5 22.833 -38.5 31.5s-37.167 20.334 -66.5 35.001c-16.667 -10.667 -30.667 -23.167 -42 -37.5
s-17 -32.833 -17 -55.5c0 -26.667 9.16699 -49.334 27.5 -68.001s41.166 -28 68.499 -28c24 0 44 7.5 60 22.5z" />
    <glyph glyph-name="nine" unicode="9" horiz-adv-x="463" 
d="M341 483c29.333 -18 52.167 -43.3301 68.5 -75.9971s24.5 -70.334 24.5 -113.001c0 -58 -14.333 -113.333 -43 -166s-69 -98.834 -121 -138.501s-112.667 -69.834 -182 -90.501l-10 6l-19 53c115.333 50 192.333 119.667 231 209l-9 9
c-41.333 -23.333 -70.333 -36 -87 -38c-49.333 0 -89.833 15.667 -121.5 47s-47.5 72 -47.5 122c0 39.333 9 74.5 27 105.5s43.333 55 76 72s70 25.5 112 25.5c38 0 71.667 -9 101 -27zM270.501 231.503c14.333 5 28.167 11.832 41.5 20.499c2 14 3 28.333 3 43
c0 42.667 -8.16699 75.834 -24.5 99.501s-38.833 35.5 -67.5 35.5c-26.667 0 -47 -8.33301 -61 -25s-21 -41 -21 -73s8.5 -58 25.5 -78s38.5 -30 64.5 -30c12 0 25.167 2.5 39.5 7.5z" />
    <glyph glyph-name="colon" unicode=":" horiz-adv-x="238" 
d="M77.5 9c-12.333 13.333 -18.5 31.333 -18.5 54c0 24 7.16699 43.5 21.5 58.5s33.833 22.5 58.5 22.5c22.667 0 40.5 -6.83301 53.5 -20.5s19.5 -31.5 19.5 -53.5c0 -24 -7.33301 -43.5 -22 -58.5s-34 -22.5 -58 -22.5s-42.167 6.66699 -54.5 20zM77.5 282
c-12.333 13.333 -18.5 31.333 -18.5 54c0 24 7.16699 43.5 21.5 58.5s33.833 22.5 58.5 22.5c22.667 0 40.5 -6.83301 53.5 -20.5s19.5 -31.5 19.5 -53.5c0 -24 -7.33301 -43.5 -22 -58.5s-34 -22.5 -58 -22.5s-42.167 6.66699 -54.5 20z" />
    <glyph glyph-name="semicolon" unicode=";" horiz-adv-x="238" 
d="M31 -112l0.00195312 16.999c21.333 14.667 38.666 32.334 51.999 53.001s20 41 20 61c0 13.333 -2.83301 26.5 -8.5 39.5s-12.834 23.833 -21.501 32.5l2 14c12.667 10 25.834 18.333 39.501 25s26.5 10 38.5 10c19.333 0 35.166 -8 47.499 -24s18.5 -37.667 18.5 -65
c0 -34.667 -14.5 -69 -43.5 -103s-65.167 -63.667 -108.5 -89zM77.502 281.999c-12.333 13.333 -18.5 31.333 -18.5 54c0 24 7.16699 43.5 21.5 58.5s33.833 22.5 58.5 22.5c22.667 0 40.5 -6.83301 53.5 -20.5s19.5 -31.5 19.5 -53.5c0 -24 -7.33301 -43.5 -22 -58.5
s-34 -22.5 -58 -22.5s-42.167 6.66699 -54.5 20z" />
    <glyph glyph-name="less" unicode="&#x3c;" horiz-adv-x="472" 
d="M330 85l-104 47l-114.5 50c-37 16 -62.167 26.667 -75.5 32l-8 13l1 95l192 82l179 76l13 -8l19 -75c-12 -4 -37.167 -13.167 -75.5 -27.5s-73.833 -28.5 -106.5 -42.5l-125 -51v-7l139 -60l103.5 -46.5c30.333 -13.667 50.5 -22.5 60.5 -26.5l5 -15l-42 -64z" />
    <glyph glyph-name="equal" unicode="=" horiz-adv-x="506" 
d="M17 308l14 86.999l234 -1c33.333 0 74 0.833008 122 2.5s79.667 2.83398 95 3.50098l7 -12l-10 -89l-227 -1l-228 -1zM17 130.999l14 87.999l234 -1c33.333 0 74 0.833008 122 2.5s79.667 2.83398 95 3.50098l7 -12l-10 -90l-227 -1l-228 -1z" />
    <glyph glyph-name="greater" unicode="&#x3e;" horiz-adv-x="472" 
d="M60 65l-20.001 75c11.333 4 36.333 13.333 75 28s74.334 29 107.001 43l125 50v7l-138 61l-165 72l-5 15l42 64l61 -28l104 -47l114.5 -50c37 -16 62.167 -26.667 75.5 -32l8 -13l-1 -95l-192 -82l-178 -76z" />
    <glyph glyph-name="question" unicode="?" horiz-adv-x="309" 
d="M82 162l-18.999 88.999l1 11l90 49c13.333 7.33301 22.833 14.5 28.5 21.5s8.5 15.167 8.5 24.5c0 18 -11.833 32 -35.5 42s-63.5 18 -119.5 24l-5 10l38 71l10 5c65.333 -1.33301 118.333 -14.166 159 -38.499s61 -55.5 61 -93.5c0 -25.333 -9.83301 -48 -29.5 -68
s-54.834 -43 -105.501 -69l-3 -5l12 -55l-5 -9l-76 -14zM78.501 5.99902c-12.333 11.333 -18.498 27.001 -18.498 47.001c0 22.667 6.66699 40.5 20 53.5s31.333 19.833 54 20.5c21.333 0 38.166 -5.83301 50.499 -17.5s18.5 -27.834 18.5 -48.501
c0 -22 -6.83301 -39.5 -20.5 -52.5s-31.834 -19.5 -54.501 -19.5c-20.667 0 -37.167 5.66699 -49.5 17z" />
    <glyph glyph-name="at" unicode="@" horiz-adv-x="861" 
d="M224.5 -168c-65.667 34.667 -115.5 82.0068 -149.5 142.007s-51 128.333 -51 205c0 80 20 155.333 60 226s94.833 127.5 164.5 170.5s146.834 64.5 231.501 64.5c70.667 0 133 -13.333 187 -40s95.833 -63.834 125.5 -111.501s44.5 -102.167 44.5 -163.5
c0 -63.333 -13.667 -120.666 -41 -171.999s-67 -91.666 -119 -120.999s-113.667 -44 -185 -44c-13.333 0 -24 3.5 -32 10.5s-12 16.833 -12 29.5c0 7.33301 4.16699 30.166 12.5 68.499s15.833 71.166 22.5 98.499l-8 1c-29.333 -54.667 -57.166 -98.334 -83.499 -131.001
s-52.833 -58.334 -79.5 -77.001c-35.333 0 -62.833 13 -82.5 39s-29.5 61.333 -29.5 106c0 53.333 12 105.833 36 157.5s54.667 93.667 92 126s74.666 48.5 111.999 48.5l88 -17l7 22l11 6l78 -13l8 -17l-18.5 -73.5c-9.66699 -38.333 -20.167 -84.5 -31.5 -138.5
s-20.333 -104.667 -27 -152l5 -5c60 0 106.833 19.833 140.5 59.5s50.5 92.167 50.5 157.5c0 55.333 -12.167 103.166 -36.5 143.499s-59 71.166 -104 92.499s-97.833 32 -158.5 32c-66 0 -124.667 -15.833 -176 -47.5s-91.333 -74.834 -120 -129.501s-43 -114.667 -43 -180
c0 -70.667 14 -132.834 42 -186.501s70.167 -96 126.5 -127s125.833 -47.5 208.5 -49.5v-16l-31 -49c-90.667 2 -168.834 20.333 -234.501 55zM384.5 137.007c17.667 23.333 36.833 54.667 57.5 94s39.667 82 57 128c-34 19.333 -63.667 29 -89 29
c-14 0 -28 -9.66699 -42 -29s-25.333 -44.5 -34 -75.5s-13 -62.833 -13 -95.5c0 -24 2 -44.333 6 -61s9.33301 -25 16 -25c10 0 23.833 11.667 41.5 35z" />
    <glyph glyph-name="A" unicode="A" horiz-adv-x="625" 
d="M331 0l5.00098 59c22.667 2 39.167 4.16699 49.5 6.5s17.5 5.66602 21.5 9.99902s6 10.833 6 19.5c0 8 -1.66699 19.667 -5 35l-21 77c-34.667 1.33301 -65.334 2 -92.001 2c-12 0 -37 -1.66699 -75 -5l-21 -2l-25 -77c-4 -14.667 -6 -25 -6 -31
c0 -12 3.5 -20.333 10.5 -25s19.167 -7 36.5 -7h43l5 -7l-7 -61c-9.33301 0.666992 -29.333 1.83398 -60 3.50098s-59.334 2.5 -86.001 2.5c-28 0 -53.167 -0.333008 -75.5 -1s-37.166 -1.33398 -44.499 -2.00098l7 65c15.333 2.66699 28 9 38 19s19.333 26.333 28 49
l179 507l153 16l11 -5l62.5 -233.5c31.667 -117.667 58.834 -212.167 81.501 -283.5c7.33301 -24 16.666 -41 27.999 -51s28.333 -16 51 -18l4 -7l-7 -58c-8.66699 0.666992 -25 1.33398 -49 2.00098s-48.333 1 -73 1c-35.333 -0 -69.833 -1.16699 -103.5 -3.5l-64.5 -4.5z
M295.001 286c7.33301 0 32 1 74 3l-59 223h-13l-74 -226h72z" />
    <glyph glyph-name="B" unicode="B" horiz-adv-x="627" 
d="M100 -4c-31.333 -2.66699 -51.998 -4.66699 -61.998 -6l7 66c28.667 5.33301 48 13.5 58 24.5s15 29.5 15 55.5l1 392c0 18.667 -2.33301 31.667 -7 39s-13 11 -25 11c-6.66699 0 -13.334 -0.333008 -20.001 -1s-11.334 -1 -14.001 -1l-7 8l9 60
c10.667 0 30.167 -0.333008 58.5 -1s54.833 -1 79.5 -1c25.333 0 53.666 0.666992 84.999 2s53.333 2.33301 66 3c68.667 0 121 -13.333 157 -40s54 -65 54 -115c0 -33.333 -9.5 -62.833 -28.5 -88.5s-45.5 -47.167 -79.5 -64.5c43.333 -11.333 77.833 -29.333 103.5 -54
s38.5 -56.334 38.5 -95.001c0 -39.333 -10.833 -74.166 -32.5 -104.499s-52 -53.833 -91 -70.5s-84.167 -25 -135.5 -25c-8 0 -19 0.666992 -33 2l-32 3l-40 3c-18 1.33301 -32.333 2 -43 2c-23.333 0 -50.666 -1.33301 -81.999 -4zM299.002 363
c24 -2.66699 40 -3.99902 48 -3.99902c0 -1.33301 6.5 2.16699 19.5 10.5s24.667 20.5 35 36.5s15.5 36.333 15.5 61c0 34 -11.333 59 -34 75s-58 24 -106 24c-6.66699 0 -11.167 -1.33301 -13.5 -4s-3.83301 -7.66699 -4.5 -15c-4 -54 -6.66699 -113.667 -8 -179
c8 -0.666992 24 -2.33398 48 -5.00098zM245.002 133.001c0 -21.333 7.33203 -36.498 21.999 -45.498s39 -13.5 73 -13.5c32.667 0 58.334 9 77.001 27s28 42.667 28 74c0 27.333 -8.83301 50.166 -26.5 68.499s-43.167 31.166 -76.5 38.499l-93 -1z" />
    <glyph glyph-name="C" unicode="C" horiz-adv-x="616" 
d="M168 26c-44.667 25.333 -79.001 61.666 -103.001 108.999s-36 103.333 -36 168c0 70.667 14.333 132.334 43 185.001s69.5 93.5 122.5 122.5s114.5 43.5 184.5 43.5c24.667 0 51.167 -1.83301 79.5 -5.5s52.5 -7.5 72.5 -11.5s32.667 -6.66699 38 -8l6 -13
c-1.33301 -4.66699 -3.66602 -15.334 -6.99902 -32.001s-7 -39 -11 -67s-7 -57.667 -9 -89l-95 -6c0 2.66699 0.333008 8.83398 1 18.501s1 20.834 1 33.501c0 29.333 -9 50.833 -27 64.5s-46.333 20.5 -85 20.5c-52.667 0 -92.834 -18.667 -120.501 -56
s-41.5 -92.333 -41.5 -165c0 -82 14.833 -145.667 44.5 -191s71.167 -68 124.5 -68c36.667 0 65.334 11.167 86.001 33.5s35 57.833 43 106.5l96 6c-2 -11.333 -5.5 -36.333 -10.5 -75s-8.16699 -75.334 -9.5 -110.001l-10 -12c0 -0.666992 -11.167 -4.5 -33.5 -11.5
s-49.666 -13.5 -81.999 -19.5s-66.833 -9 -103.5 -9c-60.667 0 -113.334 12.667 -158.001 38z" />
    <glyph glyph-name="D" unicode="D" horiz-adv-x="694" 
d="M252.5 -5c-33 3.33301 -61.498 5.00195 -85.498 5.00195c-22 0 -46.667 -1.33301 -74 -4s-45 -4.66699 -53 -6l6 67c28.667 4.66699 48 13 58 25s15 32 15 60v381c0 21.333 -2 35.666 -6 42.999s-12.333 11 -25 11c-7.33301 0 -14.333 -0.333008 -21 -1s-11 -1 -13 -1
l-5 9l8 61c9.33301 0 26.666 -0.5 51.999 -1.5s50 -1.5 74 -1.5c29.333 0 60 0.5 92 1.5s54 1.83301 66 2.5c66.667 0 124.334 -12 173.001 -36s86 -58.333 112 -103s39 -98 39 -160c0 -69.333 -14.833 -131.333 -44.5 -186s-70.834 -97.167 -123.501 -127.5
s-112.334 -45.5 -179.001 -45.5c-10.667 1.33301 -32.5 3.66602 -65.5 6.99902zM265.002 557.002c-4 -3.33301 -6.33203 -9.66797 -6.99902 -19.001c-8.66699 -186 -13 -317 -13 -393c0 -20 2.33301 -35.167 7 -45.5s13.167 -17.5 25.5 -21.5s30.166 -6 53.499 -6
c58.667 0 103.5 20.667 134.5 62s46.5 102 46.5 182c0 84.667 -18.5 146.834 -55.5 186.501s-93.5 59.5 -169.5 59.5c-10.667 0 -18 -1.66699 -22 -5z" />
    <glyph glyph-name="E" unicode="E" horiz-adv-x="596" 
d="M557 189c-10.667 -52 -19.6689 -113.666 -27.002 -184.999l-10 -11c-127.333 4.66699 -231 7 -311 7c-56 0 -113 -3.33301 -171 -10l7 67c28 4 47 12 57 24s15 32.667 15 62l1 381c0 22 -2 36.5 -6 43.5s-12.667 10.5 -26 10.5c-8.66699 0 -19 -0.666992 -31 -2l-6 9
l8 60h20c47.333 -2 101 -3 161 -3c148.667 0 250 4 304 12l8 -11c-5.33301 -24.667 -10.166 -54 -14.499 -88s-7.16602 -65 -8.49902 -93l-89 -6l2 40c0 20 -2.83301 34.167 -8.5 42.5s-17 14 -34 17s-45.5 4.5 -85.5 4.5c-17.333 0 -29.333 -0.666992 -36 -2
s-11.167 -4.33301 -13.5 -9s-3.83301 -12.334 -4.5 -23.001l-7 -157l94 -1c14 0 31.5 0.833008 52.5 2.5s42.167 3.83398 63.5 6.50098l8 -9l-14 -85c-8.66699 0 -15.334 0.333008 -20.001 1c-46.667 1.33301 -83.667 2 -111 2c-20.667 0 -46.334 -2 -77.001 -6l-2 -143
c0 -18.667 1.5 -32 4.5 -40s8.66699 -13.333 17 -16s22.833 -4 43.5 -4c44 0 75.833 2.5 95.5 7.5s33.834 15.167 42.501 30.5s15.334 40.666 20.001 75.999l82 7z" />
    <glyph glyph-name="F" unicode="F" horiz-adv-x="531" 
d="M45 56c28.667 4.66699 47.8301 13.001 57.4971 25.001s14.5 32.667 14.5 62l1 381c0 21.333 -2.16699 35.666 -6.5 42.999s-12.833 11 -25.5 11c-6.66699 0 -13 -0.333008 -19 -1s-10 -1 -12 -1l-6 9l8 60c12 -0.666992 35.167 -1.33398 69.5 -2.00098s71.5 -1 111.5 -1
c136.667 0 230.334 4 281.001 12l8 -11c-2 -10.667 -5.5 -34.167 -10.5 -70.5s-8.5 -73.833 -10.5 -112.5l-89 -5c0 3.33301 0.333008 9 1 17s1 16 1 24c0 19.333 -2.5 33.333 -7.5 42s-14.667 14.5 -29 17.5s-37.833 4.5 -70.5 4.5c-17.333 0 -29.333 -0.666992 -36 -2
s-11.167 -4.33301 -13.5 -9s-3.83301 -12.334 -4.5 -23.001l-7 -174l94 -1c12.667 0 31.334 1.33301 56.001 4s41 4.33398 49 5.00098l7 -9l-14 -85c-8 0.666992 -23.5 1.33398 -46.5 2.00098s-47.167 1 -72.5 1c-24 0 -49.333 -2.33301 -76 -7l-3 -122
c0 -25.333 2.83301 -42.333 8.5 -51s17.167 -13 34.5 -13c10.667 0 23 0.666992 37 2s23.333 2.33301 28 3l9 -10l-11 -75c-11.333 0.666992 -32.5 1.5 -63.5 2.5s-61.833 1.5 -92.5 1.5s-62.167 -1.5 -94.5 -4.5s-53.166 -5.16699 -62.499 -6.5z" />
    <glyph glyph-name="G" unicode="G" horiz-adv-x="654" 
d="M168 26c-44.667 25.333 -79.002 61.667 -103.002 109s-36 103.333 -36 168c0 72 14.333 134.333 43 187s69.667 93.167 123 121.5s116.333 42.5 189 42.5c26 0 53.667 -1.83301 83 -5.5s54.333 -7.5 75 -11.5s34 -6.66699 40 -8l7 -13
c-1.33301 -4 -3.66602 -14.167 -6.99902 -30.5s-6.83301 -38 -10.5 -65s-6.5 -55.833 -8.5 -86.5l-96 -7c0.666992 2.66699 1.33398 9 2.00098 19s1 22 1 36c0 28 -8.5 47.833 -25.5 59.5s-45.167 17.5 -84.5 17.5c-60.667 0 -106 -18.167 -136 -54.5
s-45 -92.166 -45 -167.499c0 -82 15.167 -145.5 45.5 -190.5s72.5 -67.5 126.5 -67.5c18 0 34.333 2 49 6s26.167 8.16699 34.5 12.5s13.5 7.16602 15.5 8.49902v95c0 19.333 -3 32.166 -9 38.499s-18 9.5 -36 9.5h-52l-5 8l10 71c16 0 29.667 -0.333008 41 -1
c37.333 -1.33301 70 -2 98 -2c20.667 0 41 0.666992 61 2s33 2.33301 39 3l7 -38c-11.333 -7.33301 -19.833 -16.5 -25.5 -27.5s-9.5 -26.667 -11.5 -47s-3 -50.166 -3 -89.499c0 -40 2.33301 -69 7 -87l-9 -12c0 -0.666992 -11.167 -4.66699 -33.5 -12s-51 -14 -86 -20
s-73.5 -9 -115.5 -9c-61.333 0 -114.333 12.667 -159 38z" />
    <glyph glyph-name="H" unicode="H" horiz-adv-x="747" 
d="M46 55c28.667 5.33301 47.835 13.666 57.502 24.999s14.5 31 14.5 59v387c0 20.667 -2.33301 34.5 -7 41.5s-14.334 10.5 -29.001 10.5l-30 -1l-5 8l7 58l119 -1c26 0 75.667 2.33301 149 7l-6 -66c-17.333 -2.66699 -29.833 -6.16699 -37.5 -10.5s-13 -10.833 -16 -19.5
s-5.16699 -22.667 -6.5 -42l-6 -144l131 -2c34.667 0 74.334 2.33301 119.001 7v154c0 20.667 -2.33301 34.5 -7 41.5s-14.334 10.5 -29.001 10.5l-31 -1l-5 8l8 58l126 -1c22 0 70.333 2.33301 145 7l-5 -65c-24.667 -3.33301 -40.834 -8.5 -48.501 -15.5
s-12.167 -20.167 -13.5 -39.5c-3.33301 -58.667 -6.16602 -126 -8.49902 -202s-3.5 -139.667 -3.5 -191c0 -28 2.83301 -47 8.5 -57s16.5 -15 32.5 -15c7.33301 0 20 1 38 3l4 -7l-9 -63c-9.33301 0 -16.333 0.333008 -21 1c-50.667 1.33301 -91.667 2 -123 2l-138 -2l8 64
c19.333 0.666992 34.166 3.66699 44.499 9s17.5 14.5 21.5 27.5s6 31.833 6 56.5v129l-110 1c-14.667 0 -34.667 -1 -60 -3s-52.666 -4.33301 -81.999 -7l-3 -143c0 -27.333 2.66699 -45.666 8 -54.999s15.666 -14 30.999 -14c6.66699 0 19 1 37 3l5 -6l-9 -63
c-48 2 -88 3 -120 3c-22.667 0 -50.5 -1 -83.5 -3s-57.833 -4 -74.5 -6z" />
    <glyph glyph-name="I" unicode="I" horiz-adv-x="365" 
d="M44 55c29.333 6 49 14.498 59 25.498s15 30.5 15 58.5v387c0 20.667 -2.33301 34.5 -7 41.5s-14.334 10.5 -29.001 10.5l-35 -1l-5 8l8 58l138 -1c22 0 68.667 2.33301 140 7l-5 -66c-25.333 -3.33301 -42.166 -8.5 -50.499 -15.5s-13.166 -19.833 -14.499 -38.5
c-8.66699 -157.333 -13 -289.666 -13 -396.999c0 -27.333 2.66699 -45.666 8 -54.999s15.666 -14 30.999 -14c7.33301 0 22 1 44 3l4 -6l-9 -63l-36 1l-111 2c-30.667 0 -76.667 -3 -138 -9z" />
    <glyph glyph-name="J" unicode="J" horiz-adv-x="332" 
d="M10 -113l3.00195 10.998c26 18.667 45.667 37.334 59 56.001s22.666 40.834 27.999 66.501s8 59.834 8 102.501l1 403c0 20.667 -2.33301 34.5 -7 41.5s-14 10.5 -28 10.5c-8 0 -16.167 -0.5 -24.5 -1.5s-14.166 -1.5 -17.499 -1.5l-5 8l7 59h123
c28 0 57.5 1.16699 88.5 3.5l60.5 4.5l-5 -67c-22 -3.33301 -36 -8.33301 -42 -15s-9.66699 -19.667 -11 -39c-2.66699 -45.333 -5.33398 -114.5 -8.00098 -207.5s-4.33398 -166.167 -5.00098 -219.5c0 -66 -15.667 -119.333 -47 -160s-81.333 -72.334 -150 -95.001z" />
    <glyph glyph-name="K" unicode="K" horiz-adv-x="657" 
d="M111 567.5c-4.66699 7 -14.332 10.502 -28.999 10.502l-30 -1l-5 8l7 59l134 -2c18 0 42.667 1 74 3l62 4l-5 -66c-24.667 -4.66699 -41.334 -10.834 -50.001 -18.501s-13.334 -20.834 -14.001 -39.501l-10 -393c-0.666992 -27.333 1.83301 -45.666 7.5 -54.999
s16.167 -14 31.5 -14c10 0 18.5 0.333008 25.5 1s11.5 1.33398 13.5 2.00098l5 -6l-9 -63c-10.667 0 -30.5 0.5 -59.5 1.5s-56.833 1.5 -83.5 1.5c-30 0 -58.167 -0.333008 -84.5 -1s-44.166 -1.33398 -53.499 -2.00098l9 63c20 2.66699 35 6.5 45 11.5
s16.833 12.667 20.5 23s5.5 25.166 5.5 44.499v387c0 20.667 -2.33301 34.5 -7 41.5zM417.002 499.002c18 19.333 27 35.998 27 49.998c0 9.33301 -4.33301 16.5 -13 21.5s-22.334 7.83301 -41.001 8.5l-3 7l8 61c9.33301 -0.666992 28 -1.66699 56 -3s50.667 -2 68 -2
c22.667 0 45.5 0.5 68.5 1.5s38.833 1.83301 47.5 2.5l6 -11l-8 -56c-20 -8 -39.167 -20 -57.5 -36s-42.166 -41.333 -71.499 -76l-108 -120l135 -202c20.667 -30.667 39.5 -52.667 56.5 -66s36.5 -20.333 58.5 -21l6 -9l-8 -52
c-10 -1.33301 -29.833 -3.66602 -59.5 -6.99902s-48.167 -5 -55.5 -5c-20 0 -39 6.83301 -57 20.5s-36 34.834 -54 63.501l-153 247l3 21z" />
    <glyph glyph-name="L" unicode="L" horiz-adv-x="530" 
d="M51 57c25.333 4 42.667 11.999 52 23.999s14 32.667 14 62l1 383c0 20.667 -2.33301 34.5 -7 41.5s-14.334 10.5 -29.001 10.5l-31 -1l-5 8l8 58l134 -1c18.667 0 45.834 1 81.501 3l70.5 4l-7 -69c-22.667 -2.66699 -39.167 -6.5 -49.5 -11.5s-17 -12 -20 -21
s-5.16699 -23.167 -6.5 -42.5c-7.33301 -100 -11 -222.333 -11 -367c0 -18 1.66699 -31.167 5 -39.5s9.33301 -14 18 -17s22 -4.5 40 -4.5c33.333 0 58.166 3.66699 74.499 11s28.5 21.333 36.5 42s14.667 53.334 20 98.001l81 9l7 -10
c-2 -12.667 -5.83301 -41.167 -11.5 -85.5s-10.5 -90.833 -14.5 -139.5l-10 -10l-117 4.5c-60 2.33301 -114.333 3.5 -163 3.5c-36.667 0 -71.667 -1.33301 -105 -4s-54.666 -4.66699 -63.999 -6z" />
    <glyph glyph-name="M" unicode="M" horiz-adv-x="841" 
d="M215 452l-8.00098 -0.00292969c0 -7.33301 -1.33301 -31.666 -4 -72.999s-5 -75.666 -7 -102.999c-8 -112 -12 -172.333 -12 -181c0 -21.333 10.667 -32 32 -32l34 1l6 -5l-11 -63c-56 2.66699 -95 4 -117 4c-15.333 0 -33.833 -1 -55.5 -3s-36.167 -3.66699 -43.5 -5
l6 65c19.333 2 33.333 8.16699 42 18.5s15 28.166 19 53.499c6 52 14.167 129.667 24.5 233s15.5 160 15.5 170c0 18 -5.16699 30.333 -15.5 37s-30.5 11.334 -60.5 14.001l-5 6l9 58c54.667 -3.33301 96.334 -5 125.001 -5c14.667 0 50 1.33301 106 4
c26.667 -94 63.667 -216.333 111 -367l17 -52h8c4 13.333 9.33301 30.166 16 50.499l21 65.5l97 300c14 0 25.333 -0.333008 34 -1l53 -1l31 1c14 0 32 0.666992 54 2s38 2.66602 48 3.99902l4 -4l-6 -60c-28.667 -2.66699 -48.167 -7.66699 -58.5 -15s-15.5 -20 -15.5 -38
c0 -20.667 2.66699 -73.167 8 -157.5s10.666 -157.166 15.999 -218.499c4 -36.667 9.16699 -61.167 15.5 -73.5s17.5 -18.5 33.5 -18.5c7.33301 0 13.5 0.333008 18.5 1s8.16699 1 9.5 1l4 -5l-9 -63c-10 0 -19 0.333008 -27 1c-29.333 1.33301 -54 2 -74 2
c-19.333 0 -44.833 -1 -76.5 -3s-53.5 -3.66699 -65.5 -5l7 65c20 2.66699 34.333 7.83398 43 15.501s13 19.167 13 34.5c0 2.66699 -2.66699 44 -8 124c-7.33301 104.667 -11.666 178.334 -12.999 221.001h-9c-56 -156 -108 -309 -156 -459l-68 -9
c-50 158.667 -102 314.667 -156 468z" />
    <glyph glyph-name="N" unicode="N" horiz-adv-x="728" 
d="M329.5 277c-66.333 98.667 -99.499 147.331 -99.499 145.998h-9l-1 -315c0 -17.333 2.5 -29.166 7.5 -35.499s13.833 -9.5 26.5 -9.5l44 2l5 -6l-10 -63c-9.33301 0.666992 -26.666 1.5 -51.999 2.5s-50.666 1.5 -75.999 1.5c-22 0 -45.667 -1.16699 -71 -3.5l-49 -4.5
l7 66c20.667 2.66699 35.667 8.83398 45 18.501s14.333 24.5 15 44.5l12 397c0 21.333 -5.33301 36.333 -16 45s-32.334 14.667 -65.001 18l-7 9l7 57c7.33301 -0.666992 23 -1.66699 47 -3s46.333 -2 67 -2c17.333 0 35.833 0.5 55.5 1.5s32.5 1.83301 38.5 2.5l176.5 -276
c63 -94.667 94.5 -141.334 94.5 -140.001h10l-2 305c-0.666992 15.333 -3.5 26.333 -8.5 33s-13.167 10 -24.5 10l-35 -1l-3 7l7 62c9.33301 -0.666992 26.5 -1.5 51.5 -2.5s50.167 -1.5 75.5 -1.5c20 0 42.5 0.666992 67.5 2s41.5 2.33301 49.5 3l-5 -66
c-22.667 -3.33301 -38.834 -9.66602 -48.501 -18.999s-14.834 -24 -15.501 -44l-13 -532l-101 -13z" />
    <glyph glyph-name="O" unicode="O" horiz-adv-x="675" 
d="M162.5 26.5c-43 25.667 -76.002 62.167 -99.002 109.5s-34.5 103.333 -34.5 168c0 69.333 13.667 130.333 41 183s65.833 93.667 115.5 123s106.834 44 171.501 44c60 0 111.833 -12.5 155.5 -37.5s77 -61 100 -108s34.5 -102.833 34.5 -167.5
c0 -69.333 -13.833 -130.833 -41.5 -184.5s-66.667 -95.167 -117 -124.5s-108.166 -44 -173.499 -44c-58.667 0 -109.5 12.833 -152.5 38.5zM453.498 129.5c27 37.667 40.501 90.834 40.501 159.501c0 87.333 -14.333 154.166 -43 200.499s-69.334 69.5 -122.001 69.5
c-47.333 0 -84.166 -18.833 -110.499 -56.5s-39.5 -90.834 -39.5 -159.501c0 -87.333 14.167 -154.166 42.5 -200.499s68.166 -69.5 119.499 -69.5c48 0 85.5 18.833 112.5 56.5z" />
    <glyph glyph-name="P" unicode="P" horiz-adv-x="576" 
d="M49 58c27.333 4.66699 45.6709 12.668 55.0039 24.001s14 31.333 14 60v382c0 21.333 -2.16699 35.666 -6.5 42.999s-12.833 11 -25.5 11c-7.33301 0 -14.333 -0.333008 -21 -1s-11 -1 -13 -1l-6 8l8 59l126 -1c25.333 0 53.5 0.5 84.5 1.5s52.833 1.83301 65.5 2.5
c85.333 0 146.666 -18 183.999 -54s56 -81.667 56 -137c0 -39.333 -11.167 -76.5 -33.5 -111.5s-51.833 -63 -88.5 -84s-75.667 -31.5 -117 -31.5h-84l-2 -76c0 -26 1.16699 -45 3.5 -57s6.66602 -20.167 12.999 -24.5s16.5 -6.5 30.5 -6.5c9.33301 0 18.333 0.333008 27 1
s14.667 1 18 1l3 -5l-9 -64c-9.33301 0 -26.5 0.5 -51.5 1.5s-49.167 1.5 -72.5 1.5c-22.667 0 -52.834 -1 -90.501 -3s-62.834 -3.66699 -75.501 -5zM431.005 440.001c0 42.667 -12.001 73.833 -36.001 93.5s-62 29.5 -114 29.5c-9.33301 0 -15.166 -0.833008 -17.499 -2.5
s-3.83301 -6.5 -4.5 -14.5c-4 -60 -7.33301 -136.667 -10 -230l89 -13c62 13.333 93 59 93 137z" />
    <glyph glyph-name="Q" unicode="Q" horiz-adv-x="680" 
d="M596.5 -212c-27.667 10.667 -62.167 30.832 -103.5 60.499s-100.666 76.167 -177.999 139.5c-58.667 0 -109.5 12.833 -152.5 38.5s-76 62.167 -99 109.5s-34.5 103.333 -34.5 168c0 69.333 13.667 130.333 41 183s65.833 93.667 115.5 123s106.834 44 171.501 44
c60 0 111.833 -12.5 155.5 -37.5s77 -61 100 -108s34.5 -102.833 34.5 -167.5c0 -76.667 -18.667 -144.167 -56 -202.5s-87 -99.833 -149 -124.5v-9c55.333 -38.667 105 -67.167 149 -85.5s84.333 -27.5 121 -27.5c19.333 0 37.166 1.33301 53.499 4s26.833 4.66699 31.5 6
l7 -6l11 -41l-34.5 -26c-17.667 -13.333 -36.167 -26.166 -55.5 -38.499s-33 -18.5 -41 -18.5c-30.667 0 -59.834 5.33301 -87.501 16zM453.5 129.498c27 37.667 40.501 90.834 40.501 159.501c0 87.333 -14.333 154.166 -43 200.499s-69.334 69.5 -122.001 69.5
c-47.333 0 -84.166 -18.833 -110.499 -56.5s-39.5 -90.834 -39.5 -159.501c0 -87.333 14.167 -154.166 42.5 -200.499s68.166 -69.5 119.499 -69.5c48 0 85.5 18.833 112.5 56.5z" />
    <glyph glyph-name="R" unicode="R" horiz-adv-x="641" 
d="M405 77l-87 175.997h-71l-2 -113c0 -23.333 1.66699 -40.166 5 -50.499s9.66602 -17.166 18.999 -20.499s25.333 -5.33301 48 -6l3 -6l-9 -61c-12 0.666992 -33 1.33398 -63 2.00098s-57.667 1 -83 1c-24.667 0 -50 -0.666992 -76 -2s-43 -2.33301 -51 -3l9 66
c28 3.33301 46.833 10.666 56.5 21.999s14.5 31.333 14.5 60v387c0 19.333 -2.16699 32.333 -6.5 39s-12.833 10 -25.5 10c-7.33301 0 -14.333 -0.333008 -21 -1s-11 -1 -13 -1l-6 8l9 60c9.33301 0 26.5 -0.333008 51.5 -1s49.5 -1 73.5 -1c26.667 0 55.5 0.5 86.5 1.5
s52.5 1.83301 64.5 2.5c76 0 134.167 -14.667 174.5 -44s60.5 -71.666 60.5 -126.999c0 -39.333 -11.667 -75.333 -35 -108s-56.666 -60 -99.999 -82l88 -143c18.667 -30.667 36.667 -52.667 54 -66s36.666 -20 57.999 -20l7 -9l-7 -52l-117 -11
c-43.333 0 -79.666 31 -108.999 93zM400 371.497c18 18.333 27 46.834 27 85.501c0 36.667 -12.333 64 -37 82s-62.667 27 -114 27c-6.66699 0 -11.167 -1.33301 -13.5 -4s-3.83301 -8.66699 -4.5 -18c-4 -68.667 -6.66699 -136.667 -8 -204l90 -10
c22 9.33301 42 23.166 60 41.499z" />
    <glyph glyph-name="S" unicode="S" horiz-adv-x="539" 
d="M135 -3.5c-26 5.66699 -47.499 11.8301 -64.499 18.4971s-25.5 10.334 -25.5 11.001l-8 14l4.5 30.5c2.33301 15.667 4.83301 36.667 7.5 63s4 51.833 4 76.5l82 6c0 -37.333 3.33301 -66 10 -86s17.834 -34.167 33.501 -42.5s38.167 -12.5 67.5 -12.5
c32 0 57.667 7 77 21s29 33.333 29 58c0 22 -10.167 40.667 -30.5 56s-51.833 33.333 -94.5 54l-23 11c-50 24 -89 49.333 -117 76s-42 61.334 -42 104.001c0 38 11.333 72.167 34 102.5s54.167 54 94.5 71s86.166 25.5 137.499 25.5c29.333 0 56.5 -2 81.5 -6
s45 -8.16699 60 -12.5s24.5 -7.16602 28.5 -8.49902l7 -13c-0.666992 -4 -2.66699 -14.167 -6 -30.5s-6.66602 -37.166 -9.99902 -62.499s-6 -51.333 -8 -78l-74 -6l-9 6c0 2 0.333008 6.16699 1 12.5s1 14.166 1 23.499c0 30 -7.5 51.333 -22.5 64s-40.167 19 -75.5 19
c-28.667 0 -52.167 -6.83301 -70.5 -20.5s-27.5 -31.167 -27.5 -52.5c0 -16 5.83301 -30.5 17.5 -43.5s25.667 -24.167 42 -33.5s40.166 -21.666 71.499 -36.999c37.333 -18 68.166 -34.333 92.499 -49s44.833 -33.334 61.5 -56.001s25 -49.667 25 -81
c0 -40 -11.5 -75.167 -34.5 -105.5s-55.333 -53.833 -97 -70.5s-90.167 -25 -145.5 -25c-30.667 0 -59 2.83301 -85 8.5z" />
    <glyph glyph-name="T" unicode="T" horiz-adv-x="567" 
d="M117 59c30.667 2.66699 52.667 6.66602 66 11.999s22.333 14.666 27 27.999s7 35.333 7 66v401c-38.667 -1.33301 -65.834 -4.66602 -81.501 -9.99902s-26.5 -16.166 -32.5 -32.499s-11.333 -45.833 -16 -88.5l-82 -6c4.66699 55.333 8.66699 126.333 12 213l11 11
l99 -11h312l101 11l11 -11c1.33301 -80 4.66602 -149 9.99902 -207l-82 -6c-5.33301 45.333 -10.833 76.333 -16.5 93s-15.667 27.834 -30 33.501s-39.833 9.16699 -76.5 10.5c-3.33301 -49.333 -6.16602 -116.333 -8.49902 -201s-3.5 -161.667 -3.5 -231
c0 -24.667 4.33301 -42.334 13 -53.001s22.667 -16 42 -16c16.667 0 34.334 1 53.001 3l4 -5l-9 -67c-70.667 2.66699 -128 4 -172 4c-34.667 0 -90 -2 -166 -6z" />
    <glyph glyph-name="U" unicode="U" horiz-adv-x="657" 
d="M86 204l-0.000976562 320.001c0 22 -2.16699 36.5 -6.5 43.5s-13.166 10.5 -26.499 10.5c-6.66699 0 -13.167 -0.333008 -19.5 -1s-10.5 -1 -12.5 -1l-2 4l9 65c9.33301 -0.666992 27.5 -1.33398 54.5 -2.00098s55.833 -1 86.5 -1c17.333 0 39.333 0.833008 66 2.5
s44.334 2.83398 53.001 3.50098l-7 -66c-21.333 -2.66699 -35.833 -7.83398 -43.5 -15.501s-12.167 -20.5 -13.5 -38.5l-7 -292c0 -50.667 10.833 -89.834 32.5 -117.501s52.834 -41.5 93.501 -41.5c83.333 0 125 44 125 132c0 51.333 -0.5 110 -1.5 176
s-1.83301 112.333 -2.5 139c-0.666992 22 -3 36.5 -7 43.5s-12.333 10.5 -25 10.5c-6.66699 0 -13.334 -0.333008 -20.001 -1s-11.334 -1 -14.001 -1l-2 4l9 65c8.66699 0 24.5 -0.5 47.5 -1.5s45.833 -1.5 68.5 -1.5c21.333 0 44.5 0.833008 69.5 2.5
s41.167 2.83398 48.5 3.50098l-6 -65c-18 -4 -31 -7.66699 -39 -11s-13.333 -8 -16 -14s-4 -15 -4 -27v-311c0 -74.667 -22 -132 -66 -172s-107.667 -60 -191 -60c-154 0 -231 72 -231 216z" />
    <glyph glyph-name="V" unicode="V" horiz-adv-x="624" 
d="M157.5 219c-32.333 118.667 -60.8301 217.997 -85.4971 297.997c-6 20.667 -14.833 35.834 -26.5 45.501s-27.834 14.834 -48.501 15.501l-4 7l7 59c9.33301 0 26.333 -0.333008 51 -1s49.667 -1 75 -1c30 0 62.833 1.16699 98.5 3.5l69.5 4.5l5 -8l-4 -59
c-23.333 -2.66699 -40.333 -5.16699 -51 -7.5s-17.834 -5.83301 -21.501 -10.5s-5.5 -11.667 -5.5 -21c0 -14.667 13 -77.5 39 -188.5l54 -226.5h15c16 40.667 41.333 117 76 229s52 175.333 52 190c0 11.333 -3.83301 19.333 -11.5 24s-21.167 7 -40.5 7h-40l-4 7l6 61
c9.33301 -0.666992 29.833 -1.66699 61.5 -3s60.5 -2 86.5 -2c26.667 0 50.834 0.333008 72.501 1s36.167 1 43.5 1l-7 -65c-16.667 -2.66699 -28.334 -7.16699 -35.001 -13.5s-13.334 -19.166 -20.001 -38.499l-185 -522l-159 -20z" />
    <glyph glyph-name="W" unicode="W" horiz-adv-x="962" 
d="M153.5 219c-31 118.667 -58.5 217.999 -82.5 297.999c-6 20.667 -14.833 35.667 -26.5 45s-27.167 14.666 -46.5 15.999l-4 7l7 59c8.66699 0 25 -0.333008 49 -1s48 -1 72 -1c33.333 0 66.5 1.16699 99.5 3.5l63.5 4.5l5 -8l-5 -59
c-22.667 -2.66699 -39 -5.16699 -49 -7.5s-16.833 -5.66602 -20.5 -9.99902s-5.5 -11.166 -5.5 -20.499c0 -16.667 12.833 -80.334 38.5 -191.001l52.5 -225h12c19.333 51.333 56.666 171.666 111.999 360.999c-2 14.667 -4.66699 29 -8 43
c-4 16.667 -11.5 28.167 -22.5 34.5s-28.5 9.83301 -52.5 10.5l-4 7l8 59c10 0 28.333 -0.333008 55 -1s53.334 -1 80.001 -1c30.667 0 62.834 1.16699 96.501 3.5l65.5 4.5l5 -8l-5 -59c-23.333 -2.66699 -40 -5.16699 -50 -7.5s-16.833 -5.83301 -20.5 -10.5
s-5.5 -11.667 -5.5 -21c0 -14.667 12.833 -77.5 38.5 -188.5s43.5 -186.5 53.5 -226.5h12c15.333 41.333 40 118.333 74 231s51 176.334 51 191.001c0 10.667 -3.66699 18 -11 22s-20.666 6 -39.999 6h-39l-4 7l7 61c9.33301 -0.666992 29.166 -1.66699 59.499 -3
s58.5 -2 84.5 -2c25.333 0 48.5 0.333008 69.5 1s34.833 1 41.5 1l-7 -65c-15.333 -2.66699 -26.333 -7.16699 -33 -13.5s-13.334 -19.166 -20.001 -38.499l-178 -522l-153 -20c-3.33301 22 -13.5 67.5 -30.5 136.5s-36.5 143.833 -58.5 224.5h-9l-107 -341l-154 -20z" />
    <glyph glyph-name="X" unicode="X" horiz-adv-x="681" 
d="M353 0l5 59.999c19.333 1.33301 33.5 4 42.5 8s13.5 10.667 13.5 20s-5.33301 21.333 -16 36l-87 130l-68 -95c-13.333 -18 -22.5 -32 -27.5 -42s-7.5 -18.333 -7.5 -25c0 -10 3.83301 -17.333 11.5 -22s20.167 -7.33398 37.5 -8.00098l4 -8l-6 -60l-61 4
c-30.667 2 -53.334 3 -68.001 3c-16 0 -37.167 -0.666992 -63.5 -2s-43.5 -2.33301 -51.5 -3l-4 10l7 59c39.333 13.333 87.666 58 144.999 134l100 132l-108 162c-18 26.667 -36.667 45.834 -56 57.501s-43.666 20.167 -72.999 25.5l-4 5l8 63
c9.33301 0 28.833 -0.333008 58.5 -1s62.834 -1 99.501 -1c26 0 55.333 1 88 3s54 3.33301 64 4l5 -9l-5 -56c-21.333 -1.33301 -36.833 -4.5 -46.5 -9.5s-14.5 -12.167 -14.5 -21.5c0 -8.66699 6.83301 -24.167 20.5 -46.5s37.167 -58.5 70.5 -108.5
c-0.666992 -0.666992 9.66602 14.333 30.999 45c22 31.333 38.833 56.333 50.5 75s17.5 31.667 17.5 39c0 8.66699 -3.66699 15 -11 19s-20 6.33301 -38 7l-2 5l6 57l47 -1c36 -1.33301 64 -2 84 -2c24.667 0 47.5 0.333008 68.5 1s35.167 1.33398 42.5 2.00098l4 -7l-6 -60
c-29.333 -10 -52.666 -22.167 -69.999 -36.5s-38 -37.5 -62 -69.5l-109 -150l120 -172c19.333 -28 39 -48.5 59 -61.5s44 -20.5 72 -22.5l3 -4l-8 -64c-9.33301 0 -26.833 0.5 -52.5 1.5s-51.167 1.5 -76.5 1.5c-21.333 0 -53 -1.16699 -95 -3.5s-69.667 -3.83301 -83 -4.5z
" />
    <glyph glyph-name="Y" unicode="Y" horiz-adv-x="594" 
d="M143 56c26.667 3.33301 46.1699 8.16699 58.5029 14.5s20.666 15.333 24.999 27s6.5 29.5 6.5 53.5v31c0 18 -2 34.333 -6 49s-11.667 32.667 -23 54l-98 190c-16.667 34 -32.334 58 -47.001 72s-37 23.667 -67 29l-2 5l7 63c9.33301 0 26.833 -0.5 52.5 -1.5
s50.834 -1.5 75.501 -1.5c21.333 0 50.333 1.16699 87 3.5s61 3.83301 73 4.5l4 -9l-5 -56c-22.667 -1.33301 -38.5 -4.33301 -47.5 -9s-13.5 -12 -13.5 -22c0 -12.667 22.667 -67.667 68 -165c13.333 -30.667 19.666 -45.334 18.999 -44.001h9l81 168
c10 20 15 35.667 15 47c0 7.33301 -4.16699 12.833 -12.5 16.5s-21.5 6.16699 -39.5 7.5l-2 5l7 57l48 -2c36 -1.33301 64 -2 84 -2c18.667 0 38.667 0.5 60 1.5s35 1.83301 41 2.5l4 -7l-7 -60c-26.667 -8.66699 -47.834 -21.667 -63.501 -39s-35.167 -47 -58.5 -89
l-95 -179c-9.33301 -16.667 -14.833 -33.667 -16.5 -51s-2.5 -49 -2.5 -95c0 -22 3.33301 -37.5 10 -46.5s18.667 -13.5 36 -13.5c12 0 22.5 0.333008 31.5 1s15.167 1.33398 18.5 2.00098l4 -5l-9 -67c-12 0.666992 -34.333 1.5 -67 2.5s-64.667 1.5 -96 1.5
c-24 0 -53 -1.5 -87 -4.5s-56.333 -5.16699 -67 -6.5z" />
    <glyph glyph-name="Z" unicode="Z" horiz-adv-x="580" 
d="M20 39l352.002 531l-130 -8c-29.333 -3.33301 -51.666 -8.83301 -66.999 -16.5s-26.5 -20 -33.5 -37s-11.833 -41.5 -14.5 -73.5l-83 -6l8.5 89c4.33301 45.333 7.16602 87.333 8.49902 126l10 10l178 -11l291 -4l17 -40
c-120.667 -160.667 -241.334 -336.667 -362.001 -528l159 11c33.333 3.33301 59.166 17 77.499 41s31.5 62 39.5 114l82 7c-2 -14.667 -6 -46.167 -12 -94.5s-10 -92.833 -12 -133.5l-17 -19l-393 6l-75 -8z" />
    <glyph glyph-name="bracketleft" unicode="[" horiz-adv-x="317" 
d="M82 -121c1.33301 30 3.5 89.833 6.5 179.5s4.5 155.167 4.5 196.5c0 42 -1.5 108.167 -4.5 198.5s-5.16699 150.5 -6.5 180.5l216 11l4 -8l-7 -55l-104 -21v-610l107 -21l4 -9l-7 -53z" />
    <glyph glyph-name="backslash" unicode="\" horiz-adv-x="329" 
d="M135 215l-72.5 268l-48.5 177l12 15h79l115 -449c16 -63.333 33.5 -128.5 52.5 -195.5s31.5 -110.167 37.5 -129.5l-9 -11h-83z" />
    <glyph glyph-name="bracketright" unicode="]" horiz-adv-x="317" 
d="M15 -125l7 55l104 21v610l-107 21l-4 9l7 54l213 -11c-1.33301 -30 -3.5 -89.667 -6.5 -179s-4.5 -155 -4.5 -197c0 -41.333 1.5 -107.333 4.5 -198s5.16699 -151 6.5 -181l-216 -11z" />
    <glyph glyph-name="asciicircum" unicode="^" horiz-adv-x="490" 
d="M330 398l50 -116.001l48.5 -105l28.5 -61l-64 -41l-15 4l-74 165l-60 138h-7l-51 -125c-14 -32.667 -28.167 -68.167 -42.5 -106.5l-27.5 -74.5l-75 19l-8 13l76 178l82 192l94 4l13 -8c5.33301 -13.333 16 -38.666 32 -75.999z" />
    <glyph glyph-name="underscore" unicode="_" horiz-adv-x="453" 
d="M-9 -164l11 74l241 -1c30.667 0 74 0.666992 130 2c54.667 1.33301 82 2.33301 82 3l8 -14l-11 -76l-285 -1c-46 -0.666992 -101.667 -1 -167 -1z" />
    <glyph glyph-name="grave" unicode="`" horiz-adv-x="398" 
d="M139.5 604c-37.667 25.333 -61.833 41.333 -72.5 48l-2 14l53 68l14 1c9.33301 -10.667 30.833 -33.5 64.5 -68.5l101.5 -101.5l-29 -38l-15 -4z" />
    <glyph glyph-name="a" unicode="a" horiz-adv-x="544" 
d="M282 0l3.99609 52.001c19.333 2 33 3.83301 41 5.5s13.5 4.16699 16.5 7.5s4.5 8.33301 4.5 15c0 7.33301 -1.33301 15 -4 23l-14 52c-14 0.666992 -38.333 1 -73 1c-15.333 0 -40.666 -1.66699 -75.999 -5l-18 -52c-2.66699 -10 -4 -17.333 -4 -22
c0 -8.66699 2.5 -14.5 7.5 -17.5s14.5 -4.5 28.5 -4.5h31l5 -7l-6 -52c-8 0.666992 -24.833 1.5 -50.5 2.5s-49.5 1.5 -71.5 1.5c-23.333 0 -44.5 -0.333008 -63.5 -1s-31.5 -1 -37.5 -1l6 56c12 2 21.833 6.83301 29.5 14.5s14.834 19.167 21.501 34.5l144 394l147 13
l10 -6l51 -184c26 -92.667 47.333 -163.667 64 -213c5.33301 -18 12.5 -31 21.5 -39s22.167 -12.667 39.5 -14l4 -6l-6 -50c-7.33301 0 -21.166 0.333008 -41.499 1s-41.166 1 -62.499 1c-30 0 -59.333 -0.833008 -88 -2.5s-47 -2.83398 -55 -3.50098zM256.996 226.001
c22 0 41.333 1 58 3l-45 162h-12l-55 -165h54z" />
    <glyph glyph-name="b" unicode="b" horiz-adv-x="542" 
d="M90.5 -3l-54.499 -4l6 57c23.333 4 39 10.167 47 18.5s12 22.5 12 42.5l1 297c0 13.333 -2 22.833 -6 28.5s-10.667 8.5 -20 8.5l-28 -1l-7 7l9 52l119 -2c22 0.666992 46.833 1.5 74.5 2.5s47.167 1.83301 58.5 2.5c57.333 0 101.166 -10.5 131.499 -31.5
s45.5 -51.167 45.5 -90.5c0 -21.333 -5 -40.333 -15 -57s-21.667 -30.167 -35 -40.5s-25.333 -17.5 -36 -21.5c25.333 -5.33301 50.5 -17.5 75.5 -36.5s37.5 -45.167 37.5 -78.5c0 -48.667 -19.667 -87.167 -59 -115.5s-92.666 -42.5 -159.999 -42.5l-31 2
c-42.667 4 -74.334 6 -95.001 6c-19.333 0 -42.833 -1 -70.5 -3zM262.001 287.5c18.667 -2.33301 31.3311 -3.5 37.998 -3.5c0 -1.33301 4.83301 1.16699 14.5 7.5s18.334 15.333 26.001 27s11.5 26.167 11.5 43.5c0 24 -8.66699 41.667 -26 53s-44.333 17 -81 17
c-5.33301 0 -9 -1 -11 -3s-3.33301 -5.66699 -4 -11c-4 -53.333 -6 -95.333 -6 -126c6.66699 -0.666992 19.334 -2.16699 38.001 -4.5zM218.998 110c0 -15.333 5.66699 -26.334 17 -33.001s30.333 -10 57 -10c25.333 0 45 6.33301 59 19s21 30.334 21 53.001
c0 18.667 -6.5 34.5 -19.5 47.5s-32.167 22.167 -57.5 27.5h-74z" />
    <glyph glyph-name="c" unicode="c" horiz-adv-x="524" 
d="M95 56.5c-43.333 43.667 -65.002 104.167 -65.002 181.5c0 55.333 11.667 103.5 35 144.5s56.833 72.5 100.5 94.5s94.834 33 153.501 33c20.667 0 43 -1.5 67 -4.5s44.5 -6 61.5 -9s27.833 -5.16699 32.5 -6.5l5 -11c-0.666992 -3.33301 -2.5 -11.833 -5.5 -25.5
s-6.16699 -31.834 -9.5 -54.501s-5.66602 -46.667 -6.99902 -72l-90 -6c0 2 0.166992 6.83301 0.5 14.5s0.5 16.834 0.5 27.501c0 22 -6.66699 38 -20 48s-34.333 15 -63 15c-40.667 0 -71 -13.167 -91 -39.5s-30 -66.833 -30 -121.5c0 -61.333 11 -108.5 33 -141.5
s53 -49.5 93 -49.5c28 0 49.667 8 65 24s26 42.333 32 79l90 6c-1.33301 -9.33301 -4 -29.833 -8 -61.5s-6.33301 -61.5 -7 -89.5l-9 -10c-4 -1.33301 -14.333 -4.5 -31 -9.5s-38.667 -9.83301 -66 -14.5s-56.333 -7 -87 -7c-76.667 0 -136.667 21.833 -180 65.5z" />
    <glyph glyph-name="d" unicode="d" horiz-adv-x="588" 
d="M217 -3.5c-27.333 2.33301 -51.001 3.49902 -71.001 3.49902c-18.667 0 -39.5 -1.16699 -62.5 -3.5s-38.167 -3.83301 -45.5 -4.5l5 59c22.667 3.33301 38 9.5 46 18.5s12 24.5 12 46.5l1 287c0 16.667 -1.83301 27.834 -5.5 33.501s-10.167 8.5 -19.5 8.5
c-6 0 -11.5 -0.333008 -16.5 -1s-8.5 -1 -10.5 -1l-5 8l7 52c8 0 23 -0.333008 45 -1s43 -1 63 -1c24.667 0 50.334 0.5 77.001 1.5s45 1.83301 55 2.5c84 0 149.333 -20.333 196 -61s70 -98.334 70 -173.001c0 -55.333 -12 -104.166 -36 -146.499
s-57.833 -75.166 -101.5 -98.499s-93.5 -35 -149.5 -35c-8.66699 1.33301 -26.667 3.16602 -54 5.49902zM233.499 424.999c-3 -2.66699 -4.83301 -7.66699 -5.5 -15c-6.66699 -130 -10 -227.667 -10 -293c0 -20.667 4.16699 -34.334 12.5 -41.001s24.5 -10 48.5 -10
c92 0 138 60 138 180c0 64.667 -13.333 111.334 -40 140.001s-68.667 43 -126 43c-8.66699 0 -14.5 -1.33301 -17.5 -4z" />
    <glyph glyph-name="e" unicode="e" horiz-adv-x="512" 
d="M42 50c22.667 2.66699 38.001 8.83105 46.001 18.498s12 26.167 12 49.5l1 285c0 16.667 -1.66699 27.834 -5 33.501s-10.333 8.5 -21 8.5l-24 -1l-6 8l7 51c10.667 0 31.167 -0.333008 61.5 -1s62.833 -1 97.5 -1c118 0 202 3 252 9l7 -9
c-2 -8.66699 -5.16699 -27.5 -9.5 -56.5s-7.5 -58.833 -9.5 -89.5l-83 -5c0 2 0.333008 6.16699 1 12.5s1 12.5 1 18.5c0 14.667 -2.33301 25 -7 31s-13.667 10.167 -27 12.5s-35.333 3.5 -66 3.5c-18 0 -29.167 -1.33301 -33.5 -4s-6.83301 -9.33398 -7.5 -20.001l-5 -113
h74c12 0 29 0.833008 51 2.5s36.667 2.83398 44 3.50098l8 -9l-12 -72c-7.33301 0 -21.166 0.333008 -41.499 1s-41.833 1 -64.5 1c-18 0 -38.667 -1.66699 -62 -5c-1.33301 -32 -2 -64.667 -2 -98c0 -14.667 1 -25 3 -31s6.33301 -10.167 13 -12.5s18 -3.5 34 -3.5
c33.333 0 57.666 2.16699 72.999 6.5s26.333 12.333 33 24s12 30.834 16 57.501l76 6l8 -9c-2 -8 -5.5 -26.667 -10.5 -56s-9.16699 -60.333 -12.5 -93l-9 -9c-16.667 0.666992 -52.834 1.66699 -108.501 3s-105.834 2 -150.501 2c-31.333 -0 -61.666 -1.16699 -90.999 -3.5
l-57 -4.5z" />
    <glyph glyph-name="f" unicode="f" horiz-adv-x="460" 
d="M42 50c22.667 3.33301 38.001 9.83301 46.001 19.5s12 25.834 12 48.501l1 285c0 16.667 -1.66699 27.834 -5 33.501s-10.333 8.5 -21 8.5l-24 -1l-6 8l7 51c10.667 0 31.167 -0.333008 61.5 -1s62.833 -1 97.5 -1c108 0 185 3 231 9l8 -9
c-1.33301 -8.66699 -4 -27.834 -8 -57.501s-7 -59.167 -9 -88.5l-82 -5l1 31c0 14 -2 24.167 -6 30.5s-11.5 10.666 -22.5 12.999s-28.833 3.5 -53.5 3.5c-18 0 -29.167 -1.33301 -33.5 -4s-6.83301 -9.33398 -7.5 -20.001l-6 -126l75 -1c10.667 0 26.167 0.833008 46.5 2.5
s33.833 2.83398 40.5 3.50098l7 -8l-11 -73c-6.66699 0 -19.5 0.333008 -38.5 1s-38.833 1 -59.5 1c-12 0 -24.333 -0.666992 -37 -2s-21 -2 -25 -2l-2 -82c0 -20 2.33301 -33.333 7 -40s14 -10 28 -10c8.66699 0 18.667 0.666992 30 2s18.666 2.33301 21.999 3l9 -10
l-10 -66c-9.33301 0 -27 0.5 -53 1.5s-51.333 1.5 -76 1.5c-28 -0 -56.333 -1.16699 -85 -3.5l-55 -4.5z" />
    <glyph glyph-name="g" unicode="g" horiz-adv-x="555" 
d="M96 57c-44 44 -65.9971 104.331 -65.9971 180.998c0 85.333 26 152 78 200s124.333 72 217 72c21.333 0 44.166 -1.5 68.499 -4.5s45.166 -6 62.499 -9s28.333 -5.16699 33 -6.5l6 -11c-0.666992 -3.33301 -2.5 -11.5 -5.5 -24.5s-6.16699 -30.333 -9.5 -52
s-5.66602 -44.834 -6.99902 -69.501l-90 -6c0 2 0.333008 6.83301 1 14.5s1 16.834 1 27.501c0 21.333 -6.16699 36.333 -18.5 45s-32.833 13 -61.5 13c-46.667 0 -81 -13 -103 -39s-33 -67 -33 -123c0 -62.667 11 -110.334 33 -143.001s54 -49 96 -49
c13.333 0 25.333 1.33301 36 4s19 5.33398 25 8.00098s9.66699 4.33398 11 5.00098v67c0 14.667 -2.16699 24.334 -6.5 29.001s-13.5 7 -27.5 7h-40l-5 8l10 60l116 -1c17.333 0 34.833 0.5 52.5 1.5s29.167 1.83301 34.5 2.5l6 -35
c-10.667 -6 -18.334 -13.167 -23.001 -21.5s-7.83398 -20.5 -9.50098 -36.5s-2.5 -40.333 -2.5 -73c0 -26.667 1.66699 -49 5 -67l-8 -11c-4 -1.33301 -14 -4.33301 -30 -9s-38.5 -9.16699 -67.5 -13.5s-61.5 -6.5 -97.5 -6.5c-76.667 0 -137 22 -181 66z" />
    <glyph glyph-name="h" unicode="h" horiz-adv-x="633" 
d="M42 49c23.333 4 38.834 10.3301 46.501 18.9971s11.5 24 11.5 46l1 291c0 16.667 -2 27.5 -6 32.5s-12 7.5 -24 7.5h-24l-5 8l6 49l100 -1c18.667 0 43 0.666992 73 2s50 2.33301 60 3l-5 -57c-20 -2.66699 -32.667 -7.16699 -38 -13.5
s-8.66602 -19.166 -9.99902 -38.499l-5 -106l99 -2c28.667 0 59 1.66699 91 5l1 111c0 16 -2 26.667 -6 32s-12 8 -24 8h-25l-5 8l7 49c0 -0.666992 36.667 -1 110 -1c15.333 0 37.833 0.666992 67.5 2s49.167 2.33301 58.5 3l-5 -56
c-20 -2.66699 -33.167 -6.66699 -39.5 -12s-9.83301 -15.666 -10.5 -30.999c-2.66699 -40 -5 -88.667 -7 -146s-3 -108.333 -3 -153c0 -20 2.33301 -33.667 7 -41s13.667 -11 27 -11c6.66699 0 12.667 0.333008 18 1s8.66602 1 9.99902 1l6 -6l-8 -54
c-8 0 -23.667 0.333008 -47 1s-49 1 -77 1l-120 -1l7 55c22.667 0.666992 38 5.66699 46 15s12 27.333 12 54v93l-81 1c-9.33301 0 -27.833 -1 -55.5 -3l-55.5 -4l-2 -102c0 -21.333 2 -35.5 6 -42.5s12.333 -10.5 25 -10.5c7.33301 0 13.5 0.333008 18.5 1s8.16699 1 9.5 1
l5 -6l-7 -53c-8 0 -22.833 0.333008 -44.5 1s-42.834 1 -63.501 1c-22.667 0 -48 -0.666992 -76 -2s-46.667 -2.66602 -56 -3.99902z" />
    <glyph glyph-name="i" unicode="i" horiz-adv-x="320" 
d="M42 49c24 4.66699 39.6641 11.168 46.9971 19.501s11 23.5 11 45.5l1 291c0 16 -2 26.667 -6 32s-12 8 -24 8h-27l-4 8l5 49l119 -1c14.667 0 36.334 0.666992 65.001 2s47.667 2.33301 57 3l-5 -57c-20.667 -2.66699 -34.167 -6.66699 -40.5 -12
s-10.166 -15.333 -11.499 -30c-6.66699 -98 -10 -197.667 -10 -299c0 -21.333 2 -35.5 6 -42.5s12.333 -10.5 25 -10.5c8.66699 0 15.834 0.333008 21.501 1s9.5 1 11.5 1l5 -6l-7 -53c-9.33301 0 -26.833 0.333008 -52.5 1s-50.167 1 -73.5 1
c-19.333 0 -42 -0.833008 -68 -2.5s-43 -2.83398 -51 -3.50098z" />
    <glyph glyph-name="j" unicode="j" horiz-adv-x="294" 
d="M15 -89l1 10.0029c20.667 15.333 36.5 30.166 47.5 44.499s18.667 31.666 23 51.999s6.5 47.166 6.5 80.499v307c0 16.667 -1.83301 27.5 -5.5 32.5s-11.167 7.5 -22.5 7.5c-6.66699 0 -13.167 -0.333008 -19.5 -1s-10.833 -1 -13.5 -1l-6 8l7 50h104
c26 0.666992 52.5 1.66699 79.5 3s44.5 2.33301 52.5 3l-5 -58c-17.333 -2.66699 -28.5 -6.5 -33.5 -11.5s-8.16699 -15.167 -9.5 -30.5c-2.66699 -46 -5 -102.167 -7 -168.5s-3 -120.5 -3 -162.5c0 -51.333 -13.667 -92.833 -41 -124.5s-71 -56.167 -131 -73.5z" />
    <glyph glyph-name="k" unicode="k" horiz-adv-x="567" 
d="M95 437.5c-4 5 -11.998 7.5 -23.998 7.5h-24l-5 8l7 49l115 -1c14.667 0 35.834 0.666992 63.501 2s46.167 2.33301 55.5 3l-4 -57c-20.667 -4 -34.334 -8.83301 -41.001 -14.5s-10.334 -15.834 -11.001 -30.501l-8 -296c-0.666992 -21.333 1.16602 -35.5 5.49902 -42.5
s12.833 -10.5 25.5 -10.5c8 0 14.833 0.333008 20.5 1s9.16699 1 10.5 1l4 -6l-7 -53c-9.33301 0 -26.5 0.333008 -51.5 1s-48.833 1 -71.5 1c-25.333 0 -49.5 -0.333008 -72.5 -1s-38.5 -1 -46.5 -1l8 54c23.333 3.33301 38.5 8.83301 45.5 16.5s10.5 22.834 10.5 45.501
l1 291c0 16.667 -2 27.5 -6 32.5zM352.002 384c13.333 13.333 19.999 25.9971 19.999 37.9971c0 8 -3.16699 13.833 -9.5 17.5s-16.833 5.83398 -31.5 6.50098l-3 6l7 52c8 0 22.5 -0.5 43.5 -1.5s41.833 -1.5 62.5 -1.5c19.333 0 39 0.5 59 1.5s33.667 1.5 41 1.5l7 -9
l-7 -48c-17.333 -7.33301 -34.166 -18.166 -50.499 -32.499s-36.5 -35.5 -60.5 -63.5l-75 -79l102 -152c16 -24 30.833 -41.167 44.5 -51.5s29.5 -16.166 47.5 -17.499l6 -8l-7 -46c-9.33301 -0.666992 -25 -2.16699 -47 -4.5s-40.333 -3.83301 -55 -4.5
c-18 0 -34.167 5.16699 -48.5 15.5s-28.833 26.833 -43.5 49.5l-120 193l2 19z" />
    <glyph glyph-name="l" unicode="l" horiz-adv-x="460" 
d="M46 50c20.667 3.33301 34.832 9.83203 42.499 19.499s11.5 25.834 11.5 48.501v287c0 16 -2 26.667 -6 32s-11.667 8 -23 8h-24l-6 8l7 49l116 -1c24.667 0 50.834 0.666992 78.501 2s46.834 2.33301 57.501 3l-7 -61c-19.333 -2 -33.333 -4.66699 -42 -8
s-14.334 -8.16602 -17.001 -14.499s-4.66699 -16.166 -6 -29.499c-6 -80.667 -9 -174.334 -9 -281.001c0 -17.333 3.16699 -29 9.5 -35s18.833 -9 37.5 -9c25.333 0 44.5 3.16699 57.5 9.5s22.667 17.666 29 33.999s11.5 42.166 15.5 77.499l76 8l6 -9l-9 -70
c-4.66699 -36.667 -8.66699 -74.667 -12 -114l-9 -10c-14.667 0.666992 -46.834 1.83398 -96.501 3.50098s-95.5 2.5 -137.5 2.5c-31.333 -0 -61.666 -1.16699 -90.999 -3.5l-56 -4.5z" />
    <glyph glyph-name="m" unicode="m" horiz-adv-x="710" 
d="M189 330l-8.00293 -0.00292969c-1.33301 -24 -3.66602 -63.667 -6.99902 -119s-5.66602 -98.666 -6.99902 -129.999c0 -8.66699 2.16699 -15 6.5 -19s11.166 -6 20.499 -6h26l5 -4l-8 -55c-8 0 -22.667 0.5 -44 1.5s-41 1.5 -59 1.5c-14 0 -30.167 -0.833008 -48.5 -2.5
s-30.5 -2.83398 -36.5 -3.50098l5 57c16 1.33301 27.833 6.16602 35.5 14.499s12.167 21.833 13.5 40.5c4.66699 35.333 11.167 92.333 19.5 171s12.5 123 12.5 133c0 14 -3.66699 23.167 -11 27.5s-23.666 7.5 -48.999 9.5l-5 6l8 52
c8.66699 -0.666992 23.834 -1.5 45.501 -2.5s42.5 -1.5 62.5 -1.5c20.667 0 40.5 0.333008 59.5 1s31.833 1.33398 38.5 2.00098c18.667 -66 37.5 -128.5 56.5 -187.5s31.5 -96.833 37.5 -113.5h8l39 113l61 185c8.66699 0.666992 16.834 0.833984 24.501 0.500977
s14.5 -0.5 20.5 -0.5c7.33301 -0.666992 19.333 -1 36 -1c13.333 0 23.333 0.333008 30 1c18 0.666992 34.833 1.5 50.5 2.5s26.167 1.83301 31.5 2.5l4 -3l-6 -54c-22.667 -1.33301 -38 -4.83301 -46 -10.5s-12 -15.834 -12 -30.501c0 -18.667 2.16699 -59.167 6.5 -121.5
s8.5 -115.833 12.5 -160.5c3.33301 -27.333 7.66602 -45.833 12.999 -55.5s14.333 -14.5 27 -14.5l23 1l4 -5l-7 -54c-6 0 -17.167 0.333008 -33.5 1s-33.833 1 -52.5 1c-19.333 -0.666992 -42.166 -1.5 -68.499 -2.5s-45.833 -2.16699 -58.5 -3.5l6 57
c16.667 2 28.5 5.83301 35.5 11.5s10.5 14.834 10.5 27.501s-2 50.334 -6 113.001l-8 127h-8c-12 -29.333 -29.167 -75.166 -51.5 -137.499l-67.5 -196.5l-68 -7c-54.667 169.333 -94.334 283 -119.001 341z" />
    <glyph glyph-name="n" unicode="n" horiz-adv-x="621" 
d="M440 412c-0.666992 12.667 -2.99805 21.3359 -6.99805 26.0029s-10.667 7 -20 7h-28l-3 7l5 52c8 -0.666992 23 -1.33398 45 -2.00098s44.333 -1 67 -1c22 0 42.667 0.5 62 1.5s32.333 1.83301 39 2.5l-4 -57c-18 -2.66699 -30.833 -7.66699 -38.5 -15
s-11.834 -18.666 -12.501 -33.999l-12 -407l-99 -10l-142.5 204.5l-84.5 117.5h-9v-213c0 -14 2.16699 -23.667 6.5 -29s11.833 -8 22.5 -8c6 0 12.5 0.333008 19.5 1s11.833 1 14.5 1l5 -5l-9 -54c-8 0 -23 0.5 -45 1.5s-43.667 1.5 -65 1.5
c-19.333 0 -40.166 -0.833008 -62.499 -2.5s-36.833 -2.83398 -43.5 -3.50098l7 57c16.667 2 28.667 6.66699 36 14s11.333 19 12 35l11 298c0 16.667 -4.33301 28.167 -13 34.5s-26.334 11.166 -53.001 14.499l-7 8l6 50c6 -0.666992 19.667 -1.5 41 -2.5s41 -1.5 59 -1.5
c19.333 0 37 0.333008 53 1s26.667 1.33398 32 2.00098c41.333 -64.667 83.166 -126.834 125.499 -186.501s69.833 -97.834 82.5 -114.501h9z" />
    <glyph glyph-name="o" unicode="o" horiz-adv-x="571" 
d="M93.5 56.5c-42.333 43.667 -63.5 104.165 -63.5 181.498c0 55.333 11 103.5 33 144.5s53.5 72.5 94.5 94.5s88.833 33 143.5 33c76 0 135 -21.5 177 -64.5s63 -103.167 63 -180.5c0 -55.333 -11.167 -103.666 -33.5 -144.999s-54 -73.166 -95 -95.499
s-88.833 -33.5 -143.5 -33.5c-74.667 0 -133.167 21.833 -175.5 65.5zM372 105.998c19.333 26.667 29 65.333 29 116c0 68 -10.5 119 -31.5 153s-51.167 51 -90.5 51c-35.333 0 -62.333 -13 -81 -39s-28 -64.667 -28 -116c0 -68.667 10.167 -120 30.5 -154
s49.833 -51 88.5 -51c36 0 63.667 13.333 83 40z" />
    <glyph glyph-name="p" unicode="p" horiz-adv-x="499" 
d="M45 51c21.333 3.33301 35.834 9.66797 43.501 19.001s11.5 24.666 11.5 45.999l1 287c0 16.667 -1.83301 27.834 -5.5 33.501s-10.167 8.5 -19.5 8.5l-29 -1l-6 7l8 51l106 -1c22 0 46.5 0.5 73.5 1.5s45.833 1.83301 56.5 2.5c74 0 126.5 -14.833 157.5 -44.5
s46.5 -65.834 46.5 -108.501c0 -31.333 -9.33301 -60.666 -28 -87.999s-43.167 -49.333 -73.5 -66s-62.833 -25 -97.5 -25h-70l-1 -52c0 -18.667 1 -32.5 3 -41.5s5.66699 -15.167 11 -18.5s13.666 -5 24.999 -5l35 1l3 -5l-8 -54c-8.66699 0 -24 0.333008 -46 1
s-43 1 -63 1c-17.333 0 -42.5 -0.833008 -75.5 -2.5s-54.833 -2.83398 -65.5 -3.50098zM361.001 341.002c0 30.667 -9.16797 53.167 -27.501 67.5s-47.166 21.5 -86.499 21.5c-7.33301 0 -12 -0.833008 -14 -2.5s-3.33301 -5.83398 -4 -12.501
c-4 -66 -6.33301 -121.333 -7 -166l69 -9c46.667 10.667 70 44.334 70 101.001z" />
    <glyph glyph-name="q" unicode="q" horiz-adv-x="575" 
d="M496 -168c-22 8.66699 -49.833 24.667 -83.5 48s-81.5 60.333 -143.5 111c-74.667 0 -133.167 21.833 -175.5 65.5s-63.5 104.167 -63.5 181.5c0 55.333 11 103.5 33 144.5s53.5 72.5 94.5 94.5s88.833 33 143.5 33c76 0 135 -21.5 177 -64.5s63 -103.167 63 -180.5
c0 -58 -14.333 -109.167 -43 -153.5s-67.334 -76.5 -116.001 -96.5v-8c84.667 -55.333 156 -83 214 -83c15.333 0 30 1.16699 44 3.5l27 4.5l7 -6l10 -38l-30.5 -21.5c-15.667 -11 -32.167 -21.667 -49.5 -32s-29.666 -15.5 -36.999 -15.5c-25.333 0 -49 4.33301 -71 13z
M372 106c19.333 26.667 29 65.333 29 116c0 68 -10.5 119 -31.5 153s-51.167 51 -90.5 51c-35.333 0 -62.333 -13 -81 -39s-28 -64.667 -28 -116c0 -68.667 10.167 -120 30.5 -154s49.833 -51 88.5 -51c36 0 63.667 13.333 83 40z" />
    <glyph glyph-name="r" unicode="r" horiz-adv-x="554" 
d="M343 60l-67.0029 131.001h-56l-1 -77c0 -18 1.33301 -30.833 4 -38.5s7.83398 -12.834 15.501 -15.501s20.834 -4.33398 39.501 -5.00098l4 -5l-9 -53c-10.667 0.666992 -29.5 1.16699 -56.5 1.5s-50.5 0.5 -70.5 0.5c-21.333 0 -43.333 -0.666992 -66 -2
s-37.334 -2.33301 -44.001 -3l7 58c22.667 2.66699 37.834 8.5 45.501 17.5s11.5 24.5 11.5 46.5l1 293c0 14 -1.83301 23.5 -5.5 28.5s-10.167 7.5 -19.5 7.5l-29 -1l-6 7l8 51l106 -1c23.333 0 48.333 0.5 75 1.5s45.334 1.83301 56.001 2.5c66 0 116.333 -11.667 151 -35
s52 -57.333 52 -102c0 -30.667 -9.33301 -58.667 -28 -84s-45.667 -46.666 -81 -63.999l67 -103c16 -23.333 31 -40.333 45 -51s29 -16 45 -16l7 -9l-7 -45l-103 -8c-38.667 0 -69 24 -91 72zM360.997 353.001c0 26.667 -9.66602 46.499 -28.999 59.499s-49 19.5 -89 19.5
c-5.33301 0 -8.83301 -1.16699 -10.5 -3.5s-2.83398 -7.16602 -3.50098 -14.499c-4 -54.667 -6 -103 -6 -145l71 -8c44.667 16 67 46.667 67 92z" />
    <glyph glyph-name="s" unicode="s" horiz-adv-x="465" 
d="M119 -2.5c-22 4.33301 -39.332 8.99805 -51.999 13.998l-24 9.5l-8 12c1.33301 8 4 25.667 8 53s6.33301 53.333 7 78l75 6c0 -38.667 6.33301 -65.167 19 -79.5s35.334 -21.5 68.001 -21.5c24.667 0 44.167 4.66699 58.5 14s21.5 22 21.5 38s-8 29.667 -24 41
s-41 24.333 -75 39l-21 9c-40.667 18 -72.5 37.667 -95.5 59s-34.5 49 -34.5 83c0 30.667 9.5 58 28.5 82s45.667 42.667 80 56s73.5 20 117.5 20c24.667 0 47.667 -1.5 69 -4.5s38.333 -6.16699 51 -9.5s20.667 -5.66602 24 -6.99902l7 -12l-9 -50.5
c-4.66699 -26.333 -8.33398 -54.166 -11.001 -83.499l-69 -5l-8 5l1 24c0 21.333 -6 36.833 -18 46.5s-31.333 14.5 -58 14.5c-21.333 0 -39 -4.83301 -53 -14.5s-21 -21.834 -21 -36.501c0 -16.667 8.66699 -30.5 26 -41.5s44.666 -24.5 81.999 -40.5
c30.667 -13.333 55.667 -25.666 75 -36.999s35.833 -26 49.5 -44s20.5 -39.667 20.5 -65c0 -48 -21.333 -86.333 -64 -115s-99.667 -43 -171 -43c-26 0 -50 2.16699 -72 6.5z" />
    <glyph glyph-name="t" unicode="t" horiz-adv-x="491" 
d="M102 52c25.333 2 43.666 5.16895 54.999 9.50195s18.833 11.333 22.5 21s5.5 25.167 5.5 46.5v302c-26.667 -0.666992 -45.834 -3.33398 -57.501 -8.00098s-20.167 -13.667 -25.5 -27s-10 -36 -14 -68l-76 -5c0.666992 11.333 2.16699 35.5 4.5 72.5
s3.83301 71.833 4.5 104.5l10 10l85 -9h258l87 9l10 -10c0.666992 -34 1.83398 -68.667 3.50098 -104s2.83398 -58 3.50098 -68l-76 -5c-4 34.667 -8.5 59 -13.5 73s-12.833 23.167 -23.5 27.5s-28.667 6.83301 -54 7.5c-5.33301 -76 -8 -183 -8 -321
c0 -19.333 3.33301 -33 10 -41s18.334 -12 35.001 -12c10.667 0 20 0.333008 28 1s13 1 15 1l3 -4l-7 -59c-11.333 0.666992 -32 1.5 -62 2.5s-58.667 1.5 -86 1.5c-19.333 0 -45.333 -0.833008 -78 -2.5s-54.334 -2.83398 -65.001 -3.50098z" />
    <glyph glyph-name="u" unicode="u" horiz-adv-x="554" 
d="M122.5 32c-31.667 27.333 -47.5039 69.3311 -47.5039 125.998v245c0 17.333 -1.66699 28.666 -5 33.999s-10.666 8 -21.999 8l-25 -1l-2 3l7 56c8 0 23.833 -0.333008 47.5 -1s49.167 -1 76.5 -1c20 0 40 0.5 60 1.5s33.667 1.83301 41 2.5l-7 -58
c-16 -1.33301 -27.167 -5 -33.5 -11s-10.166 -15.667 -11.499 -29l-5 -227c0 -34.667 8.16699 -62 24.5 -82s39.5 -30 69.5 -30c62 0 93 31 93 93c0 39.333 -0.5 84.333 -1.5 135s-1.5 86.334 -1.5 107.001c0 16.667 -1.66699 27.834 -5 33.501s-10 8.5 -20 8.5l-26 -1l-2 3
l8 56c7.33301 0 20.5 -0.333008 39.5 -1s37.833 -1 56.5 -1s38.834 0.5 60.501 1.5s35.834 1.83301 42.501 2.5l-5 -57c-20 -4.66699 -32.833 -9.16699 -38.5 -13.5s-8.5 -12.5 -8.5 -24.5v-236c0 -59.333 -18.333 -104.666 -55 -135.999s-89.667 -47 -159 -47
c-65.333 0 -113.833 13.667 -145.5 41z" />
    <glyph glyph-name="v" unicode="v" horiz-adv-x="536" 
d="M131 175c-26 94 -47.6689 167.999 -65.002 221.999c-4.66699 16 -11.667 27.833 -21 35.5s-21.666 12.167 -36.999 13.5l-4 6l6 51c7.33301 0 21.333 -0.333008 42 -1s42 -1 64 -1c26.667 0 55 0.666992 85 2s49.333 2.33301 58 3l5 -6l-4 -52
c-19.333 -2 -33.166 -3.83301 -41.499 -5.5s-13.833 -4.16699 -16.5 -7.5s-4 -8.66602 -4 -15.999c0 -11.333 9.83301 -58.333 29.5 -141l40.5 -168h13c9.33301 21.333 27.833 76 55.5 164s41.5 138 41.5 150c0 8.66699 -2.66699 14.5 -8 17.5s-15.666 4.5 -30.999 4.5h-30
l-4 6l5 52c8 -0.666992 23.667 -1.33398 47 -2.00098s48.666 -1 75.999 -1l97 1l-6 -56c-12 -1.33301 -20.833 -4.66602 -26.5 -9.99902s-11.167 -15.333 -16.5 -30l-145 -402l-154 -16z" />
    <glyph glyph-name="w" unicode="w" horiz-adv-x="819" 
d="M127.5 175c-25 94 -46.1641 167.997 -63.4971 221.997c-5.33301 16 -12.333 27.833 -21 35.5s-20.334 12.167 -35.001 13.5c-1.33301 2.66699 -2.66602 4.66699 -3.99902 6l7 51c7.33301 0 20.833 -0.333008 40.5 -1s40.167 -1 61.5 -1c28 0 56 0.666992 84 2
s46 2.33301 54 3l4 -6l-4 -52c-18.667 -2 -32 -3.83301 -40 -5.5s-13.333 -4.16699 -16 -7.5s-4 -8.66602 -4 -15.999c0 -12.667 9.5 -60 28.5 -142s32.167 -137.667 39.5 -167h12c7.33301 16.667 20 54.667 38 114s33.667 113 47 161
c-0.666992 9.33301 -2.33398 19 -5.00098 29c-2.66699 12 -8 20.167 -16 24.5s-22 6.83301 -42 7.5l-4 6l7 51c8.66699 0 24.5 -0.333008 47.5 -1s46.167 -1 69.5 -1c26.667 0 54.167 0.666992 82.5 2s46.5 2.33301 54.5 3l5 -6l-4 -52
c-19.333 -2 -32.833 -3.83301 -40.5 -5.5s-12.834 -4.16699 -15.501 -7.5s-4 -8.66602 -4 -15.999c0 -12 9.33301 -59.167 28 -141.5s31.667 -138.166 39 -167.499h13c9.33301 22 27.333 77.167 54 165.5s40 138.5 40 150.5c0 7.33301 -2.66699 12.5 -8 15.5
s-15.333 4.5 -30 4.5h-29l-4 6l6 52c8 -0.666992 23.167 -1.33398 45.5 -2.00098s46.5 -1 72.5 -1l94 1l-6 -56c-11.333 -1.33301 -19.833 -4.66602 -25.5 -9.99902s-10.834 -15.333 -15.501 -30l-139 -402l-148 -16c-9.33301 53.333 -31 141.333 -65 264h-8l-80 -248
l-148 -16z" />
    <glyph glyph-name="x" unicode="x" horiz-adv-x="586" 
d="M237 503c28.667 1.33301 47.665 2.33301 56.998 3l3 -8l-4 -49c-30.667 -0.666992 -46 -8 -46 -22c0 -8 5.16699 -19.667 15.5 -35s28.5 -40.666 54.5 -75.999c5.33301 8.66699 15.333 22.334 30 41.001l18.5 25.5c9 12.333 15.667 22.333 20 30s6.5 13.5 6.5 17.5
c0 6 -3 10.333 -9 13s-16 4.66699 -30 6l-2 4l5 50c18.667 0 34 -0.333008 46 -1l66 -1c22 0 42 0.333008 60 1s30 1 36 1l3 -6l-5 -52c-24.667 -9.33301 -44.167 -19.666 -58.5 -30.999s-30.833 -29 -49.5 -53l-86 -115l92 -123c16 -22 32.333 -38.167 49 -48.5
s36 -15.833 58 -16.5l2 -3l-6 -56c-8 0 -22.833 0.333008 -44.5 1s-42.834 1 -63.501 1c-17.333 0 -44 -0.833008 -80 -2.5s-60 -2.83398 -72 -3.50098l-5 6l5 52c14.667 0.666992 25.167 2.5 31.5 5.5s9.5 7.83301 9.5 14.5s-4.33301 15.334 -13 26.001l-67 91l-50 -66
c-9.33301 -12.667 -15.833 -22.334 -19.5 -29.001s-5.5 -12.667 -5.5 -18c0 -14.667 12.667 -22.334 38 -23.001l4 -6l-5 -52c-8.66699 0.666992 -24.334 1.66699 -47.001 3s-43.667 2 -63 2s-38.666 -0.5 -57.999 -1.5s-32.666 -1.83301 -39.999 -2.5l-4 9l5 50
c30 10.667 69 45 117 103l80 102l-85 116c-15.333 21.333 -30.666 36.666 -45.999 45.999s-34.666 16 -57.999 20l-3 4l6 55l134 -1c20 0 44.333 0.666992 73 2z" />
    <glyph glyph-name="y" unicode="y" horiz-adv-x="521" 
d="M126 50c22 2.66699 38.333 6.16309 49 10.4961s17.834 11 21.501 20s5.5 22.167 5.5 39.5v21c0 12.667 -1.66699 24.667 -5 36s-9.33301 25 -18 41l-83 150c-12 22.667 -24.333 39.334 -37 50.001s-30.667 19 -54 25l-3 4l8 55c8.66699 0 24 -0.333008 46 -1
s43.333 -1 64 -1c17.333 0 41.5 0.833008 72.5 2.5s51.5 2.83398 61.5 3.50098l5 -8l-5 -49c-17.333 -0.666992 -29.333 -2.66699 -36 -6s-10 -9 -10 -17c0 -6 7 -24 21 -54l25 -54l19 -40h8l59 118c8.66699 15.333 13 27.333 13 36c0 5.33301 -3.16699 9.33301 -9.5 12
s-16.5 4.33398 -30.5 5.00098l-3 4l6 50l47 -1c29.333 -1.33301 51.666 -2 66.999 -2c20 0 38.167 0.333008 54.5 1s27.166 1.33398 32.499 2.00098l3 -6l-6 -52c-21.333 -7.33301 -39 -18.333 -53 -33s-29.333 -36.667 -46 -66l-78 -140
c-6.66699 -12.667 -10.667 -25.167 -12 -37.5s-2.33301 -32.833 -3 -61.5c0 -18.667 2.83301 -31.667 8.5 -39s16.167 -11 31.5 -11c9.33301 0 17.833 0.333008 25.5 1s12.834 1 15.501 1l3 -4l-8 -59c-10.667 0.666992 -30.334 1.5 -59.001 2.5s-56.667 1.5 -84 1.5
c-20 -0 -45.167 -1.16699 -75.5 -3.5s-50.166 -3.83301 -59.499 -4.5z" />
    <glyph glyph-name="z" unicode="z" horiz-adv-x="499" 
d="M22 33l284.999 404l-96 -6c-24 -3.33301 -42 -8 -54 -14s-20.667 -15.167 -26 -27.5s-9 -30.5 -11 -54.5l-77 -6c1.33301 11.333 3.83301 35.5 7.5 72.5s5.83398 70.833 6.50098 101.5l9 8l147 -9l247 -2l16 -35c-59.333 -74 -114.833 -147 -166.5 -219l-126.5 -182
l120 10c27.333 3.33301 48.333 14 63 32s25 46.333 31 85l76 6c-2 -12 -5.5 -37.667 -10.5 -77s-8.16699 -75 -9.5 -107l-15 -15l-330 4l-64 -6z" />
    <glyph glyph-name="braceleft" unicode="{" horiz-adv-x="321" 
d="M120.5 -94.5c-25 22.333 -37.501 49.833 -37.501 82.5c0 14 2.16699 28.167 6.5 42.5s10.833 33.833 19.5 58.5c13.333 34 20 57.667 20 71c0 40 -28.333 67.333 -85 82l4 45c24 6.66699 43.5 16.5 58.5 29.5s22.5 28.167 22.5 45.5c0 9.33301 -1.66699 19.833 -5 31.5
s-8.66602 26.834 -15.999 45.501c-8 22 -14.167 40.667 -18.5 56s-6.5 29.666 -6.5 42.999c0 33.333 13.5 61 40.5 83s62.833 33 107.5 33c14 0 28.333 -1.16699 43 -3.5s24.334 -4.16602 29.001 -5.49902l6 -10l-12 -54c-2.66699 0.666992 -8.5 1.66699 -17.5 3
s-16.833 2 -23.5 2c-18.667 0 -32.667 -5.5 -42 -16.5s-14 -25.5 -14 -43.5c0 -10.667 1.83301 -24.5 5.5 -41.5s6.16699 -28.167 7.5 -33.5c9.33301 -38.667 14 -65.667 14 -81c0 -24.667 -6.83301 -44.834 -20.5 -60.501s-31.167 -26.834 -52.5 -33.501v-5
c22.667 -8 40.5 -20.167 53.5 -36.5s19.5 -37.166 19.5 -62.499c0 -17.333 -4.66699 -46.666 -14 -87.999c-8.66699 -36 -13 -62 -13 -78c0 -18.667 4.83301 -33.834 14.5 -45.501s24.167 -17.5 43.5 -17.5c8 0 16.333 0.666992 25 2s14.334 2.33301 17.001 3l7 -9l-10 -53
c-1.33301 -0.666992 -5.33301 -2.16699 -12 -4.5s-15.834 -4.5 -27.501 -6.5s-24.834 -3 -39.501 -3c-40 0 -72.5 11.167 -97.5 33.5z" />
    <glyph glyph-name="bar" unicode="|" horiz-adv-x="336" 
d="M119 -258l0.000976562 216.5c0 105.667 0.333008 211.5 1 317.5l1 520l84 11l15 -11c-0.666992 -37.333 -1.83398 -113.5 -3.50098 -228.5s-2.5 -207.167 -2.5 -276.5l1 -549l-85 -11z" />
    <glyph glyph-name="braceright" unicode="}" horiz-adv-x="321" 
d="M47 -124.5c-14.667 2.33301 -24.3311 3.83594 -28.998 4.50293l-6 10l12 54c2.66699 -0.666992 8.5 -1.66699 17.5 -3s16.833 -2 23.5 -2c18.667 0 32.667 5.5 42 16.5s14 25.833 14 44.5c0 14.667 -4.33301 40 -13 76c-9.33301 40 -14 68 -14 84
c0 24.667 6.83301 44.667 20.5 60s31.167 26.333 52.5 33v6c-48.667 17.333 -73 50 -73 98c0 17.333 4.66699 46 14 86c8.66699 36 13 61.333 13 76c0 18.667 -5 33.834 -15 45.501s-24.667 17.5 -44 17.5c-7.33301 0 -15.333 -0.666992 -24 -2s-14.334 -2.33301 -17.001 -3
l-8 9l11 53c1.33301 0.666992 5.33301 2.16699 12 4.5s15.834 4.66602 27.501 6.99902s24.5 3.5 38.5 3.5c40 0 72.667 -11.333 98 -34s38 -50 38 -82c0 -14 -2.33301 -28.667 -7 -44s-11.334 -34 -20.001 -56c-1.33301 -3.33301 -5 -13 -11 -29s-9 -29.333 -9 -40
c0 -21.333 7.83301 -38.833 23.5 -52.5s36.5 -23.167 62.5 -28.5l-4 -46c-24 -6.66699 -43.667 -16.5 -59 -29.5s-23 -28.167 -23 -45.5c0 -9.33301 1.66699 -19.833 5 -31.5s8.66602 -26.834 15.999 -45.501c17.333 -42.667 26 -75.334 26 -98.001
c0 -34.667 -13.5 -63.334 -40.5 -86.001s-62.833 -34 -107.5 -34c-14 0 -28.333 1.16699 -43 3.5z" />
    <glyph glyph-name="asciitilde" unicode="~" horiz-adv-x="506" 
d="M28 216l0.000976562 10l90 100l19 4c18 0 57.667 -6.66699 119 -20c56 -12 90.667 -18 104 -18c8 0 17.5 4.16699 28.5 12.5s20.667 17 29 26s13.833 14.833 16.5 17.5h11l34 -37v-10l-90 -101l-19 -4c-20.667 0 -60.334 7 -119.001 21c-56 12 -90.667 18 -104 18
c-8 0 -17.5 -4.16699 -28.5 -12.5s-20.667 -17 -29 -26s-13.833 -14.833 -16.5 -17.5h-11z" />
    <glyph glyph-name="uni00A0" unicode="&#xa0;" horiz-adv-x="174" 
 />
    <glyph glyph-name="exclamdown" unicode="&#xa1;" horiz-adv-x="264" 
d="M194 499.5c12 -11.667 18 -27.167 18 -46.5c0 -22 -6.66699 -39.667 -20 -53s-31.666 -20.333 -54.999 -21c-21.333 0 -38 6 -50 18s-18 28 -18 48c0 22 6.66699 39.5 20 52.5s31.666 19.5 54.999 19.5c21.333 0 38 -5.83301 50 -17.5zM171 325l18 -298l-10 -14l-110 -18
l-14 15l45 317l58 9z" />
    <glyph glyph-name="cent" unicode="&#xa2;" horiz-adv-x="431" 
d="M361 98c15.333 16 26.001 42.334 32.001 79.001l90 6c-1.33301 -9.33301 -4 -29.833 -8 -61.5s-6.33301 -61.5 -7 -89.5l-9 -10c-4 -1.33301 -14.333 -4.5 -31 -9.5s-38.667 -9.83301 -66 -14.5s-56.333 -7 -87 -7c-9.33301 0 -16.333 0.333008 -21 1l-16 -143l-66 -8
l-6 7l17 156c-48.667 15.333 -86.334 43.166 -113.001 83.499s-40 90.5 -40 150.5c0 70 18.167 128 54.5 174s87.166 76 152.499 90l16 147l66 9l6 -9l-15 -139h9c20.667 0 43 -1.5 67 -4.5s44.5 -6 61.5 -9s27.833 -5.16699 32.5 -6.5l5 -11
c-0.666992 -3.33301 -2.5 -11.833 -5.5 -25.5s-6.16699 -31.834 -9.5 -54.501s-5.66602 -46.667 -6.99902 -72l-90 -6c0 2 0.166992 6.83301 0.5 14.5s0.5 16.834 0.5 27.501c0 22 -6.66699 38 -20 48s-34.333 15 -63 15c-40.667 0 -71 -13.167 -91 -39.5
s-30 -66.833 -30 -121.5c0 -61.333 11 -108.5 33 -141.5s53 -49.5 93 -49.5c28 0 49.667 8 65 24z" />
    <glyph glyph-name="sterling" unicode="&#xa3;" horiz-adv-x="519" 
d="M346 -6c-16 4 -37.333 10 -64 18c-29.333 8.66699 -52 15 -68 19s-32 6 -48 6c-35.333 0 -71.333 -12 -108 -36l-11 5l-19 60c62 38 93 83.667 93 137v41c-0.666992 15.333 -5.33398 25.666 -14.001 30.999s-25.667 8.66602 -51 9.99902l-4 6l7 50l62 10v22
c0 40.667 10.333 78.334 31 113.001s48.334 62 83.001 82s72 30 112 30c21.333 0 42.5 -1.33301 63.5 -4s37.167 -6.33398 48.5 -11.001l5 -11l-32 -94l-19 -3c-44 25.333 -80 38 -108 38c-24 0 -41.667 -7.83301 -53 -23.5s-17.666 -40.167 -18.999 -73.5l-2 -69
c37.333 0 69.666 0.333008 96.999 1s45.333 1.33398 54 2.00098l4 -4l-11 -68c-8 0.666992 -25.167 1.33398 -51.5 2.00098s-58.166 1 -95.499 1l-1 -60c-1.33301 -22.667 -6.16602 -44 -14.499 -64s-19.5 -36.333 -33.5 -49l56 12c15.333 0 39.666 -3.33301 72.999 -10
s56.666 -10 69.999 -10c19.333 0 34.666 6.5 45.999 19.5s17.666 31.5 18.999 55.5l24 -1c6.66699 -10.667 11.834 -23.5 15.501 -38.5s5.5 -29.5 5.5 -43.5c0 -30 -9.16699 -54.833 -27.5 -74.5s-41.166 -29.5 -68.499 -29.5c-14.667 0 -30 2 -46 6z" />
    <glyph glyph-name="currency" unicode="&#xa4;" horiz-adv-x="484" 
d="M80 146l-48 69.001c7.33301 6 23.333 20 48 42l23 21c-12.667 23.333 -19 47.666 -19 72.999c0 28 6.66699 53.333 20 76l-74 71l3 17l69 49c6 -8 28 -32.333 66 -73c23.333 12.667 48 19 74 19s50.667 -6.33301 74 -19l68 77l18 -4l49 -69l-72 -67
c14.667 -23.333 22 -49 22 -77c0 -24.667 -6.33301 -49 -19 -73l73 -67l-3 -16l-69 -51l-66 69c-23.333 -12.667 -48.333 -19 -75 -19c-29.333 0 -55 7 -77 21l-44 -47.5l-25 -25.5zM304.5 289.501c17 17 25.5 37.5 25.5 61.5c0 24.667 -8.5 45.667 -25.5 63
s-37.833 26 -62.5 26c-24 0 -44.5 -8.66699 -61.5 -26s-25.5 -38.333 -25.5 -63c0 -24 8.5 -44.5 25.5 -61.5s37.5 -25.5 61.5 -25.5c24.667 0 45.5 8.5 62.5 25.5z" />
    <glyph glyph-name="yen" unicode="&#xa5;" horiz-adv-x="574" 
d="M151 50c22 3.33301 38.0039 7.50098 48.0039 12.501s16.667 12.5 20 22.5s5.33301 26 6 48l-172 -1l-8 8l9 54h163c-8.66699 20 -14.334 32.667 -17.001 38l-19 36c-36 -0.666992 -78.333 -1 -127 -1l-7 7l8 54h89c-18.667 32.667 -37.334 59 -56.001 79
s-40 32.667 -64 38c0 10 0.333008 17.667 1 23c0 1.33301 2 13.666 6 36.999c7.33301 -0.666992 20.833 -1.33398 40.5 -2.00098s40.5 -1 62.5 -1c20.667 0.666992 46.167 1.66699 76.5 3s52.5 2.66602 66.5 3.99902l6 -10l-6 -50c-19.333 -2 -32.166 -4.33301 -38.499 -7
s-9.5 -7 -9.5 -13c0 -4.66699 2.16699 -12.167 6.5 -22.5l9.5 -22.5l9 -21l49 -86l67 131c5.33301 12 8 20.333 8 25c0 4 -1.16699 6.66699 -3.5 8s-8 2.33301 -17 3s-16.833 3 -23.5 7c0.666992 4 1 10.333 1 19l5 35l42 -1c30.667 -1.33301 55 -2 73 -2
c20 0 38.167 0.333008 54.5 1s27.166 1.33398 32.499 2.00098l5 -6l-7 -54c-22.667 -7.33301 -39.167 -15.5 -49.5 -24.5s-22.833 -25.167 -37.5 -48.5l-25 -42l96 2l7 -9l-4 -55h-136l-27 -46c-4.66699 -8 -8 -17.333 -10 -28c47.333 0.666992 103.666 2 168.999 4l7 -10
l-4 -55h-182c0 -18 0.333008 -31 1 -39c1.33301 -12.667 3.83301 -21.5 7.5 -26.5s10.167 -7.83301 19.5 -8.5c3.33301 -0.666992 9.66602 -1 18.999 -1l34 2l3 -6l-8 -57c-10.667 0 -30 0.5 -58 1.5s-55.333 1.5 -82 1.5c-19.333 0 -44.333 -1.16699 -75 -3.5
s-50.667 -4.16602 -60 -5.49902z" />
    <glyph glyph-name="brokenbar" unicode="&#xa6;" horiz-adv-x="336" 
d="M120 370l1 426l84 11l15 -11c-0.666992 -27.333 -1.66699 -81 -3 -161s-2.33301 -166.667 -3 -260l-86 -12zM119 -258v417l86 14l9 -9l1 -422l-85 -11z" />
    <glyph glyph-name="section" unicode="&#xa7;" horiz-adv-x="500" 
d="M447 164c-17.333 -26 -40.6621 -47.9971 -69.9951 -65.9971c6 -14 9 -29 9 -45c0.666992 -25.333 -7.5 -49.833 -24.5 -73.5s-40 -42.834 -69 -57.501s-61.167 -22 -96.5 -22c-36.667 0 -68.334 7.66699 -95.001 23s-40 33.666 -40 54.999
c0 18.667 2.5 37.834 7.5 57.501s11.167 34.834 18.5 45.501l21 -1c5.33301 -29.333 17.833 -53.5 37.5 -72.5s42.5 -28.5 68.5 -28.5c16 0 29.5 4.66699 40.5 14s16.5 21.333 16.5 36c0 19.333 -8.16699 36.5 -24.5 51.5s-41.5 33.167 -75.5 54.5
c-30.667 19.333 -55.334 36.166 -74.001 50.499s-34.667 32 -48 53s-20 44.833 -20 71.5c0 28 9 54.5 27 79.5s42 46.5 72 64.5c-7.33301 16 -11 32.333 -11 49c0 27.333 7.66699 52.666 23 75.999s36.166 41.666 62.499 54.999s55.5 20 87.5 20c31.333 0 59.333 -5 84 -15
s37 -21.667 37 -35c0 -16 -3.33301 -35.5 -10 -58.5s-13.334 -37.167 -20.001 -42.5h-19c-8 20 -19.833 36.333 -35.5 49s-32.167 19 -49.5 19c-12.667 0 -23.334 -4.33301 -32.001 -13s-13 -19.667 -13 -33c0 -18.667 8.16699 -35.5 24.5 -50.5s41.5 -33.5 75.5 -55.5
c30 -19.333 54.333 -36.5 73 -51.5s34.667 -32.833 48 -53.5s20 -43.667 20 -69c0 -28 -8.66699 -55 -26 -81zM158.504 289.003c19 -18.667 48.167 -40.666 87.5 -65.999c22.667 -15.333 41.667 -28.666 57 -39.999s29 -23.333 41 -36c16 16 24 35.333 24 58
c0 23.333 -9.33301 44.166 -28 62.499s-47.667 41.166 -87 68.499c-45.333 30.667 -77.333 56 -96 76c-18 -16.667 -27 -36.667 -27 -60s9.5 -44.333 28.5 -63z" />
    <glyph glyph-name="dieresis" unicode="&#xa8;" horiz-adv-x="398" 
d="M62.5 568.5c-10.333 11 -15.501 25.501 -15.501 43.501c0 19.333 6.16699 35.166 18.5 47.499s28.5 18.5 48.5 18.5c18 0 32.167 -5.33301 42.5 -16s15.5 -25 15.5 -43c0 -19.333 -6.16699 -35.333 -18.5 -48s-28.166 -19 -47.499 -19c-18.667 0 -33.167 5.5 -43.5 16.5z
M240.499 568.501c-10.333 11 -15.5 25.501 -15.5 43.501c0 19.333 6.16699 35.166 18.5 47.499s28.166 18.5 47.499 18.5c18.667 0 33.167 -5.33301 43.5 -16s15.5 -25 15.5 -43c0 -19.333 -6.16699 -35.333 -18.5 -48s-28.166 -19 -47.499 -19
c-18.667 0 -33.167 5.5 -43.5 16.5z" />
    <glyph glyph-name="copyright" unicode="&#xa9;" horiz-adv-x="696" 
d="M194.5 29c-46.333 27.333 -83.166 64.333 -110.499 111s-41 97.667 -41 153s13.667 106.333 41 153s64.166 83.667 110.499 111s97.166 41 152.499 41s106.333 -13.667 153 -41s83.667 -64.333 111 -111s41 -97.667 41 -153s-13.667 -106.333 -41 -153
s-64.333 -83.667 -111 -111s-97.667 -41 -153 -41s-106.166 13.667 -152.499 41zM474.5 71.5c39 23 70 54.167 93 93.5s34.5 82 34.5 128s-11.5 88.667 -34.5 128s-54 70.5 -93 93.5s-81.5 34.5 -127.5 34.5s-88.5 -11.5 -127.5 -34.5s-69.833 -54.167 -92.5 -93.5
s-34 -82 -34 -128s11.333 -88.667 34 -128s53.5 -70.5 92.5 -93.5s81.5 -34.5 127.5 -34.5s88.5 11.5 127.5 34.5zM223.5 172.5c-26.333 29 -39.502 67.834 -39.502 116.501c0 54 15.833 96.667 47.5 128s75.834 47 132.501 47c19.333 0 40 -1.83301 62 -5.5
s36.333 -6.16699 43 -7.5l3 -7c-1.33301 -5.33301 -3.66602 -17.333 -6.99902 -36s-5.66602 -40 -6.99902 -64l-59 -3l1 26c0 14 -3.83301 24.333 -11.5 31s-20.5 10 -38.5 10c-24 0 -41.833 -8.16699 -53.5 -24.5s-17.5 -42.166 -17.5 -77.499
c0 -80.667 24.667 -121 74 -121c18 0 31.667 5.16699 41 15.5s15.333 27.166 18 50.499l58 4l-4.5 -40c-2.33301 -20.667 -3.83301 -40.334 -4.5 -59.001l-6 -8c-2.66699 -1.33301 -9.33398 -3.5 -20.001 -6.5s-24.834 -5.83301 -42.501 -8.5s-36.167 -4 -55.5 -4
c-49.333 0 -87.166 14.5 -113.499 43.5z" />
    <glyph glyph-name="ordfeminine" unicode="&#xaa;" horiz-adv-x="340" 
d="M196 381l-5.99902 2.99902c-14 -14 -27.667 -25.667 -41 -35s-24.333 -14 -33 -14c-26 0 -48 9.66699 -66 29s-27 43.333 -27 72c0 13.333 3.66699 25.166 11 35.499s17 16.833 29 19.5l129 26v10c0 16.667 -5 29.834 -15 39.501s-23.333 14.5 -40 14.5
c-11.333 0 -22.833 -2.16699 -34.5 -6.5s-21.334 -9 -29.001 -14l-14.5 -9.5l-6 3l-14 44c4.66699 2.66699 15.167 8.16699 31.5 16.5s34 16.333 53 24s33.5 11.5 43.5 11.5c40.667 0 70.5 -8.5 89.5 -25.5s28.5 -38.833 28.5 -65.5c0 -7.33301 -2 -27 -6 -59
c-4.66699 -31.333 -7 -53.666 -7 -66.999c0 -7.33301 2 -13.166 6 -17.499s9.33301 -6.5 16 -6.5c6 0 11.833 1.16699 17.5 3.5s9.16699 4.16602 10.5 5.49902l11 -16c-2 -3.33301 -6.33301 -10 -13 -20s-15 -20.167 -25 -30.5s-19.667 -16.833 -29 -19.5
c-42.667 0 -66 16.333 -70 49zM168.001 408.999c8 2.66699 14.999 5.66699 20.999 9l2 59l-62 -15c-5.33301 -1.33301 -9.16602 -3.5 -11.499 -6.5s-3.5 -7.16699 -3.5 -12.5c0 -11.333 3.16699 -20.5 9.5 -27.5s14.5 -10.5 24.5 -10.5c5.33301 0 12 1.33301 20 4z" />
    <glyph glyph-name="guillemotleft" unicode="&#xab;" horiz-adv-x="449" 
d="M273.5 147.5c-34.333 35 -56.833 57.5 -67.5 67.5v21c10.667 10 33.167 32.833 67.5 68.5l97.5 105.5l40 -24l3 -16c-10.667 -15.333 -27.667 -42 -51 -80l-39 -61l38 -61l22 -36l30 -47l-3 -16l-40 -25zM89.5 147.5c-34.333 35 -56.833 57.5 -67.5 67.5v21
c10.667 10 33.167 32.833 67.5 68.5l97.5 105.5l40 -24l3 -16c-10.667 -15.333 -27.667 -42 -51 -80l-39 -61l38 -61l22 -36l30 -47l-3 -16l-40 -25z" />
    <glyph glyph-name="logicalnot" unicode="&#xac;" horiz-adv-x="506" 
d="M351 29l1 193.998l-100 -1l-228 -1l-7 11l14 88l234 -1c31.333 0 67.166 0.833008 107.499 2.5s66.833 2.83398 79.5 3.50098l7 -12c-1.33301 -8 -3.16602 -26.167 -5.49902 -54.5s-3.83301 -57.5 -4.5 -87.5c0 -34 0.166992 -63.167 0.5 -87.5s0.5 -40.166 0.5 -47.499
l-88 -15z" />
    <glyph glyph-name="uni00AD" unicode="&#xad;" horiz-adv-x="355" 
d="M50 207l7.99805 76.998l164 18c22.667 2.66699 39.834 4.83398 51.501 6.50098s18.834 2.83398 21.501 3.50098l10 -13l-9 -78l-236 -26z" />
    <glyph glyph-name="registered" unicode="&#xae;" horiz-adv-x="468" 
d="M131.5 330.5c-31 18.333 -55.667 43 -74 74s-27.5 65.167 -27.5 102.5s9.16699 71.5 27.5 102.5s43 55.667 74 74s65.167 27.5 102.5 27.5s71.5 -9.16699 102.5 -27.5s55.667 -43 74 -74s27.5 -65.167 27.5 -102.5s-9.16699 -71.5 -27.5 -102.5s-43 -55.667 -74 -74
s-65.167 -27.5 -102.5 -27.5s-71.5 9.16699 -102.5 27.5zM317 363.5c25.333 15 45.5 35.167 60.5 60.5s22.5 53 22.5 83s-7.5 57.667 -22.5 83s-35.167 45.5 -60.5 60.5s-53 22.5 -83 22.5s-57.667 -7.5 -83 -22.5s-45.5 -35.167 -60.5 -60.5s-22.5 -53 -22.5 -83
s7.5 -57.667 22.5 -83s35.167 -45.5 60.5 -60.5s53 -22.5 83 -22.5s57.667 7.5 83 22.5zM274 415.5c-6 4.33301 -11.665 12.168 -16.998 23.501l-25 51h-21c-0.666992 -6.66699 -1 -15.667 -1 -27s1.16699 -18.333 3.5 -21s9.16602 -4 20.499 -4l2 -4l-3 -21
c-2.66699 0 -7.83398 0.333008 -15.501 1s-15.5 1 -23.5 1h-12l-45 -3l3 24c9.33301 1.33301 15.333 4.16602 18 8.49902s4 12.5 4 24.5v107c0 7.33301 -0.666992 12.166 -2 14.499s-4 3.5 -8 3.5h-11l-2 3l3 21l43 -1h11l35 2c57.333 0 86 -18.667 86 -56
c0 -25.333 -14.333 -45.666 -43 -60.999l25 -38c12 -20 24 -30 36 -30l2 -4c-0.666992 -6 -1.66699 -10.333 -3 -13s-4.5 -4.5 -9.5 -5.5s-13.833 -1.83301 -26.5 -2.5c-10 0 -18 2.16699 -24 6.5zM264.002 556.002c0 22 -14.666 33.001 -43.999 33.001
c-2.66699 0 -4.33398 -0.5 -5.00098 -1.5s-1 -3.16699 -1 -6.5c-1.33301 -26.667 -2 -46.334 -2 -59.001c3.33301 0 7.33301 -0.333008 12 -1s9.66699 -1 15 -1c16.667 6 25 18 25 36z" />
    <glyph glyph-name="macron" unicode="&#xaf;" horiz-adv-x="398" 
d="M50 581l13.998 73.999l154 -1c20.667 0 44.834 0.833008 72.501 2.5s45.834 2.83398 54.501 3.50098l8 -14l-12 -75l-141 -1l-139 -1z" />
    <glyph glyph-name="degree" unicode="&#xb0;" horiz-adv-x="302" 
d="M86 410.5c-20 11.667 -35.833 27.5 -47.5 47.5s-17.5 41.667 -17.5 65c0 24 5.83301 46 17.5 66s27.5 35.833 47.5 47.5s41.667 17.5 65 17.5s45 -5.83301 65 -17.5s35.833 -27.5 47.5 -47.5s17.5 -42 17.5 -66c0 -23.333 -5.83301 -45 -17.5 -65
s-27.5 -35.833 -47.5 -47.5s-41.667 -17.5 -65 -17.5s-45 5.83301 -65 17.5zM203 471c14 14 21 31.333 21 52s-7 38.167 -21 52.5s-31.333 21.5 -52 21.5s-38 -7.16699 -52 -21.5s-21 -31.833 -21 -52.5s7 -38 21 -52s31.333 -21 52 -21s38 7 52 21z" />
    <glyph glyph-name="plusminus" unicode="&#xb1;" horiz-adv-x="506" 
d="M202 54l1 172c-42 -0.666992 -79.667 -1 -113 -1h-66l-7 11l14 87l172 -1l1 176l87 10l12 -6c-0.666992 -11.333 -1.66699 -36 -3 -74s-2.33301 -73.333 -3 -106c41.333 0.666992 79.5 1.66699 114.5 3s58.5 2.33301 70.5 3l7 -12l-10 -89l-182 -1l1 -165l-85 -14z
M24 -84l11 75l232 -1c30 0 71.667 0.666992 125 2c23.333 0 42 0.333008 56 1s22.667 1 26 1l8 -14l-11 -76l-439 -1z" />
    <glyph glyph-name="uni00B2" unicode="&#xb2;" horiz-adv-x="351" 
d="M102 467c26.667 31.333 46.334 58.002 59.001 80.002s19 41 19 57c0 25.333 -14.333 38 -43 38c-32 0 -60.667 -17.667 -86 -53h-10l-13 61c16 23.333 36.833 42.166 62.5 56.499s50.834 21.5 75.501 21.5c36 0 65 -8.5 87 -25.5s33 -39.5 33 -67.5s-10 -58.333 -30 -91
s-55 -75.667 -105 -129l3 -5h59c19.333 0 33.166 4 41.499 12s14.5 23.333 18.5 46l60 5c-2 -8.66699 -5.16699 -26.834 -9.5 -54.501s-7.5 -52.834 -9.5 -75.501l-11 -9c-16.667 0.666992 -50.834 1.83398 -102.501 3.50098s-91.167 2.5 -118.5 2.5l-54 -5l-6 46z" />
    <glyph glyph-name="uni00B3" unicode="&#xb3;" horiz-adv-x="309" 
d="M38 348.5c-8.66699 11 -13.668 30.166 -15.001 57.499l11 12c16 -6.66699 35.333 -10 58 -10c24 0 43.667 4.66699 59 14s23 21.333 23 36c0 16 -7.16699 27.667 -21.5 35s-37.166 11 -68.499 11l-7 8l-6 47l44 9c14 6 25 14 33 24s12 21 12 33
c0 9.33301 -3.33301 17 -10 23s-15.334 9 -26.001 9c-21.333 0 -45.333 -9 -72 -27h-8l-17 53c14.667 10.667 34.834 20.834 60.501 30.501s48.5 14.5 68.5 14.5c30.667 0 55.5 -7.16699 74.5 -21.5s28.5 -33.166 28.5 -56.499c0 -18.667 -6.66699 -35.834 -20 -51.501
s-31.333 -27.834 -54 -36.501v-7c32 -9.33301 55.5 -21.666 70.5 -36.999s22.5 -34 22.5 -56c0 -21.333 -9.5 -42 -28.5 -62s-43.833 -36.333 -74.5 -49s-62 -19 -94 -19c-20 0 -34.333 5.5 -43 16.5z" />
    <glyph glyph-name="acute" unicode="&#xb4;" horiz-adv-x="398" 
d="M146 525l-31 37l99.5 104.5l63.5 69.5h13l56 -67l-1 -13l-72 -50.5c-37.333 -26.333 -75 -54.5 -113 -84.5z" />
    <glyph glyph-name="uni00B5" unicode="&#xb5;" horiz-adv-x="710" 
d="M189 330l-8.00293 -0.00292969c-1.33301 -24 -3.66602 -63.667 -6.99902 -119s-5.66602 -98.666 -6.99902 -129.999c0 -8.66699 2.16699 -15 6.5 -19s11.166 -6 20.499 -6h26l5 -4l-8 -55c-8 0 -22.667 0.5 -44 1.5s-41 1.5 -59 1.5c-14 0 -30.167 -0.833008 -48.5 -2.5
s-30.5 -2.83398 -36.5 -3.50098l5 57c16 1.33301 27.833 6.16602 35.5 14.499s12.167 21.833 13.5 40.5c4.66699 35.333 11.167 92.333 19.5 171s12.5 123 12.5 133c0 14 -3.66699 23.167 -11 27.5s-23.666 7.5 -48.999 9.5l-5 6l8 52
c8.66699 -0.666992 23.834 -1.5 45.501 -2.5s42.5 -1.5 62.5 -1.5c20.667 0 40.5 0.333008 59.5 1s31.833 1.33398 38.5 2.00098c18.667 -66 37.5 -128.5 56.5 -187.5s31.5 -96.833 37.5 -113.5h8l39 113l61 185c8.66699 0.666992 16.834 0.833984 24.501 0.500977
s14.5 -0.5 20.5 -0.5c7.33301 -0.666992 19.333 -1 36 -1c13.333 0 23.333 0.333008 30 1c18 0.666992 34.833 1.5 50.5 2.5s26.167 1.83301 31.5 2.5l4 -3l-6 -54c-22.667 -1.33301 -38 -4.83301 -46 -10.5s-12 -15.834 -12 -30.501c0 -18.667 2.16699 -59.167 6.5 -121.5
s8.5 -115.833 12.5 -160.5c3.33301 -27.333 7.66602 -45.833 12.999 -55.5s14.333 -14.5 27 -14.5l23 1l4 -5l-7 -54c-6 0 -17.167 0.333008 -33.5 1s-33.833 1 -52.5 1c-19.333 -0.666992 -42.166 -1.5 -68.499 -2.5s-45.833 -2.16699 -58.5 -3.5l6 57
c16.667 2 28.5 5.83301 35.5 11.5s10.5 14.834 10.5 27.501s-2 50.334 -6 113.001l-8 127h-8c-12 -29.333 -29.167 -75.166 -51.5 -137.499l-67.5 -196.5l-68 -7c-54.667 169.333 -94.334 283 -119.001 341z" />
    <glyph glyph-name="paragraph" unicode="&#xb6;" horiz-adv-x="567" 
d="M126.5 -73.5c-27.667 17.667 -41.499 40.832 -41.499 69.499c0 16 4.16699 34.333 12.5 55s18.166 38.334 29.499 53.001h16c2 -41.333 11.833 -73.333 29.5 -96s40.167 -34 67.5 -34c24 0 42.5 4.83301 55.5 14.5s22.167 24.834 27.5 45.501s8 49.667 8 87v442
c0 6.66699 -1.5 10.834 -4.5 12.501s-10.5 2.5 -22.5 2.5c-26.667 0 -46.834 -12.667 -60.501 -38s-20.5 -60.666 -20.5 -105.999c0 -44 5 -81.167 15 -111.5s26.667 -61.5 50 -93.5v-24c-77.333 3.33301 -140.5 25 -189.5 65s-73.5 95 -73.5 165
c0 39.333 9.5 75.166 28.5 107.499s45.667 57.666 80 75.999s73.5 27.5 117.5 27.5c20.667 0 49 -0.666992 85 -2c30.667 -1.33301 50.334 -2 59.001 -2c24.667 0 51.667 0.5 81 1.5s49.666 1.5 60.999 1.5l-6 -61l-2 -4c-24.667 -1.33301 -41.167 -5 -49.5 -11
s-13.166 -17.667 -14.499 -35c-3.33301 -23.333 -6 -76.333 -8 -159s-3 -151 -3 -205c0 -80.667 -19.667 -145.834 -59 -195.501s-96 -74.5 -170 -74.5c-38 0 -70.833 8.83301 -98.5 26.5z" />
    <glyph glyph-name="periodcentered" unicode="&#xb7;" horiz-adv-x="238" 
d="M61 182c-12.667 13.333 -19 31.333 -19 54c0 24 7.33301 43.5 22 58.5s34 22.5 58 22.5c23.333 0 41.5 -6.66699 54.5 -20s19.5 -31.333 19.5 -54c0 -24 -7.33301 -43.5 -22 -58.5s-34 -22.5 -58 -22.5s-42.333 6.66699 -55 20z" />
    <glyph glyph-name="cedilla" unicode="&#xb8;" horiz-adv-x="398" 
d="M114.5 -225c-16.333 8 -24.499 18.334 -24.499 31.001c0 6.66699 3.83301 16.167 11.5 28.5s15.834 23.5 24.501 33.5h9c0.666992 -18 5.66699 -31.833 15 -41.5s21.666 -14.5 36.999 -14.5c12 0 21.833 2.83301 29.5 8.5s11.5 13.167 11.5 22.5c0 10 -8 21 -24 33
s-36.667 24.667 -62 38l32 114h51l-21 -73c28 -16 51 -31.5 69 -46.5s27 -31.5 27 -49.5c0 -17.333 -6.33301 -33.333 -19 -48s-29.334 -26.334 -50.001 -35.001s-42 -13 -64 -13c-18.667 0 -36.167 4 -52.5 12z" />
    <glyph glyph-name="uni00B9" unicode="&#xb9;" horiz-adv-x="264" 
d="M31 379c20.667 1.33301 35.6689 5.49805 45.002 12.498s14 18.5 14 34.5v198c0 14.667 -2.33301 24.334 -7 29.001s-13.334 7 -26.001 7c-6.66699 0 -13.167 -0.333008 -19.5 -1s-10.5 -1 -12.5 -1l-5 5l4 42l83 10c34 4 58.833 7.16699 74.5 9.5s23.834 3.5 24.501 3.5
l8 -23c-7.33301 -5.33301 -12.833 -11.666 -16.5 -18.999s-6.83398 -17.333 -9.50098 -30c-2 -20 -3.66699 -51.833 -5 -95.5s-2 -86.834 -2 -129.501c0 -15.333 2 -26.333 6 -33s11.333 -10 22 -10c8 0 14.667 0.166992 20 0.5s9 0.5 11 0.5l2 -3l-8 -49
c-6.66699 0.666992 -19.667 1.33398 -39 2.00098s-39 1 -59 1c-18.667 0 -39.834 -1 -63.501 -3s-39.167 -3.33301 -46.5 -4z" />
    <glyph glyph-name="ordmasculine" unicode="&#xba;" horiz-adv-x="353" 
d="M62.5 373c-26.333 27.333 -39.5 64 -39.5 110c0 50.667 14.833 91.167 44.5 121.5s69.167 45.5 118.5 45.5c45.333 0 80.666 -13.333 105.999 -40s38 -63.667 38 -111c0 -50.667 -14.667 -91.167 -44 -121.5s-68.666 -45.5 -117.999 -45.5
c-44 0 -79.167 13.667 -105.5 41zM215 408c8 12.667 12 32.333 12 59c0 41.333 -4.5 71.5 -13.5 90.5s-22.833 28.5 -41.5 28.5c-16 0 -27.833 -6.16699 -35.5 -18.5s-11.5 -31.833 -11.5 -58.5c0 -42 4.5 -72.5 13.5 -91.5s22.5 -28.5 40.5 -28.5c16 0 28 6.33301 36 19z
" />
    <glyph glyph-name="guillemotright" unicode="&#xbb;" horiz-adv-x="449" 
d="M222 68l-3 16.001c10.667 15.333 27.667 42 51 80l39 61l-42 68l-48 77l3 15l41 25c30 -34 62.167 -68.5 96.5 -103.5s56.833 -57.5 67.5 -67.5v-20l-67.5 -69.5c-34.333 -35.667 -66.5 -70.834 -96.5 -105.501zM38 68.001l-3 16.001c10.667 15.333 27.667 42 51 80
l39 61l-42 68l-48 77l3 15l41 25c30 -34 62.167 -68.5 96.5 -103.5s56.833 -57.5 67.5 -67.5v-20l-67.5 -69.5c-34.333 -35.667 -66.5 -70.834 -96.5 -105.501z" />
    <glyph glyph-name="onequarter" unicode="&#xbc;" horiz-adv-x="757" 
d="M31 300c20.667 1.33301 35.6689 5.49805 45.002 12.498s14 18.5 14 34.5v198c0 14.667 -2.33301 24.334 -7 29.001s-13.334 7 -26.001 7c-6.66699 0 -13.167 -0.333008 -19.5 -1s-10.5 -1 -12.5 -1l-5 5l4 42l83 10c34 4 58.833 7.16699 74.5 9.5s23.834 3.5 24.501 3.5
l8 -23c-7.33301 -5.33301 -12.833 -11.666 -16.5 -18.999s-6.83398 -17.333 -9.50098 -30c-2 -20 -3.66699 -51.833 -5 -95.5s-2 -86.834 -2 -129.501c0 -15.333 2 -26.333 6 -33s11.333 -10 22 -10c8 0 14.667 0.166992 20 0.5s9 0.5 11 0.5l2 -3l-8 -49
c-6.66699 0.666992 -19.667 1.33398 -39 2.00098s-39 1 -59 1c-18.667 0 -39.834 -1 -63.501 -3s-39.167 -3.33301 -46.5 -4zM99.002 -67.002l-6 14l87.5 132l121.5 186l261 413l60 -24l8 -19l-119.5 -181.5l-146.5 -225.5l-127 -201l-76 -120zM582.002 -1.00195
c0.666992 6 1.33008 17.8311 1.99707 35.498s1.33398 37.834 2.00098 60.501l-155 2l2 51l170 238l5 2l69 -8v-220h51l6 -9l-7 -60l-49 1c0.666992 -21.333 1.33398 -39.666 2.00098 -54.999s1.33398 -25.333 2.00098 -30l-6 -7l-89 -7zM585.998 159.996v105h-7l-72 -105h79
z" />
    <glyph glyph-name="onehalf" unicode="&#xbd;" horiz-adv-x="787" 
d="M31 300c20.667 1.33301 35.6689 5.49805 45.002 12.498s14 18.5 14 34.5v198c0 14.667 -2.33301 24.334 -7 29.001s-13.334 7 -26.001 7c-6.66699 0 -13.167 -0.333008 -19.5 -1s-10.5 -1 -12.5 -1l-5 5l4 42l83 10c34 4 58.833 7.16699 74.5 9.5s23.834 3.5 24.501 3.5
l8 -23c-7.33301 -5.33301 -12.833 -11.666 -16.5 -18.999s-6.83398 -17.333 -9.50098 -30c-2 -20 -3.66699 -51.833 -5 -95.5s-2 -86.834 -2 -129.501c0 -15.333 2 -26.333 6 -33s11.333 -10 22 -10c8 0 14.667 0.166992 20 0.5s9 0.5 11 0.5l2 -3l-8 -49
c-6.66699 0.666992 -19.667 1.33398 -39 2.00098s-39 1 -59 1c-18.667 0 -39.834 -1 -63.501 -3s-39.167 -3.33301 -46.5 -4zM99.002 -67.002l-6 14l87.5 132l121.5 186l261 413l60 -24l8 -19l-119.5 -181.5l-146.5 -225.5l-127 -201l-76 -120zM538.002 126.998
c26.667 31.333 46.334 57.835 59.001 79.502s19 40.5 19 56.5c0 26 -14.333 39 -43 39c-31.333 0 -60 -18 -86 -54h-10l-13 62c16 23.333 36.833 42.166 62.5 56.499s50.834 21.5 75.501 21.5c36 0 65 -8.5 87 -25.5s33 -39.5 33 -67.5s-10 -58.333 -30 -91
s-55 -75.667 -105 -129l3 -6h59c19.333 0 33.166 4.16699 41.499 12.5s14.5 23.833 18.5 46.5l60 5c-2 -8.66699 -5.16699 -26.834 -9.5 -54.501s-7.5 -52.834 -9.5 -75.501l-11 -9c-16.667 0.666992 -50.834 1.83398 -102.501 3.50098s-91.167 2.5 -118.5 2.5l-54 -6l-6 47
z" />
    <glyph glyph-name="threequarters" unicode="&#xbe;" horiz-adv-x="758" 
d="M38 269.5c-8.66699 11 -13.668 30.166 -15.001 57.499l11 12c16 -6.66699 35.333 -10 58 -10c24 0 43.667 4.66699 59 14s23 21.333 23 36c0 16 -7.16699 27.667 -21.5 35s-37.166 11 -68.499 11l-7 8l-6 47l44 9c14 6 25 14 33 24s12 21 12 33
c0 9.33301 -3.33301 17 -10 23s-15.334 9 -26.001 9c-22 0 -46 -9.33301 -72 -28h-8l-17 54c14.667 10.667 34.834 20.834 60.501 30.501s48.5 14.5 68.5 14.5c30.667 0 55.5 -7.16699 74.5 -21.5s28.5 -33.166 28.5 -56.499c0 -18.667 -6.66699 -35.834 -20 -51.501
s-31.333 -27.834 -54 -36.501v-7c32 -9.33301 55.5 -21.666 70.5 -36.999s22.5 -34 22.5 -56c0 -21.333 -9.5 -42 -28.5 -62s-43.833 -36.333 -74.5 -49s-62 -19 -94 -19c-20 0 -34.333 5.5 -43 16.5zM98.999 -67.001l-6 14l87.5 132l121.5 186l261 413l60 -24l8 -19
l-119.5 -181.5l-146.5 -225.5l-127 -201l-76 -120zM581.999 -1.00098c0.666992 6 1.33008 17.8311 1.99707 35.498s1.33398 37.834 2.00098 60.501l-155 2l2 51l170 238l5 2l69 -8v-220h51l6 -9l-7 -60l-49 1c0.666992 -21.333 1.33398 -39.666 2.00098 -54.999
s1.33398 -25.333 2.00098 -30l-6 -7l-89 -7zM585.995 159.997v105h-7l-72 -105h79z" />
    <glyph glyph-name="questiondown" unicode="&#xbf;" horiz-adv-x="309" 
d="M230.5 493c12.333 -11.333 18.498 -27.001 18.498 -47.001c0 -22.667 -6.66699 -40.5 -20 -53.5s-31.333 -19.833 -54 -20.5c-21.333 0 -38.166 5.83301 -50.499 17.5s-18.5 27.834 -18.5 48.501c0 22 6.83301 39.5 20.5 52.5s31.834 19.5 54.501 19.5
c20.667 0 37.167 -5.66699 49.5 -17zM226.998 336.999l18.999 -88.999l-1 -11l-90 -49c-13.333 -7.33301 -22.833 -14.5 -28.5 -21.5s-8.5 -15.167 -8.5 -24.5c0 -18 11.833 -32 35.5 -42s63.5 -18 119.5 -24l5 -10l-38 -71l-10 -5
c-65.333 1.33301 -118.333 14.166 -159 38.499s-61 55.5 -61 93.5c0 25.333 9.83301 48 29.5 68s54.834 43 105.501 69l3 5l-12 55l5 9l76 14z" />
    <glyph glyph-name="Agrave" unicode="&#xc0;" horiz-adv-x="625" 
d="M331 0l5.00098 59c22.667 2 39.167 4.16699 49.5 6.5s17.5 5.66602 21.5 9.99902s6 10.833 6 19.5c0 8 -1.66699 19.667 -5 35l-21 77c-34.667 1.33301 -65.334 2 -92.001 2c-12 0 -37 -1.66699 -75 -5l-21 -2l-25 -77c-4 -14.667 -6 -25 -6 -31
c0 -12 3.5 -20.333 10.5 -25s19.167 -7 36.5 -7h43l5 -7l-7 -61c-9.33301 0.666992 -29.333 1.83398 -60 3.50098s-59.334 2.5 -86.001 2.5c-28 0 -53.167 -0.333008 -75.5 -1s-37.166 -1.33398 -44.499 -2.00098l7 65c15.333 2.66699 28 9 38 19s19.333 26.333 28 49
l179 507l153 16l11 -5l62.5 -233.5c31.667 -117.667 58.834 -212.167 81.501 -283.5c7.33301 -24 16.666 -41 27.999 -51s28.333 -16 51 -18l4 -7l-7 -58c-8.66699 0.666992 -25 1.33398 -49 2.00098s-48.333 1 -73 1c-35.333 -0 -69.833 -1.16699 -103.5 -3.5l-64.5 -4.5z
M295.001 286c7.33301 0 32 1 74 3l-59 223h-13l-74 -226h72zM258.501 739.5c-45.667 12.333 -75.167 20.1689 -88.5 23.502l-5 13l25 75l12 5c12.667 -6.66699 41.5 -20.834 86.5 -42.501l134.5 -62.5l-13 -45l-12 -8c-47.333 15.333 -93.833 29.166 -139.5 41.499z" />
    <glyph glyph-name="Aacute" unicode="&#xc1;" horiz-adv-x="625" 
d="M331 0l5.00098 59c22.667 2 39.167 4.16699 49.5 6.5s17.5 5.66602 21.5 9.99902s6 10.833 6 19.5c0 8 -1.66699 19.667 -5 35l-21 77c-34.667 1.33301 -65.334 2 -92.001 2c-12 0 -37 -1.66699 -75 -5l-21 -2l-25 -77c-4 -14.667 -6 -25 -6 -31
c0 -12 3.5 -20.333 10.5 -25s19.167 -7 36.5 -7h43l5 -7l-7 -61c-9.33301 0.666992 -29.333 1.83398 -60 3.50098s-59.334 2.5 -86.001 2.5c-28 0 -53.167 -0.333008 -75.5 -1s-37.166 -1.33398 -44.499 -2.00098l7 65c15.333 2.66699 28 9 38 19s19.333 26.333 28 49
l179 507l153 16l11 -5l62.5 -233.5c31.667 -117.667 58.834 -212.167 81.501 -283.5c7.33301 -24 16.666 -41 27.999 -51s28.333 -16 51 -18l4 -7l-7 -58c-8.66699 0.666992 -25 1.33398 -49 2.00098s-48.333 1 -73 1c-35.333 -0 -69.833 -1.16699 -103.5 -3.5l-64.5 -4.5z
M295.001 286c7.33301 0 32 1 74 3l-59 223h-13l-74 -226h72zM244.001 706l-13 44.998l134.5 62.5l87.5 42.5l12 -5l25 -75l-5 -13c-13.333 -3.33301 -42.833 -11.166 -88.5 -23.499s-92.167 -26.166 -139.5 -41.499z" />
    <glyph glyph-name="Acircumflex" unicode="&#xc2;" horiz-adv-x="625" 
d="M331 0l5.00098 59c22.667 2 39.167 4.16699 49.5 6.5s17.5 5.66602 21.5 9.99902s6 10.833 6 19.5c0 8 -1.66699 19.667 -5 35l-21 77c-34.667 1.33301 -65.334 2 -92.001 2c-12 0 -37 -1.66699 -75 -5l-21 -2l-25 -77c-4 -14.667 -6 -25 -6 -31
c0 -12 3.5 -20.333 10.5 -25s19.167 -7 36.5 -7h43l5 -7l-7 -61c-9.33301 0.666992 -29.333 1.83398 -60 3.50098s-59.334 2.5 -86.001 2.5c-28 0 -53.167 -0.333008 -75.5 -1s-37.166 -1.33398 -44.499 -2.00098l7 65c15.333 2.66699 28 9 38 19s19.333 26.333 28 49
l179 507l153 16l11 -5l62.5 -233.5c31.667 -117.667 58.834 -212.167 81.501 -283.5c7.33301 -24 16.666 -41 27.999 -51s28.333 -16 51 -18l4 -7l-7 -58c-8.66699 0.666992 -25 1.33398 -49 2.00098s-48.333 1 -73 1c-35.333 -0 -69.833 -1.16699 -103.5 -3.5l-64.5 -4.5z
M295.001 286c7.33301 0 32 1 74 3l-59 223h-13l-74 -226h72zM177.001 711l-24 39.998l93.5 72.5l61.5 50.5h20c0 0.666992 13.333 -9.66602 40 -30.999c40.667 -34 79 -64.667 115 -92l-23 -40l-15 -4c-50 24.667 -92.333 44.334 -127 59.001
c-36.667 -15.333 -78.667 -35 -126 -59z" />
    <glyph glyph-name="Atilde" unicode="&#xc3;" horiz-adv-x="625" 
d="M331 0l5.00098 59c22.667 2 39.167 4.16699 49.5 6.5s17.5 5.66602 21.5 9.99902s6 10.833 6 19.5c0 8 -1.66699 19.667 -5 35l-21 77c-34.667 1.33301 -65.334 2 -92.001 2c-12 0 -37 -1.66699 -75 -5l-21 -2l-25 -77c-4 -14.667 -6 -25 -6 -31
c0 -12 3.5 -20.333 10.5 -25s19.167 -7 36.5 -7h43l5 -7l-7 -61c-9.33301 0.666992 -29.333 1.83398 -60 3.50098s-59.334 2.5 -86.001 2.5c-28 0 -53.167 -0.333008 -75.5 -1s-37.166 -1.33398 -44.499 -2.00098l7 65c15.333 2.66699 28 9 38 19s19.333 26.333 28 49
l179 507l153 16l11 -5l62.5 -233.5c31.667 -117.667 58.834 -212.167 81.501 -283.5c7.33301 -24 16.666 -41 27.999 -51s28.333 -16 51 -18l4 -7l-7 -58c-8.66699 0.666992 -25 1.33398 -49 2.00098s-48.333 1 -73 1c-35.333 -0 -69.833 -1.16699 -103.5 -3.5l-64.5 -4.5z
M295.001 286c7.33301 0 32 1 74 3l-59 223h-13l-74 -226h72zM140.001 724l-0.000976562 10l78 95l16 4c8 0 19.5 -1.83301 34.5 -5.5l45.5 -11.5c3.33301 -0.666992 13.833 -3.5 31.5 -8.5s30.5 -7.5 38.5 -7.5c6.66699 0 14.834 3.83301 24.501 11.5
s18.334 15.5 26.001 23.5s12.5 13.333 14.5 16h10l39 -36v-10l-78 -95l-17 -4c-12.667 0 -39.667 6 -81 18c-34.667 10 -57.334 15 -68.001 15c-7.33301 0 -15.833 -3.83301 -25.5 -11.5s-18.167 -15.5 -25.5 -23.5s-12 -13.333 -14 -16h-11z" />
    <glyph glyph-name="Adieresis" unicode="&#xc4;" horiz-adv-x="625" 
d="M331 0l5.00098 59c22.667 2 39.167 4.16699 49.5 6.5s17.5 5.66602 21.5 9.99902s6 10.833 6 19.5c0 8 -1.66699 19.667 -5 35l-21 77c-34.667 1.33301 -65.334 2 -92.001 2c-12 0 -37 -1.66699 -75 -5l-21 -2l-25 -77c-4 -14.667 -6 -25 -6 -31
c0 -12 3.5 -20.333 10.5 -25s19.167 -7 36.5 -7h43l5 -7l-7 -61c-9.33301 0.666992 -29.333 1.83398 -60 3.50098s-59.334 2.5 -86.001 2.5c-28 0 -53.167 -0.333008 -75.5 -1s-37.166 -1.33398 -44.499 -2.00098l7 65c15.333 2.66699 28 9 38 19s19.333 26.333 28 49
l179 507l153 16l11 -5l62.5 -233.5c31.667 -117.667 58.834 -212.167 81.501 -283.5c7.33301 -24 16.666 -41 27.999 -51s28.333 -16 51 -18l4 -7l-7 -58c-8.66699 0.666992 -25 1.33398 -49 2.00098s-48.333 1 -73 1c-35.333 -0 -69.833 -1.16699 -103.5 -3.5l-64.5 -4.5z
M295.001 286c7.33301 0 32 1 74 3l-59 223h-13l-74 -226h72zM181.501 717.5c-10.333 11 -15.501 25.5 -15.501 43.5c0 19.333 6.16699 35.333 18.5 48s28.5 19 48.5 19c18 0 32.167 -5.5 42.5 -16.5s15.5 -25.5 15.5 -43.5c0 -19.333 -6.16699 -35.333 -18.5 -48
s-28.166 -19 -47.499 -19c-18.667 0 -33.167 5.5 -43.5 16.5zM359.5 717.5c-10.333 11 -15.5 25.5 -15.5 43.5c0 19.333 6.16699 35.333 18.5 48s28.166 19 47.499 19c18.667 0 33.167 -5.5 43.5 -16.5s15.5 -25.5 15.5 -43.5c0 -19.333 -6.16699 -35.333 -18.5 -48
s-28.166 -19 -47.499 -19c-18.667 0 -33.167 5.5 -43.5 16.5z" />
    <glyph glyph-name="Aring" unicode="&#xc5;" horiz-adv-x="625" 
d="M331 0l5.00098 59c22.667 2 39.167 4.16699 49.5 6.5s17.5 5.66602 21.5 9.99902s6 10.833 6 19.5c0 8 -1.66699 19.667 -5 35l-21 77c-34.667 1.33301 -65.334 2 -92.001 2c-12 0 -37 -1.66699 -75 -5l-21 -2l-25 -77c-4 -14.667 -6 -25 -6 -31
c0 -12 3.5 -20.333 10.5 -25s19.167 -7 36.5 -7h43l5 -7l-7 -61c-9.33301 0.666992 -29.333 1.83398 -60 3.50098s-59.334 2.5 -86.001 2.5c-28 0 -53.167 -0.333008 -75.5 -1s-37.166 -1.33398 -44.499 -2.00098l7 65c15.333 2.66699 28 9 38 19s19.333 26.333 28 49
l179 507l153 16l11 -5l62.5 -233.5c31.667 -117.667 58.834 -212.167 81.501 -283.5c7.33301 -24 16.666 -41 27.999 -51s28.333 -16 51 -18l4 -7l-7 -58c-8.66699 0.666992 -25 1.33398 -49 2.00098s-48.333 1 -73 1c-35.333 -0 -69.833 -1.16699 -103.5 -3.5l-64.5 -4.5z
M295.001 286c7.33301 0 32 1 74 3l-59 223h-13l-74 -226h72zM249.001 702.5c-15.333 16.333 -23.001 38.167 -23.001 65.5s8.66699 49.833 26 67.5s40.333 26.5 69 26.5c30 0 52.333 -8.33301 67 -25s22 -37 22 -61c0 -26.667 -8.66699 -49.667 -26 -69s-41 -29 -71 -29
c-27.333 0 -48.666 8.16699 -63.999 24.5zM348 737.501c8 5 12 14.501 12 28.501c0 13.333 -4 23.666 -12 30.999s-19.333 11 -34 11c-12.667 0 -22.5 -3.16699 -29.5 -9.5s-10.5 -14.833 -10.5 -25.5c0 -14.667 4.83301 -25.5 14.5 -32.5s20.167 -10.5 31.5 -10.5
c10.667 0 20 2.5 28 7.5z" />
    <glyph glyph-name="AE" unicode="&#xc6;" horiz-adv-x="868" 
d="M371 67c12 3.33301 20.165 7.83887 24.498 13.5059s6.5 14.167 6.5 25.5c0 8.66699 -1.33301 25.667 -4 51l-12 93l-89 -10l-84 -16l-46 -99c-8 -16.667 -12 -29 -12 -37c0 -10 3.83301 -16.833 11.5 -20.5s22.167 -5.5 43.5 -5.5l35 -4l-6 -64
c-12 1.33301 -36 2.66602 -72 3.99902s-67 2 -93 2c-16 0 -31 -0.333008 -45 -1s-23.333 -1.33398 -28 -2.00098l-6 58c6.66699 1.33301 15.834 8.83301 27.501 22.5s22.834 31.167 33.501 52.5l210 427c-1.33301 8 -4 13.5 -8 16.5s-9.66699 4.5 -17 4.5
c-6.66699 0 -13 -0.333008 -19 -1s-10 -1 -12 -1l-6 9l8 60c12.667 -0.666992 40.167 -1.33398 82.5 -2.00098s93.833 -1 154.5 -1c162.667 0 269 4 319 12l7 -11c-2 -10 -5.66699 -33 -11 -69s-9.33301 -73.333 -12 -112l-88 -6c0 2.66699 0.333008 8 1 16s1 16 1 24
c0 20 -3 34.167 -9 42.5s-17.667 14 -35 17s-46.333 4.5 -87 4.5c-22.667 0 -37.167 -1.66699 -43.5 -5s-9.5 -11 -9.5 -23l25 -184l98 12l96 19l10 -11l-13 -81l-90 -7l-89 -11l20 -125c4 -24.667 11.5 -42.167 22.5 -52.5s27.167 -15.5 48.5 -15.5c40 0 69 2.66699 87 8
s31 15.666 39 30.999s14.333 40.666 19 75.999l82 7l7 -9c-2 -10.667 -6 -34.334 -12 -71.001s-11 -74.667 -15 -114l-10 -11l-45 1c-116 4 -198.333 6 -247 6h-38c-34 -0 -66.667 -1.16699 -98 -3.5l-60 -4.5l-5 8l4 59c23.333 2 41 4.66699 53 8zM377.998 328.006l-23 183
h-15l-90 -195l65 5z" />
    <glyph glyph-name="Ccedilla" unicode="&#xc7;" horiz-adv-x="616" 
d="M168 26c-44.667 25.333 -79.001 61.666 -103.001 108.999s-36 103.333 -36 168c0 70.667 14.333 132.334 43 185.001s69.5 93.5 122.5 122.5s114.5 43.5 184.5 43.5c24.667 0 51.167 -1.83301 79.5 -5.5s52.5 -7.5 72.5 -11.5s32.667 -6.66699 38 -8l6 -13
c-1.33301 -4.66699 -3.66602 -15.334 -6.99902 -32.001s-7 -39 -11 -67s-7 -57.667 -9 -89l-95 -6c0 2.66699 0.333008 8.83398 1 18.501s1 20.834 1 33.501c0 29.333 -9 50.833 -27 64.5s-46.333 20.5 -85 20.5c-52.667 0 -92.834 -18.667 -120.501 -56
s-41.5 -92.333 -41.5 -165c0 -82 14.833 -145.667 44.5 -191s71.167 -68 124.5 -68c36.667 0 65.334 11.167 86.001 33.5s35 57.833 43 106.5l96 6c-2 -11.333 -5.5 -36.333 -10.5 -75s-8.16699 -75.334 -9.5 -110.001l-10 -12c0 -0.666992 -11.167 -4.5 -33.5 -11.5
s-49.666 -13.5 -81.999 -19.5s-66.833 -9 -103.5 -9c-60.667 0 -113.334 12.667 -158.001 38zM253.499 -225c-16.333 8 -24.499 18.334 -24.499 31.001c0 6.66699 3.83301 16.167 11.5 28.5s15.834 23.5 24.501 33.5h9c0.666992 -18 5.66699 -31.833 15 -41.5
s21.666 -14.5 36.999 -14.5c12 0 21.833 2.83301 29.5 8.5s11.5 13.167 11.5 22.5c0 10 -8 21 -24 33s-36.667 24.667 -62 38l32 114h51l-21 -73c28 -16 51 -31.5 69 -46.5s27 -31.5 27 -49.5c0 -17.333 -6.33301 -33.333 -19 -48s-29.334 -26.334 -50.001 -35.001
s-42 -13 -64 -13c-18.667 0 -36.167 4 -52.5 12z" />
    <glyph glyph-name="Egrave" unicode="&#xc8;" horiz-adv-x="596" 
d="M557 189c-10.667 -52 -19.6689 -113.666 -27.002 -184.999l-10 -11c-127.333 4.66699 -231 7 -311 7c-56 0 -113 -3.33301 -171 -10l7 67c28 4 47 12 57 24s15 32.667 15 62l1 381c0 22 -2 36.5 -6 43.5s-12.667 10.5 -26 10.5c-8.66699 0 -19 -0.666992 -31 -2l-6 9
l8 60h20c47.333 -2 101 -3 161 -3c148.667 0 250 4 304 12l8 -11c-5.33301 -24.667 -10.166 -54 -14.499 -88s-7.16602 -65 -8.49902 -93l-89 -6l2 40c0 20 -2.83301 34.167 -8.5 42.5s-17 14 -34 17s-45.5 4.5 -85.5 4.5c-17.333 0 -29.333 -0.666992 -36 -2
s-11.167 -4.33301 -13.5 -9s-3.83301 -12.334 -4.5 -23.001l-7 -157l94 -1c14 0 31.5 0.833008 52.5 2.5s42.167 3.83398 63.5 6.50098l8 -9l-14 -85c-8.66699 0 -15.334 0.333008 -20.001 1c-46.667 1.33301 -83.667 2 -111 2c-20.667 0 -46.334 -2 -77.001 -6l-2 -143
c0 -18.667 1.5 -32 4.5 -40s8.66699 -13.333 17 -16s22.833 -4 43.5 -4c44 0 75.833 2.5 95.5 7.5s33.834 15.167 42.501 30.5s15.334 40.666 20.001 75.999l82 7zM244.498 739.501c-45.667 12.333 -75.167 20.1689 -88.5 23.502l-5 13l25 75l12 5
c12.667 -6.66699 41.5 -20.834 86.5 -42.501l134.5 -62.5l-13 -45l-12 -8c-47.333 15.333 -93.833 29.166 -139.5 41.499z" />
    <glyph glyph-name="Eacute" unicode="&#xc9;" horiz-adv-x="596" 
d="M557 189c-10.667 -52 -19.6689 -113.666 -27.002 -184.999l-10 -11c-127.333 4.66699 -231 7 -311 7c-56 0 -113 -3.33301 -171 -10l7 67c28 4 47 12 57 24s15 32.667 15 62l1 381c0 22 -2 36.5 -6 43.5s-12.667 10.5 -26 10.5c-8.66699 0 -19 -0.666992 -31 -2l-6 9
l8 60h20c47.333 -2 101 -3 161 -3c148.667 0 250 4 304 12l8 -11c-5.33301 -24.667 -10.166 -54 -14.499 -88s-7.16602 -65 -8.49902 -93l-89 -6l2 40c0 20 -2.83301 34.167 -8.5 42.5s-17 14 -34 17s-45.5 4.5 -85.5 4.5c-17.333 0 -29.333 -0.666992 -36 -2
s-11.167 -4.33301 -13.5 -9s-3.83301 -12.334 -4.5 -23.001l-7 -157l94 -1c14 0 31.5 0.833008 52.5 2.5s42.167 3.83398 63.5 6.50098l8 -9l-14 -85c-8.66699 0 -15.334 0.333008 -20.001 1c-46.667 1.33301 -83.667 2 -111 2c-20.667 0 -46.334 -2 -77.001 -6l-2 -143
c0 -18.667 1.5 -32 4.5 -40s8.66699 -13.333 17 -16s22.833 -4 43.5 -4c44 0 75.833 2.5 95.5 7.5s33.834 15.167 42.501 30.5s15.334 40.666 20.001 75.999l82 7zM243.998 706.001l-13 44.998l134.5 62.5l87.5 42.5l12 -5l25 -75l-5 -13
c-13.333 -3.33301 -42.833 -11.166 -88.5 -23.499s-92.167 -26.166 -139.5 -41.499z" />
    <glyph glyph-name="Ecircumflex" unicode="&#xca;" horiz-adv-x="596" 
d="M557 189c-10.667 -52 -19.6689 -113.666 -27.002 -184.999l-10 -11c-127.333 4.66699 -231 7 -311 7c-56 0 -113 -3.33301 -171 -10l7 67c28 4 47 12 57 24s15 32.667 15 62l1 381c0 22 -2 36.5 -6 43.5s-12.667 10.5 -26 10.5c-8.66699 0 -19 -0.666992 -31 -2l-6 9
l8 60h20c47.333 -2 101 -3 161 -3c148.667 0 250 4 304 12l8 -11c-5.33301 -24.667 -10.166 -54 -14.499 -88s-7.16602 -65 -8.49902 -93l-89 -6l2 40c0 20 -2.83301 34.167 -8.5 42.5s-17 14 -34 17s-45.5 4.5 -85.5 4.5c-17.333 0 -29.333 -0.666992 -36 -2
s-11.167 -4.33301 -13.5 -9s-3.83301 -12.334 -4.5 -23.001l-7 -157l94 -1c14 0 31.5 0.833008 52.5 2.5s42.167 3.83398 63.5 6.50098l8 -9l-14 -85c-8.66699 0 -15.334 0.333008 -20.001 1c-46.667 1.33301 -83.667 2 -111 2c-20.667 0 -46.334 -2 -77.001 -6l-2 -143
c0 -18.667 1.5 -32 4.5 -40s8.66699 -13.333 17 -16s22.833 -4 43.5 -4c44 0 75.833 2.5 95.5 7.5s33.834 15.167 42.501 30.5s15.334 40.666 20.001 75.999l82 7zM176.998 711.001l-24 39.998l93.5 72.5l61.5 50.5h20c0 0.666992 13.333 -9.66602 40 -30.999
c40.667 -34 79 -64.667 115 -92l-23 -40l-15 -4c-50 24.667 -92.333 44.334 -127 59.001c-36.667 -15.333 -78.667 -35 -126 -59z" />
    <glyph glyph-name="Edieresis" unicode="&#xcb;" horiz-adv-x="596" 
d="M557 189c-10.667 -52 -19.6689 -113.666 -27.002 -184.999l-10 -11c-127.333 4.66699 -231 7 -311 7c-56 0 -113 -3.33301 -171 -10l7 67c28 4 47 12 57 24s15 32.667 15 62l1 381c0 22 -2 36.5 -6 43.5s-12.667 10.5 -26 10.5c-8.66699 0 -19 -0.666992 -31 -2l-6 9
l8 60h20c47.333 -2 101 -3 161 -3c148.667 0 250 4 304 12l8 -11c-5.33301 -24.667 -10.166 -54 -14.499 -88s-7.16602 -65 -8.49902 -93l-89 -6l2 40c0 20 -2.83301 34.167 -8.5 42.5s-17 14 -34 17s-45.5 4.5 -85.5 4.5c-17.333 0 -29.333 -0.666992 -36 -2
s-11.167 -4.33301 -13.5 -9s-3.83301 -12.334 -4.5 -23.001l-7 -157l94 -1c14 0 31.5 0.833008 52.5 2.5s42.167 3.83398 63.5 6.50098l8 -9l-14 -85c-8.66699 0 -15.334 0.333008 -20.001 1c-46.667 1.33301 -83.667 2 -111 2c-20.667 0 -46.334 -2 -77.001 -6l-2 -143
c0 -18.667 1.5 -32 4.5 -40s8.66699 -13.333 17 -16s22.833 -4 43.5 -4c44 0 75.833 2.5 95.5 7.5s33.834 15.167 42.501 30.5s15.334 40.666 20.001 75.999l82 7zM181.498 717.501c-10.333 11 -15.501 25.5 -15.501 43.5c0 19.333 6.16699 35.333 18.5 48s28.5 19 48.5 19
c18 0 32.167 -5.5 42.5 -16.5s15.5 -25.5 15.5 -43.5c0 -19.333 -6.16699 -35.333 -18.5 -48s-28.166 -19 -47.499 -19c-18.667 0 -33.167 5.5 -43.5 16.5zM359.497 717.501c-10.333 11 -15.5 25.5 -15.5 43.5c0 19.333 6.16699 35.333 18.5 48s28.166 19 47.499 19
c18.667 0 33.167 -5.5 43.5 -16.5s15.5 -25.5 15.5 -43.5c0 -19.333 -6.16699 -35.333 -18.5 -48s-28.166 -19 -47.499 -19c-18.667 0 -33.167 5.5 -43.5 16.5z" />
    <glyph glyph-name="Igrave" unicode="&#xcc;" horiz-adv-x="365" 
d="M44 55c29.333 6 49 14.498 59 25.498s15 30.5 15 58.5v387c0 20.667 -2.33301 34.5 -7 41.5s-14.334 10.5 -29.001 10.5l-35 -1l-5 8l8 58l138 -1c22 0 68.667 2.33301 140 7l-5 -66c-25.333 -3.33301 -42.166 -8.5 -50.499 -15.5s-13.166 -19.833 -14.499 -38.5
c-8.66699 -157.333 -13 -289.666 -13 -396.999c0 -27.333 2.66699 -45.666 8 -54.999s15.666 -14 30.999 -14c7.33301 0 22 1 44 3l4 -6l-9 -63l-36 1l-111 2c-30.667 0 -76.667 -3 -138 -9zM105.5 734.498c-45.667 12.333 -75.167 20.1689 -88.5 23.502l-5 13l25 75l12 5
c12.667 -6.66699 41.5 -20.834 86.5 -42.501l134.5 -62.5l-13 -45l-12 -8c-47.333 15.333 -93.833 29.166 -139.5 41.499z" />
    <glyph glyph-name="Iacute" unicode="&#xcd;" horiz-adv-x="365" 
d="M44 55c29.333 6 49 14.498 59 25.498s15 30.5 15 58.5v387c0 20.667 -2.33301 34.5 -7 41.5s-14.334 10.5 -29.001 10.5l-35 -1l-5 8l8 58l138 -1c22 0 68.667 2.33301 140 7l-5 -66c-25.333 -3.33301 -42.166 -8.5 -50.499 -15.5s-13.166 -19.833 -14.499 -38.5
c-8.66699 -157.333 -13 -289.666 -13 -396.999c0 -27.333 2.66699 -45.666 8 -54.999s15.666 -14 30.999 -14c7.33301 0 22 1 44 3l4 -6l-9 -63l-36 1l-111 2c-30.667 0 -76.667 -3 -138 -9zM77 705.998l-13 44.998l134.5 62.5l87.5 42.5l12 -5l25 -75l-5 -13
c-13.333 -3.33301 -42.833 -11.166 -88.5 -23.499s-92.167 -26.166 -139.5 -41.499z" />
    <glyph glyph-name="Icircumflex" unicode="&#xce;" horiz-adv-x="365" 
d="M44 55c29.333 6 49 14.498 59 25.498s15 30.5 15 58.5v387c0 20.667 -2.33301 34.5 -7 41.5s-14.334 10.5 -29.001 10.5l-35 -1l-5 8l8 58l138 -1c22 0 68.667 2.33301 140 7l-5 -66c-25.333 -3.33301 -42.166 -8.5 -50.499 -15.5s-13.166 -19.833 -14.499 -38.5
c-8.66699 -157.333 -13 -289.666 -13 -396.999c0 -27.333 2.66699 -45.666 8 -54.999s15.666 -14 30.999 -14c7.33301 0 22 1 44 3l4 -6l-9 -63l-36 1l-111 2c-30.667 0 -76.667 -3 -138 -9zM42 710.998l-24 39.998l93.5 72.5l61.5 50.5h20
c0 0.666992 13.333 -9.66602 40 -30.999c40.667 -34 79 -64.667 115 -92l-23 -40l-15 -4c-50 24.667 -92.333 44.334 -127 59.001c-36.667 -15.333 -78.667 -35 -126 -59z" />
    <glyph glyph-name="Eth" unicode="&#xd0;" horiz-adv-x="709" 
d="M266.5 -5c-33 3.33301 -61.501 5.00195 -85.501 5.00195c-21.333 0 -45.666 -1.33301 -72.999 -4s-45.333 -4.66699 -54 -6l7 67c21.333 4 36.833 9.16699 46.5 15.5s16.334 16 20.001 29s5.5 33.167 5.5 60.5v125h-117l-8 7l10 58h115v171c0 21.333 -2 35.666 -6 42.999
s-12.333 11 -25 11c-7.33301 0 -14.166 -0.333008 -20.499 -1s-10.5 -1 -12.5 -1l-6 9l8 61c9.33301 0 26.666 -0.5 51.999 -1.5s50 -1.5 74 -1.5c28 0 58.167 0.5 90.5 1.5s54.833 1.83301 67.5 2.5c66.667 0 124.334 -12 173.001 -36s86 -58.5 112 -103.5
s39 -98.167 39 -159.5c0 -69.333 -14.833 -131.333 -44.5 -186s-70.834 -97.167 -123.501 -127.5s-112.334 -45.5 -179.001 -45.5c-10.667 1.33301 -32.5 3.66602 -65.5 6.99902zM390.999 354.002l6 -9.00195l-6 -58h-129l-3 -142c0 -20 2.5 -35.167 7.5 -45.5
s13.5 -17.5 25.5 -21.5s29.667 -6 53 -6c59.333 0 104.333 20.667 135 62s46 102 46 182c0 84.667 -18.5 146.834 -55.5 186.501s-93.5 59.5 -169.5 59.5c-10.667 0 -18 -1.66699 -22 -5s-6.33301 -9.66602 -7 -18.999l-8 -186z" />
    <glyph glyph-name="Ntilde" unicode="&#xd1;" horiz-adv-x="728" 
d="M329.5 277c-66.333 98.667 -99.499 147.331 -99.499 145.998h-9l-1 -315c0 -17.333 2.5 -29.166 7.5 -35.499s13.833 -9.5 26.5 -9.5l44 2l5 -6l-10 -63c-9.33301 0.666992 -26.666 1.5 -51.999 2.5s-50.666 1.5 -75.999 1.5c-22 0 -45.667 -1.16699 -71 -3.5l-49 -4.5
l7 66c20.667 2.66699 35.667 8.83398 45 18.501s14.333 24.5 15 44.5l12 397c0 21.333 -5.33301 36.333 -16 45s-32.334 14.667 -65.001 18l-7 9l7 57c7.33301 -0.666992 23 -1.66699 47 -3s46.333 -2 67 -2c17.333 0 35.833 0.5 55.5 1.5s32.5 1.83301 38.5 2.5l176.5 -276
c63 -94.667 94.5 -141.334 94.5 -140.001h10l-2 305c-0.666992 15.333 -3.5 26.333 -8.5 33s-13.167 10 -24.5 10l-35 -1l-3 7l7 62c9.33301 -0.666992 26.5 -1.5 51.5 -2.5s50.167 -1.5 75.5 -1.5c20 0 42.5 0.666992 67.5 2s41.5 2.33301 49.5 3l-5 -66
c-22.667 -3.33301 -38.834 -9.66602 -48.501 -18.999s-14.834 -24 -15.501 -44l-13 -532l-101 -13zM199.001 723.997l-0.000976562 10l78 95l16 4c8 0 19.5 -1.83301 34.5 -5.5l45.5 -11.5c3.33301 -0.666992 13.833 -3.5 31.5 -8.5s30.5 -7.5 38.5 -7.5
c6.66699 0 14.834 3.83301 24.501 11.5s18.334 15.5 26.001 23.5s12.5 13.333 14.5 16h10l39 -36v-10l-78 -95l-17 -4c-12.667 0 -39.667 6 -81 18c-34.667 10 -57.334 15 -68.001 15c-7.33301 0 -15.833 -3.83301 -25.5 -11.5s-18.167 -15.5 -25.5 -23.5
s-12 -13.333 -14 -16h-11z" />
    <glyph glyph-name="Ograve" unicode="&#xd2;" horiz-adv-x="675" 
d="M162.5 26.5c-43 25.667 -76.002 62.167 -99.002 109.5s-34.5 103.333 -34.5 168c0 69.333 13.667 130.333 41 183s65.833 93.667 115.5 123s106.834 44 171.501 44c60 0 111.833 -12.5 155.5 -37.5s77 -61 100 -108s34.5 -102.833 34.5 -167.5
c0 -69.333 -13.833 -130.833 -41.5 -184.5s-66.667 -95.167 -117 -124.5s-108.166 -44 -173.499 -44c-58.667 0 -109.5 12.833 -152.5 38.5zM453.498 129.5c27 37.667 40.501 90.834 40.501 159.501c0 87.333 -14.333 154.166 -43 200.499s-69.334 69.5 -122.001 69.5
c-47.333 0 -84.166 -18.833 -110.499 -56.5s-39.5 -90.834 -39.5 -159.501c0 -87.333 14.167 -154.166 42.5 -200.499s68.166 -69.5 119.499 -69.5c48 0 85.5 18.833 112.5 56.5zM261.499 739.5c-45.667 12.333 -75.167 20.1689 -88.5 23.502l-5 13l25 75l12 5
c12.667 -6.66699 41.5 -20.834 86.5 -42.501l134.5 -62.5l-13 -45l-12 -8c-47.333 15.333 -93.833 29.166 -139.5 41.499z" />
    <glyph glyph-name="Oacute" unicode="&#xd3;" horiz-adv-x="675" 
d="M162.5 26.5c-43 25.667 -76.002 62.167 -99.002 109.5s-34.5 103.333 -34.5 168c0 69.333 13.667 130.333 41 183s65.833 93.667 115.5 123s106.834 44 171.501 44c60 0 111.833 -12.5 155.5 -37.5s77 -61 100 -108s34.5 -102.833 34.5 -167.5
c0 -69.333 -13.833 -130.833 -41.5 -184.5s-66.667 -95.167 -117 -124.5s-108.166 -44 -173.499 -44c-58.667 0 -109.5 12.833 -152.5 38.5zM453.498 129.5c27 37.667 40.501 90.834 40.501 159.501c0 87.333 -14.333 154.166 -43 200.499s-69.334 69.5 -122.001 69.5
c-47.333 0 -84.166 -18.833 -110.499 -56.5s-39.5 -90.834 -39.5 -159.501c0 -87.333 14.167 -154.166 42.5 -200.499s68.166 -69.5 119.499 -69.5c48 0 85.5 18.833 112.5 56.5zM260.999 706l-13 44.998l134.5 62.5l87.5 42.5l12 -5l25 -75l-5 -13
c-13.333 -3.33301 -42.833 -11.166 -88.5 -23.499s-92.167 -26.166 -139.5 -41.499z" />
    <glyph glyph-name="Ocircumflex" unicode="&#xd4;" horiz-adv-x="675" 
d="M162.5 26.5c-43 25.667 -76.002 62.167 -99.002 109.5s-34.5 103.333 -34.5 168c0 69.333 13.667 130.333 41 183s65.833 93.667 115.5 123s106.834 44 171.501 44c60 0 111.833 -12.5 155.5 -37.5s77 -61 100 -108s34.5 -102.833 34.5 -167.5
c0 -69.333 -13.833 -130.833 -41.5 -184.5s-66.667 -95.167 -117 -124.5s-108.166 -44 -173.499 -44c-58.667 0 -109.5 12.833 -152.5 38.5zM453.498 129.5c27 37.667 40.501 90.834 40.501 159.501c0 87.333 -14.333 154.166 -43 200.499s-69.334 69.5 -122.001 69.5
c-47.333 0 -84.166 -18.833 -110.499 -56.5s-39.5 -90.834 -39.5 -159.501c0 -87.333 14.167 -154.166 42.5 -200.499s68.166 -69.5 119.499 -69.5c48 0 85.5 18.833 112.5 56.5zM193.999 711l-24 39.998l93.5 72.5l61.5 50.5h20c0 0.666992 13.333 -9.66602 40 -30.999
c40.667 -34 79 -64.667 115 -92l-23 -40l-15 -4c-50 24.667 -92.333 44.334 -127 59.001c-36.667 -15.333 -78.667 -35 -126 -59z" />
    <glyph glyph-name="Otilde" unicode="&#xd5;" horiz-adv-x="675" 
d="M162.5 26.5c-43 25.667 -76.002 62.167 -99.002 109.5s-34.5 103.333 -34.5 168c0 69.333 13.667 130.333 41 183s65.833 93.667 115.5 123s106.834 44 171.501 44c60 0 111.833 -12.5 155.5 -37.5s77 -61 100 -108s34.5 -102.833 34.5 -167.5
c0 -69.333 -13.833 -130.833 -41.5 -184.5s-66.667 -95.167 -117 -124.5s-108.166 -44 -173.499 -44c-58.667 0 -109.5 12.833 -152.5 38.5zM453.498 129.5c27 37.667 40.501 90.834 40.501 159.501c0 87.333 -14.333 154.166 -43 200.499s-69.334 69.5 -122.001 69.5
c-47.333 0 -84.166 -18.833 -110.499 -56.5s-39.5 -90.834 -39.5 -159.501c0 -87.333 14.167 -154.166 42.5 -200.499s68.166 -69.5 119.499 -69.5c48 0 85.5 18.833 112.5 56.5zM155.999 724l-0.000976562 10l78 95l16 4c8 0 19.5 -1.83301 34.5 -5.5l45.5 -11.5
c3.33301 -0.666992 13.833 -3.5 31.5 -8.5s30.5 -7.5 38.5 -7.5c6.66699 0 14.834 3.83301 24.501 11.5s18.334 15.5 26.001 23.5s12.5 13.333 14.5 16h10l39 -36v-10l-78 -95l-17 -4c-12.667 0 -39.667 6 -81 18c-34.667 10 -57.334 15 -68.001 15
c-7.33301 0 -15.833 -3.83301 -25.5 -11.5s-18.167 -15.5 -25.5 -23.5s-12 -13.333 -14 -16h-11z" />
    <glyph glyph-name="multiply" unicode="&#xd7;" horiz-adv-x="506" 
d="M114 59l-51.001 70l44.5 43.5l76.5 75.5l-131 130l3 13l72 52l125 -126l78.5 83.5l47.5 51.5l13 -5l55 -69l-127 -128l76.5 -73c27.667 -26 45.834 -42.667 54.501 -50l-4 -13l-71 -56l-125 123l-124 -125z" />
    <glyph glyph-name="Oslash" unicode="&#xd8;" horiz-adv-x="675" 
d="M619.5 492.5c18.333 -43.667 27.498 -94.166 27.498 -151.499c0 -69.333 -13.833 -130.833 -41.5 -184.5s-66.667 -95.167 -117 -124.5s-108.166 -44 -173.499 -44c-45.333 0 -85 7.33301 -119 22l-69 -117l-58 29l-3 10l68 114c-34 27.333 -60 63 -78 107
s-27 94.333 -27 151c0 69.333 13.667 130.333 41 183s65.833 93.667 115.5 123s106.834 44 171.501 44c44 0 83.667 -7 119 -21l58 95l59 -28l3 -13l-56 -89c34.667 -26.667 61.167 -61.834 79.5 -105.501zM218.498 502.501c-26.333 -37.667 -39.5 -90.833 -39.5 -159.5
c0 -70.667 9.66699 -128 29 -172l207 360c-24.667 18.667 -53.334 28 -86.001 28c-47.333 0 -84.166 -18.833 -110.499 -56.5zM453.498 129.502c27 37.667 40.5 90.832 40.5 159.499c0 72.667 -10.333 132.334 -31 179.001l-210 -363c24.667 -21.333 54 -32 88 -32
c48 0 85.5 18.833 112.5 56.5z" />
    <glyph glyph-name="Ugrave" unicode="&#xd9;" horiz-adv-x="657" 
d="M86 204l-0.000976562 320.001c0 22 -2.16699 36.5 -6.5 43.5s-13.166 10.5 -26.499 10.5c-6.66699 0 -13.167 -0.333008 -19.5 -1s-10.5 -1 -12.5 -1l-2 4l9 65c9.33301 -0.666992 27.5 -1.33398 54.5 -2.00098s55.833 -1 86.5 -1c17.333 0 39.333 0.833008 66 2.5
s44.334 2.83398 53.001 3.50098l-7 -66c-21.333 -2.66699 -35.833 -7.83398 -43.5 -15.501s-12.167 -20.5 -13.5 -38.5l-7 -292c0 -50.667 10.833 -89.834 32.5 -117.501s52.834 -41.5 93.501 -41.5c83.333 0 125 44 125 132c0 51.333 -0.5 110 -1.5 176
s-1.83301 112.333 -2.5 139c-0.666992 22 -3 36.5 -7 43.5s-12.333 10.5 -25 10.5c-6.66699 0 -13.334 -0.333008 -20.001 -1s-11.334 -1 -14.001 -1l-2 4l9 65c8.66699 0 24.5 -0.5 47.5 -1.5s45.833 -1.5 68.5 -1.5c21.333 0 44.5 0.833008 69.5 2.5
s41.167 2.83398 48.5 3.50098l-6 -65c-18 -4 -31 -7.66699 -39 -11s-13.333 -8 -16 -14s-4 -15 -4 -27v-311c0 -74.667 -22 -132 -66 -172s-107.667 -60 -191 -60c-154 0 -231 72 -231 216zM267.499 739.501c-45.667 12.333 -75.167 20.1689 -88.5 23.502l-5 13l25 75l12 5
c12.667 -6.66699 41.5 -20.834 86.5 -42.501l134.5 -62.5l-13 -45l-12 -8c-47.333 15.333 -93.833 29.166 -139.5 41.499z" />
    <glyph glyph-name="Uacute" unicode="&#xda;" horiz-adv-x="657" 
d="M86 204l-0.000976562 320.001c0 22 -2.16699 36.5 -6.5 43.5s-13.166 10.5 -26.499 10.5c-6.66699 0 -13.167 -0.333008 -19.5 -1s-10.5 -1 -12.5 -1l-2 4l9 65c9.33301 -0.666992 27.5 -1.33398 54.5 -2.00098s55.833 -1 86.5 -1c17.333 0 39.333 0.833008 66 2.5
s44.334 2.83398 53.001 3.50098l-7 -66c-21.333 -2.66699 -35.833 -7.83398 -43.5 -15.501s-12.167 -20.5 -13.5 -38.5l-7 -292c0 -50.667 10.833 -89.834 32.5 -117.501s52.834 -41.5 93.501 -41.5c83.333 0 125 44 125 132c0 51.333 -0.5 110 -1.5 176
s-1.83301 112.333 -2.5 139c-0.666992 22 -3 36.5 -7 43.5s-12.333 10.5 -25 10.5c-6.66699 0 -13.334 -0.333008 -20.001 -1s-11.334 -1 -14.001 -1l-2 4l9 65c8.66699 0 24.5 -0.5 47.5 -1.5s45.833 -1.5 68.5 -1.5c21.333 0 44.5 0.833008 69.5 2.5
s41.167 2.83398 48.5 3.50098l-6 -65c-18 -4 -31 -7.66699 -39 -11s-13.333 -8 -16 -14s-4 -15 -4 -27v-311c0 -74.667 -22 -132 -66 -172s-107.667 -60 -191 -60c-154 0 -231 72 -231 216zM266.999 706.001l-13 44.998l134.5 62.5l87.5 42.5l12 -5l25 -75l-5 -13
c-13.333 -3.33301 -42.833 -11.166 -88.5 -23.499s-92.167 -26.166 -139.5 -41.499z" />
    <glyph glyph-name="Ucircumflex" unicode="&#xdb;" horiz-adv-x="657" 
d="M86 204l-0.000976562 320.001c0 22 -2.16699 36.5 -6.5 43.5s-13.166 10.5 -26.499 10.5c-6.66699 0 -13.167 -0.333008 -19.5 -1s-10.5 -1 -12.5 -1l-2 4l9 65c9.33301 -0.666992 27.5 -1.33398 54.5 -2.00098s55.833 -1 86.5 -1c17.333 0 39.333 0.833008 66 2.5
s44.334 2.83398 53.001 3.50098l-7 -66c-21.333 -2.66699 -35.833 -7.83398 -43.5 -15.501s-12.167 -20.5 -13.5 -38.5l-7 -292c0 -50.667 10.833 -89.834 32.5 -117.501s52.834 -41.5 93.501 -41.5c83.333 0 125 44 125 132c0 51.333 -0.5 110 -1.5 176
s-1.83301 112.333 -2.5 139c-0.666992 22 -3 36.5 -7 43.5s-12.333 10.5 -25 10.5c-6.66699 0 -13.334 -0.333008 -20.001 -1s-11.334 -1 -14.001 -1l-2 4l9 65c8.66699 0 24.5 -0.5 47.5 -1.5s45.833 -1.5 68.5 -1.5c21.333 0 44.5 0.833008 69.5 2.5
s41.167 2.83398 48.5 3.50098l-6 -65c-18 -4 -31 -7.66699 -39 -11s-13.333 -8 -16 -14s-4 -15 -4 -27v-311c0 -74.667 -22 -132 -66 -172s-107.667 -60 -191 -60c-154 0 -231 72 -231 216zM199.999 711.001l-24 39.998l93.5 72.5l61.5 50.5h20
c0 0.666992 13.333 -9.66602 40 -30.999c40.667 -34 79 -64.667 115 -92l-23 -40l-15 -4c-50 24.667 -92.333 44.334 -127 59.001c-36.667 -15.333 -78.667 -35 -126 -59z" />
    <glyph glyph-name="Udieresis" unicode="&#xdc;" horiz-adv-x="657" 
d="M86 204l-0.000976562 320.001c0 22 -2.16699 36.5 -6.5 43.5s-13.166 10.5 -26.499 10.5c-6.66699 0 -13.167 -0.333008 -19.5 -1s-10.5 -1 -12.5 -1l-2 4l9 65c9.33301 -0.666992 27.5 -1.33398 54.5 -2.00098s55.833 -1 86.5 -1c17.333 0 39.333 0.833008 66 2.5
s44.334 2.83398 53.001 3.50098l-7 -66c-21.333 -2.66699 -35.833 -7.83398 -43.5 -15.501s-12.167 -20.5 -13.5 -38.5l-7 -292c0 -50.667 10.833 -89.834 32.5 -117.501s52.834 -41.5 93.501 -41.5c83.333 0 125 44 125 132c0 51.333 -0.5 110 -1.5 176
s-1.83301 112.333 -2.5 139c-0.666992 22 -3 36.5 -7 43.5s-12.333 10.5 -25 10.5c-6.66699 0 -13.334 -0.333008 -20.001 -1s-11.334 -1 -14.001 -1l-2 4l9 65c8.66699 0 24.5 -0.5 47.5 -1.5s45.833 -1.5 68.5 -1.5c21.333 0 44.5 0.833008 69.5 2.5
s41.167 2.83398 48.5 3.50098l-6 -65c-18 -4 -31 -7.66699 -39 -11s-13.333 -8 -16 -14s-4 -15 -4 -27v-311c0 -74.667 -22 -132 -66 -172s-107.667 -60 -191 -60c-154 0 -231 72 -231 216zM204.499 717.501c-10.333 11 -15.501 25.5 -15.501 43.5
c0 19.333 6.16699 35.333 18.5 48s28.5 19 48.5 19c18 0 32.167 -5.5 42.5 -16.5s15.5 -25.5 15.5 -43.5c0 -19.333 -6.16699 -35.333 -18.5 -48s-28.166 -19 -47.499 -19c-18.667 0 -33.167 5.5 -43.5 16.5zM382.498 717.501c-10.333 11 -15.5 25.5 -15.5 43.5
c0 19.333 6.16699 35.333 18.5 48s28.166 19 47.499 19c18.667 0 33.167 -5.5 43.5 -16.5s15.5 -25.5 15.5 -43.5c0 -19.333 -6.16699 -35.333 -18.5 -48s-28.166 -19 -47.499 -19c-18.667 0 -33.167 5.5 -43.5 16.5z" />
    <glyph glyph-name="Thorn" unicode="&#xde;" horiz-adv-x="571" 
d="M44 55c29.333 5.33301 49.002 13.665 59.002 24.998s15 31 15 59v387c0 20.667 -2.33301 34.5 -7 41.5s-14.334 10.5 -29.001 10.5l-35 -1l-5 8l8 58l138 -1c18.667 0 44 1 76 3l64 4l-5 -66c-26 -4 -43 -9 -51 -15s-12.667 -16.667 -14 -32l-2 -24h76
c74.667 0 131.167 -14.833 169.5 -44.5s57.5 -73.5 57.5 -131.5c0 -35.333 -10.833 -67.666 -32.5 -96.999s-51 -52.5 -88 -69.5s-77.833 -25.5 -122.5 -25.5h-71v-30c0 -20.667 2.66699 -34.334 8 -41.001s15.666 -10 30.999 -10c12 0 22.333 0.333008 31 1
s14.334 1.33398 17.001 2.00098l5 -6l-9 -63c-11.333 0 -32.333 0.5 -63 1.5s-60.334 1.5 -89.001 1.5c-23.333 0 -49.833 -1.16699 -79.5 -3.5s-49.167 -4.16602 -58.5 -5.49902zM420.002 325.999c0 36.667 -11.6699 63.6689 -35.0029 81.002s-59.666 26 -108.999 26
c-9.33301 0 -15.5 -1 -18.5 -3s-4.83301 -6 -5.5 -12c-2.66699 -66.667 -4.66699 -129.334 -6 -188.001c12.667 -3.33301 27.334 -6.33301 44.001 -9s30.334 -4.33398 41.001 -5.00098c59.333 10 89 46.667 89 110z" />
    <glyph glyph-name="germandbls" unicode="&#xdf;" horiz-adv-x="685" 
d="M381.5 -2.5c-21 4.33301 -37.6689 8.99609 -50.002 13.9961l-23.5 9.5l-8 12c1.33301 7.33301 3.83301 24 7.5 50s6.16699 50.667 7.5 74l71 5c0 -35.333 5.33301 -59.666 16 -72.999s30 -20 58 -20c22 0 39.333 7 52 21s19 33.333 19 58
c0 27.333 -9.5 48.166 -28.5 62.499s-46.833 21.5 -83.5 21.5c-14 0 -28.833 -1.16699 -44.5 -3.5l-30.5 -4.5l-26 37l140 167h-188c-18 0 -29.167 -1.33301 -33.5 -4s-6.83301 -9.33398 -7.5 -20.001l-10 -287c0 -20 1.83301 -33.167 5.5 -39.5s11.167 -9.5 22.5 -9.5l26 1
l8 -9l-9 -63c-7.33301 0.666992 -20.5 1.33398 -39.5 2.00098s-38.167 1 -57.5 1c-27.333 0 -55.333 -1.16699 -84 -3.5s-47 -4.16602 -55 -5.49902l6 58c22.667 4 38 10.833 46 20.5s12 25.834 12 48.501l1 286c0 16.667 -1.66699 27.834 -5 33.501s-10.333 8.5 -21 8.5
c-5.33301 0 -10.333 -0.333008 -15 -1s-7.66699 -1 -9 -1l-6 8l7 51c16.667 0 47.334 -0.333008 92.001 -1s87.334 -1 128.001 -1c46.667 0 107 0.833008 181 2.5s122.667 2.83398 146 3.50098l18 -32l-140 -157l22 -1c30.667 0 58.334 -6.5 83.001 -19.5s44 -30.667 58 -53
s21 -47.5 21 -75.5c0 -35.333 -8.83301 -66.5 -26.5 -93.5s-42.334 -47.833 -74.001 -62.5s-68.167 -22 -109.5 -22c-25.333 0 -48.5 2.16699 -69.5 6.5z" />
    <glyph glyph-name="agrave" unicode="&#xe0;" horiz-adv-x="544" 
d="M211.5 643c-37.667 25.333 -61.833 41.333 -72.5 48l-2 14l53 68l14 1c9.33301 -10.667 30.833 -33.5 64.5 -68.5l101.5 -101.5l-29 -38l-15 -4zM282.001 0l3.99609 52.001c19.333 2 33 3.83301 41 5.5s13.5 4.16699 16.5 7.5s4.5 8.33301 4.5 15
c0 7.33301 -1.33301 15 -4 23l-14 52c-14 0.666992 -38.333 1 -73 1c-15.333 0 -40.666 -1.66699 -75.999 -5l-18 -52c-2.66699 -10 -4 -17.333 -4 -22c0 -8.66699 2.5 -14.5 7.5 -17.5s14.5 -4.5 28.5 -4.5h31l5 -7l-6 -52c-8 0.666992 -24.833 1.5 -50.5 2.5
s-49.5 1.5 -71.5 1.5c-23.333 0 -44.5 -0.333008 -63.5 -1s-31.5 -1 -37.5 -1l6 56c12 2 21.833 6.83301 29.5 14.5s14.834 19.167 21.501 34.5l144 394l147 13l10 -6l51 -184c26 -92.667 47.333 -163.667 64 -213c5.33301 -18 12.5 -31 21.5 -39s22.167 -12.667 39.5 -14
l4 -6l-6 -50c-7.33301 0 -21.166 0.333008 -41.499 1s-41.166 1 -62.499 1c-30 0 -59.333 -0.833008 -88 -2.5s-47 -2.83398 -55 -3.50098zM256.997 226.001c22 0 41.333 1 58 3l-45 162h-12l-55 -165h54z" />
    <glyph glyph-name="aacute" unicode="&#xe1;" horiz-adv-x="544" 
d="M186 564l-31 37l99.5 104.5l63.5 69.5h13l56 -67l-1 -13l-72 -50.5c-37.333 -26.333 -75 -54.5 -113 -84.5zM282 0l3.99609 52.001c19.333 2 33 3.83301 41 5.5s13.5 4.16699 16.5 7.5s4.5 8.33301 4.5 15c0 7.33301 -1.33301 15 -4 23l-14 52
c-14 0.666992 -38.333 1 -73 1c-15.333 0 -40.666 -1.66699 -75.999 -5l-18 -52c-2.66699 -10 -4 -17.333 -4 -22c0 -8.66699 2.5 -14.5 7.5 -17.5s14.5 -4.5 28.5 -4.5h31l5 -7l-6 -52c-8 0.666992 -24.833 1.5 -50.5 2.5s-49.5 1.5 -71.5 1.5
c-23.333 0 -44.5 -0.333008 -63.5 -1s-31.5 -1 -37.5 -1l6 56c12 2 21.833 6.83301 29.5 14.5s14.834 19.167 21.501 34.5l144 394l147 13l10 -6l51 -184c26 -92.667 47.333 -163.667 64 -213c5.33301 -18 12.5 -31 21.5 -39s22.167 -12.667 39.5 -14l4 -6l-6 -50
c-7.33301 0 -21.166 0.333008 -41.499 1s-41.166 1 -62.499 1c-30 0 -59.333 -0.833008 -88 -2.5s-47 -2.83398 -55 -3.50098zM256.996 226.001c22 0 41.333 1 58 3l-45 162h-12l-55 -165h54z" />
    <glyph glyph-name="acircumflex" unicode="&#xe2;" horiz-adv-x="544" 
d="M145 561l-28 40l90.5 91.5l60.5 63.5h20c8.66699 -10 28.5 -31.167 59.5 -63.5l90.5 -91.5l-28 -40l-15 -3c-24 18.667 -48.333 36.5 -73 53.5l-44 30.5c-44 -28 -83 -56 -117 -84zM282 0l3.99609 52.001c19.333 2 33 3.83301 41 5.5s13.5 4.16699 16.5 7.5
s4.5 8.33301 4.5 15c0 7.33301 -1.33301 15 -4 23l-14 52c-14 0.666992 -38.333 1 -73 1c-15.333 0 -40.666 -1.66699 -75.999 -5l-18 -52c-2.66699 -10 -4 -17.333 -4 -22c0 -8.66699 2.5 -14.5 7.5 -17.5s14.5 -4.5 28.5 -4.5h31l5 -7l-6 -52
c-8 0.666992 -24.833 1.5 -50.5 2.5s-49.5 1.5 -71.5 1.5c-23.333 0 -44.5 -0.333008 -63.5 -1s-31.5 -1 -37.5 -1l6 56c12 2 21.833 6.83301 29.5 14.5s14.834 19.167 21.501 34.5l144 394l147 13l10 -6l51 -184c26 -92.667 47.333 -163.667 64 -213
c5.33301 -18 12.5 -31 21.5 -39s22.167 -12.667 39.5 -14l4 -6l-6 -50c-7.33301 0 -21.166 0.333008 -41.499 1s-41.166 1 -62.499 1c-30 0 -59.333 -0.833008 -88 -2.5s-47 -2.83398 -55 -3.50098zM256.996 226.001c22 0 41.333 1 58 3l-45 162h-12l-55 -165h54z" />
    <glyph glyph-name="atilde" unicode="&#xe3;" horiz-adv-x="544" 
d="M93 612v10.001l78 101l17 4c12.667 0 39.667 -6 81 -18c37.333 -10.667 60 -16 68 -16c7.33301 0 15.833 4.16699 25.5 12.5s18.167 17.166 25.5 26.499l14 18h11l38 -36v-10l-78 -101l-16 -4c-8 0 -19.5 1.83301 -34.5 5.5l-45.5 11.5
c-3.33301 0.666992 -13.833 3.5 -31.5 8.5s-30.5 7.5 -38.5 7.5c-7.33301 0 -15.833 -4.16699 -25.5 -12.5s-18.167 -17 -25.5 -26s-12 -14.833 -14 -17.5h-10zM282 0.000976562l3.99609 52.001c19.333 2 33 3.83301 41 5.5s13.5 4.16699 16.5 7.5s4.5 8.33301 4.5 15
c0 7.33301 -1.33301 15 -4 23l-14 52c-14 0.666992 -38.333 1 -73 1c-15.333 0 -40.666 -1.66699 -75.999 -5l-18 -52c-2.66699 -10 -4 -17.333 -4 -22c0 -8.66699 2.5 -14.5 7.5 -17.5s14.5 -4.5 28.5 -4.5h31l5 -7l-6 -52c-8 0.666992 -24.833 1.5 -50.5 2.5
s-49.5 1.5 -71.5 1.5c-23.333 0 -44.5 -0.333008 -63.5 -1s-31.5 -1 -37.5 -1l6 56c12 2 21.833 6.83301 29.5 14.5s14.834 19.167 21.501 34.5l144 394l147 13l10 -6l51 -184c26 -92.667 47.333 -163.667 64 -213c5.33301 -18 12.5 -31 21.5 -39s22.167 -12.667 39.5 -14
l4 -6l-6 -50c-7.33301 0 -21.166 0.333008 -41.499 1s-41.166 1 -62.499 1c-30 0 -59.333 -0.833008 -88 -2.5s-47 -2.83398 -55 -3.50098zM256.996 226.002c22 0 41.333 1 58 3l-45 162h-12l-55 -165h54z" />
    <glyph glyph-name="adieresis" unicode="&#xe4;" horiz-adv-x="544" 
d="M135.5 607.5c-10.333 11 -15.501 25.501 -15.501 43.501c0 19.333 6.16699 35.166 18.5 47.499s28.5 18.5 48.5 18.5c18 0 32.167 -5.33301 42.5 -16s15.5 -25 15.5 -43c0 -19.333 -6.16699 -35.333 -18.5 -48s-28.166 -19 -47.499 -19c-18.667 0 -33.167 5.5 -43.5 16.5
zM313.499 607.501c-10.333 11 -15.5 25.501 -15.5 43.501c0 19.333 6.16699 35.166 18.5 47.499s28.166 18.5 47.499 18.5c18.667 0 33.167 -5.33301 43.5 -16s15.5 -25 15.5 -43c0 -19.333 -6.16699 -35.333 -18.5 -48s-28.166 -19 -47.499 -19
c-18.667 0 -33.167 5.5 -43.5 16.5zM281.999 0.00195312l3.99609 52.001c19.333 2 33 3.83301 41 5.5s13.5 4.16699 16.5 7.5s4.5 8.33301 4.5 15c0 7.33301 -1.33301 15 -4 23l-14 52c-14 0.666992 -38.333 1 -73 1c-15.333 0 -40.666 -1.66699 -75.999 -5l-18 -52
c-2.66699 -10 -4 -17.333 -4 -22c0 -8.66699 2.5 -14.5 7.5 -17.5s14.5 -4.5 28.5 -4.5h31l5 -7l-6 -52c-8 0.666992 -24.833 1.5 -50.5 2.5s-49.5 1.5 -71.5 1.5c-23.333 0 -44.5 -0.333008 -63.5 -1s-31.5 -1 -37.5 -1l6 56c12 2 21.833 6.83301 29.5 14.5
s14.834 19.167 21.501 34.5l144 394l147 13l10 -6l51 -184c26 -92.667 47.333 -163.667 64 -213c5.33301 -18 12.5 -31 21.5 -39s22.167 -12.667 39.5 -14l4 -6l-6 -50c-7.33301 0 -21.166 0.333008 -41.499 1s-41.166 1 -62.499 1c-30 0 -59.333 -0.833008 -88 -2.5
s-47 -2.83398 -55 -3.50098zM256.995 226.003c22 0 41.333 1 58 3l-45 162h-12l-55 -165h54z" />
    <glyph glyph-name="aring" unicode="&#xe5;" horiz-adv-x="544" 
d="M209.5 595.5c-15.667 16.333 -23.499 38.168 -23.499 65.501c0 28 8.83301 50.833 26.5 68.5s40.5 26.5 68.5 26.5c27.333 0 49 -7.66699 65 -23s24 -36.333 24 -63c0 -28.667 -9.16699 -52.334 -27.5 -71.001s-41.5 -28 -69.5 -28
c-26.667 0 -47.834 8.16699 -63.501 24.5zM309.501 633.502c7 6.33301 10.5 15.167 10.5 26.5c0 13.333 -4 23.666 -12 30.999s-19.333 11 -34 11c-12.667 0 -22.5 -3.16699 -29.5 -9.5s-10.5 -15.166 -10.5 -26.499c0 -12 4.33301 -22 13 -30s19.667 -12 33 -12
c12.667 0 22.5 3.16699 29.5 9.5zM282.001 0.00292969l3.99609 52.001c19.333 2 33 3.83301 41 5.5s13.5 4.16699 16.5 7.5s4.5 8.33301 4.5 15c0 7.33301 -1.33301 15 -4 23l-14 52c-14 0.666992 -38.333 1 -73 1c-15.333 0 -40.666 -1.66699 -75.999 -5l-18 -52
c-2.66699 -10 -4 -17.333 -4 -22c0 -8.66699 2.5 -14.5 7.5 -17.5s14.5 -4.5 28.5 -4.5h31l5 -7l-6 -52c-8 0.666992 -24.833 1.5 -50.5 2.5s-49.5 1.5 -71.5 1.5c-23.333 0 -44.5 -0.333008 -63.5 -1s-31.5 -1 -37.5 -1l6 56c12 2 21.833 6.83301 29.5 14.5
s14.834 19.167 21.501 34.5l144 394l147 13l10 -6l51 -184c26 -92.667 47.333 -163.667 64 -213c5.33301 -18 12.5 -31 21.5 -39s22.167 -12.667 39.5 -14l4 -6l-6 -50c-7.33301 0 -21.166 0.333008 -41.499 1s-41.166 1 -62.499 1c-30 0 -59.333 -0.833008 -88 -2.5
s-47 -2.83398 -55 -3.50098zM256.997 226.004c22 0 41.333 1 58 3l-45 162h-12l-55 -165h54z" />
    <glyph glyph-name="ae" unicode="&#xe6;" horiz-adv-x="748" 
d="M329 63c8.66699 4.66699 13.0029 12.9961 13.0029 24.9961c0 6.66699 -0.333008 12.834 -1 18.501l-2 16.5l-9 64l-70 -8l-68 -14l-32 -67c-6 -11.333 -9 -20 -9 -26c0 -6.66699 3 -11.167 9 -13.5s18 -3.5 36 -3.5l24 -5l-6 -54c-0.666992 0 -18 0.666992 -52 2
s-64 2 -90 2c-14.667 0 -27.667 -0.333008 -39 -1s-19 -1 -23 -1l-3 52c6 1.33301 13.667 6.83301 23 16.5s18 21.834 26 36.501l165 324c-1.33301 7.33301 -3.5 12.166 -6.5 14.499s-7.83301 3.5 -14.5 3.5l-25 -1l-6 8l7 51c11.333 0 36.166 -0.333008 74.499 -1
s84.833 -1 139.5 -1c60.667 0 115.5 0.833008 164.5 2.5s83.5 3.83398 103.5 6.50098l7 -9l-9 -56.5c-4.66699 -29 -8 -58.833 -10 -89.5l-83 -5c0 2 0.333008 6.16699 1 12.5s1 12.5 1 18.5c0 14.667 -2.33301 25 -7 31s-13.834 10.167 -27.501 12.5
s-35.834 3.5 -66.501 3.5c-17.333 0 -28.333 -1.16699 -33 -3.5s-7.33398 -8.16602 -8.00098 -17.499l20 -131l76 10l80 17l9 -10l-10 -72l-75 -6l-69 -9l15 -86c3.33301 -18 9.16602 -31.167 17.499 -39.5s20.833 -12.5 37.5 -12.5c30 0 52 2.16699 66 6.5
s24.167 12.333 30.5 24s11.5 30.834 15.5 57.501l77 6l6 -9c-2 -8 -5.5 -26.667 -10.5 -56s-9.16699 -60.333 -12.5 -93l-8 -9l-45 1c-65.333 2.66699 -132.666 4 -201.999 4h-32c-28 0 -55.333 -0.833008 -82 -2.5s-43.667 -2.83398 -51 -3.50098l-4 6l4 52
c26.667 2.66699 44.334 6.33398 53.001 11.001zM323.003 256.996l-17 133h-13l-69 -142l50 4z" />
    <glyph glyph-name="ccedilla" unicode="&#xe7;" horiz-adv-x="524" 
d="M361 98c15.333 16 25.999 42.334 31.999 79.001l90 6c-1.33301 -9.33301 -4 -29.833 -8 -61.5s-6.33301 -61.5 -7 -89.5l-9 -10c-4 -1.33301 -13.333 -4.16602 -28 -8.49902s-34.167 -8.83301 -58.5 -13.5s-50.5 -7.66699 -78.5 -9l-10 -36c28 -16 51 -31.5 69 -46.5
s27 -31.5 27 -49.5c0 -17.333 -6.33301 -33.333 -19 -48s-29.334 -26.334 -50.001 -35.001s-42 -13 -64 -13c-18.667 0 -36.167 4 -52.5 12s-24.5 18.333 -24.5 31c0 6.66699 3.83301 16.167 11.5 28.5s15.834 23.5 24.501 33.5h9c0.666992 -18 5.66699 -31.833 15 -41.5
s21.666 -14.5 36.999 -14.5c12 0 21.833 2.83301 29.5 8.5s11.5 13.167 11.5 22.5c0 10 -8 21 -24 33s-36.667 24.667 -62 38l22 78c-67.333 6 -119.833 30.667 -157.5 74s-56.5 100.666 -56.5 171.999c0 55.333 11.667 103.5 35 144.5s56.833 72.5 100.5 94.5
s94.834 33 153.501 33c20.667 0 43 -1.5 67 -4.5s44.5 -6 61.5 -9s27.833 -5.16699 32.5 -6.5l5 -11c-0.666992 -3.33301 -2.5 -11.833 -5.5 -25.5s-6.16699 -31.834 -9.5 -54.501s-5.66602 -46.667 -6.99902 -72l-90 -6c0 2 0.166992 6.83301 0.5 14.5
s0.5 16.834 0.5 27.501c0 22 -6.66699 38 -20 48s-34.333 15 -63 15c-40.667 0 -71 -13.167 -91 -39.5s-30 -66.833 -30 -121.5c0 -61.333 11 -108.5 33 -141.5s53 -49.5 93 -49.5c28 0 49.667 8 65 24z" />
    <glyph glyph-name="egrave" unicode="&#xe8;" horiz-adv-x="512" 
d="M201.5 643c-37.667 25.333 -61.833 41.333 -72.5 48l-2 14l53 68l14 1c9.33301 -10.667 30.833 -33.5 64.5 -68.5l101.5 -101.5l-29 -38l-15 -4zM42.001 50c22.667 2.66699 38.001 8.83105 46.001 18.498s12 26.167 12 49.5l1 285c0 16.667 -1.66699 27.834 -5 33.501
s-10.333 8.5 -21 8.5l-24 -1l-6 8l7 51c10.667 0 31.167 -0.333008 61.5 -1s62.833 -1 97.5 -1c118 0 202 3 252 9l7 -9c-2 -8.66699 -5.16699 -27.5 -9.5 -56.5s-7.5 -58.833 -9.5 -89.5l-83 -5c0 2 0.333008 6.16699 1 12.5s1 12.5 1 18.5c0 14.667 -2.33301 25 -7 31
s-13.667 10.167 -27 12.5s-35.333 3.5 -66 3.5c-18 0 -29.167 -1.33301 -33.5 -4s-6.83301 -9.33398 -7.5 -20.001l-5 -113h74c12 0 29 0.833008 51 2.5s36.667 2.83398 44 3.50098l8 -9l-12 -72c-7.33301 0 -21.166 0.333008 -41.499 1s-41.833 1 -64.5 1
c-18 0 -38.667 -1.66699 -62 -5c-1.33301 -32 -2 -64.667 -2 -98c0 -14.667 1 -25 3 -31s6.33301 -10.167 13 -12.5s18 -3.5 34 -3.5c33.333 0 57.666 2.16699 72.999 6.5s26.333 12.333 33 24s12 30.834 16 57.501l76 6l8 -9c-2 -8 -5.5 -26.667 -10.5 -56
s-9.16699 -60.333 -12.5 -93l-9 -9c-16.667 0.666992 -52.834 1.66699 -108.501 3s-105.834 2 -150.501 2c-31.333 -0 -61.666 -1.16699 -90.999 -3.5l-57 -4.5z" />
    <glyph glyph-name="eacute" unicode="&#xe9;" horiz-adv-x="512" 
d="M175 564l-31 37l99.5 104.5l63.5 69.5h13l56 -67l-1 -13l-72 -50.5c-37.333 -26.333 -75 -54.5 -113 -84.5zM42 50c22.667 2.66699 38.001 8.83105 46.001 18.498s12 26.167 12 49.5l1 285c0 16.667 -1.66699 27.834 -5 33.501s-10.333 8.5 -21 8.5l-24 -1l-6 8l7 51
c10.667 0 31.167 -0.333008 61.5 -1s62.833 -1 97.5 -1c118 0 202 3 252 9l7 -9c-2 -8.66699 -5.16699 -27.5 -9.5 -56.5s-7.5 -58.833 -9.5 -89.5l-83 -5c0 2 0.333008 6.16699 1 12.5s1 12.5 1 18.5c0 14.667 -2.33301 25 -7 31s-13.667 10.167 -27 12.5
s-35.333 3.5 -66 3.5c-18 0 -29.167 -1.33301 -33.5 -4s-6.83301 -9.33398 -7.5 -20.001l-5 -113h74c12 0 29 0.833008 51 2.5s36.667 2.83398 44 3.50098l8 -9l-12 -72c-7.33301 0 -21.166 0.333008 -41.499 1s-41.833 1 -64.5 1c-18 0 -38.667 -1.66699 -62 -5
c-1.33301 -32 -2 -64.667 -2 -98c0 -14.667 1 -25 3 -31s6.33301 -10.167 13 -12.5s18 -3.5 34 -3.5c33.333 0 57.666 2.16699 72.999 6.5s26.333 12.333 33 24s12 30.834 16 57.501l76 6l8 -9c-2 -8 -5.5 -26.667 -10.5 -56s-9.16699 -60.333 -12.5 -93l-9 -9
c-16.667 0.666992 -52.834 1.66699 -108.501 3s-105.834 2 -150.501 2c-31.333 -0 -61.666 -1.16699 -90.999 -3.5l-57 -4.5z" />
    <glyph glyph-name="ecircumflex" unicode="&#xea;" horiz-adv-x="512" 
d="M134 561l-28 40l90.5 91.5l60.5 63.5h20c8.66699 -10 28.5 -31.167 59.5 -63.5l90.5 -91.5l-28 -40l-15 -3c-24 18.667 -48.333 36.5 -73 53.5l-44 30.5c-44 -28 -83 -56 -117 -84zM42 50c22.667 2.66699 38.001 8.83105 46.001 18.498s12 26.167 12 49.5l1 285
c0 16.667 -1.66699 27.834 -5 33.501s-10.333 8.5 -21 8.5l-24 -1l-6 8l7 51c10.667 0 31.167 -0.333008 61.5 -1s62.833 -1 97.5 -1c118 0 202 3 252 9l7 -9c-2 -8.66699 -5.16699 -27.5 -9.5 -56.5s-7.5 -58.833 -9.5 -89.5l-83 -5c0 2 0.333008 6.16699 1 12.5
s1 12.5 1 18.5c0 14.667 -2.33301 25 -7 31s-13.667 10.167 -27 12.5s-35.333 3.5 -66 3.5c-18 0 -29.167 -1.33301 -33.5 -4s-6.83301 -9.33398 -7.5 -20.001l-5 -113h74c12 0 29 0.833008 51 2.5s36.667 2.83398 44 3.50098l8 -9l-12 -72
c-7.33301 0 -21.166 0.333008 -41.499 1s-41.833 1 -64.5 1c-18 0 -38.667 -1.66699 -62 -5c-1.33301 -32 -2 -64.667 -2 -98c0 -14.667 1 -25 3 -31s6.33301 -10.167 13 -12.5s18 -3.5 34 -3.5c33.333 0 57.666 2.16699 72.999 6.5s26.333 12.333 33 24
s12 30.834 16 57.501l76 6l8 -9c-2 -8 -5.5 -26.667 -10.5 -56s-9.16699 -60.333 -12.5 -93l-9 -9c-16.667 0.666992 -52.834 1.66699 -108.501 3s-105.834 2 -150.501 2c-31.333 -0 -61.666 -1.16699 -90.999 -3.5l-57 -4.5z" />
    <glyph glyph-name="edieresis" unicode="&#xeb;" horiz-adv-x="512" 
d="M124.5 607.5c-10.333 11 -15.501 25.501 -15.501 43.501c0 19.333 6.16699 35.166 18.5 47.499s28.5 18.5 48.5 18.5c18 0 32.167 -5.33301 42.5 -16s15.5 -25 15.5 -43c0 -19.333 -6.16699 -35.333 -18.5 -48s-28.166 -19 -47.499 -19c-18.667 0 -33.167 5.5 -43.5 16.5
zM302.499 607.501c-10.333 11 -15.5 25.501 -15.5 43.501c0 19.333 6.16699 35.166 18.5 47.499s28.166 18.5 47.499 18.5c18.667 0 33.167 -5.33301 43.5 -16s15.5 -25 15.5 -43c0 -19.333 -6.16699 -35.333 -18.5 -48s-28.166 -19 -47.499 -19
c-18.667 0 -33.167 5.5 -43.5 16.5zM41.999 50.002c22.667 2.66699 38.001 8.83105 46.001 18.498s12 26.167 12 49.5l1 285c0 16.667 -1.66699 27.834 -5 33.501s-10.333 8.5 -21 8.5l-24 -1l-6 8l7 51c10.667 0 31.167 -0.333008 61.5 -1s62.833 -1 97.5 -1
c118 0 202 3 252 9l7 -9c-2 -8.66699 -5.16699 -27.5 -9.5 -56.5s-7.5 -58.833 -9.5 -89.5l-83 -5c0 2 0.333008 6.16699 1 12.5s1 12.5 1 18.5c0 14.667 -2.33301 25 -7 31s-13.667 10.167 -27 12.5s-35.333 3.5 -66 3.5c-18 0 -29.167 -1.33301 -33.5 -4
s-6.83301 -9.33398 -7.5 -20.001l-5 -113h74c12 0 29 0.833008 51 2.5s36.667 2.83398 44 3.50098l8 -9l-12 -72c-7.33301 0 -21.166 0.333008 -41.499 1s-41.833 1 -64.5 1c-18 0 -38.667 -1.66699 -62 -5c-1.33301 -32 -2 -64.667 -2 -98c0 -14.667 1 -25 3 -31
s6.33301 -10.167 13 -12.5s18 -3.5 34 -3.5c33.333 0 57.666 2.16699 72.999 6.5s26.333 12.333 33 24s12 30.834 16 57.501l76 6l8 -9c-2 -8 -5.5 -26.667 -10.5 -56s-9.16699 -60.333 -12.5 -93l-9 -9c-16.667 0.666992 -52.834 1.66699 -108.501 3s-105.834 2 -150.501 2
c-31.333 0 -61.666 -1.16699 -90.999 -3.5l-57 -4.5z" />
    <glyph glyph-name="igrave" unicode="&#xec;" horiz-adv-x="320" 
d="M102.5 643c-37.667 25.333 -61.833 41.333 -72.5 48l-2 14l53 68l14 1c9.33301 -10.667 30.833 -33.5 64.5 -68.5l101.5 -101.5l-29 -38l-15 -4zM42.001 49c24 4.66699 39.6641 11.168 46.9971 19.501s11 23.5 11 45.5l1 291c0 16 -2 26.667 -6 32s-12 8 -24 8h-27l-4 8
l5 49l119 -1c14.667 0 36.334 0.666992 65.001 2s47.667 2.33301 57 3l-5 -57c-20.667 -2.66699 -34.167 -6.66699 -40.5 -12s-10.166 -15.333 -11.499 -30c-6.66699 -98 -10 -197.667 -10 -299c0 -21.333 2 -35.5 6 -42.5s12.333 -10.5 25 -10.5
c8.66699 0 15.834 0.333008 21.501 1s9.5 1 11.5 1l5 -6l-7 -53c-9.33301 0 -26.833 0.333008 -52.5 1s-50.167 1 -73.5 1c-19.333 0 -42 -0.833008 -68 -2.5s-43 -2.83398 -51 -3.50098z" />
    <glyph glyph-name="iacute" unicode="&#xed;" horiz-adv-x="320" 
d="M77 564l-31 37l99.5 104.5l63.5 69.5h13l56 -67l-1 -13l-72 -50.5c-37.333 -26.333 -75 -54.5 -113 -84.5zM42 49c24 4.66699 39.6641 11.168 46.9971 19.501s11 23.5 11 45.5l1 291c0 16 -2 26.667 -6 32s-12 8 -24 8h-27l-4 8l5 49l119 -1
c14.667 0 36.334 0.666992 65.001 2s47.667 2.33301 57 3l-5 -57c-20.667 -2.66699 -34.167 -6.66699 -40.5 -12s-10.166 -15.333 -11.499 -30c-6.66699 -98 -10 -197.667 -10 -299c0 -21.333 2 -35.5 6 -42.5s12.333 -10.5 25 -10.5c8.66699 0 15.834 0.333008 21.501 1
s9.5 1 11.5 1l5 -6l-7 -53c-9.33301 0 -26.833 0.333008 -52.5 1s-50.167 1 -73.5 1c-19.333 0 -42 -0.833008 -68 -2.5s-43 -2.83398 -51 -3.50098z" />
    <glyph glyph-name="icircumflex" unicode="&#xee;" horiz-adv-x="320" 
d="M36 561l-28 40l90.5 91.5l60.5 63.5h20c8.66699 -10 28.5 -31.167 59.5 -63.5l90.5 -91.5l-28 -40l-15 -3c-24 18.667 -48.333 36.5 -73 53.5l-44 30.5c-44 -28 -83 -56 -117 -84zM42 49c24 4.66699 39.6641 11.168 46.9971 19.501s11 23.5 11 45.5l1 291
c0 16 -2 26.667 -6 32s-12 8 -24 8h-27l-4 8l5 49l119 -1c14.667 0 36.334 0.666992 65.001 2s47.667 2.33301 57 3l-5 -57c-20.667 -2.66699 -34.167 -6.66699 -40.5 -12s-10.166 -15.333 -11.499 -30c-6.66699 -98 -10 -197.667 -10 -299c0 -21.333 2 -35.5 6 -42.5
s12.333 -10.5 25 -10.5c8.66699 0 15.834 0.333008 21.501 1s9.5 1 11.5 1l5 -6l-7 -53c-9.33301 0 -26.833 0.333008 -52.5 1s-50.167 1 -73.5 1c-19.333 0 -42 -0.833008 -68 -2.5s-43 -2.83398 -51 -3.50098z" />
    <glyph glyph-name="eth" unicode="&#xf0;" horiz-adv-x="602" 
d="M230.5 -3.5c-27.667 2.33301 -51.5 3.50098 -71.5 3.50098c-18 0 -38.667 -1.16699 -62 -3.5s-38.666 -3.83301 -45.999 -4.5l6 59c24 3.33301 39.667 10 47 20s11 29 11 57v91h-92l-7 5l9 53h90v126c0 16.667 -1.66699 27.834 -5 33.501s-10 8.5 -20 8.5
c-6 0 -11.333 -0.333008 -16 -1s-8 -1 -10 -1l-6 8l7 52c8 0 23 -0.333008 45 -1s43.333 -1 64 -1c22.667 0 47.667 0.5 75 1.5s46.333 1.83301 57 2.5c83.333 0 148.333 -20.5 195 -61.5s70 -98.5 70 -172.5c0 -54.667 -12 -103.334 -36 -146.001s-57.667 -75.667 -101 -99
s-93 -35 -149 -35c-8.66699 1.33301 -26.834 3.16602 -54.501 5.49902zM330 278.001l6 -5.99902l-6 -53h-97l-1 -102c0 -20.667 4.16699 -34.334 12.5 -41.001s24.5 -10 48.5 -10c91.333 0 137 60 137 180c0 64.667 -13.333 111.5 -40 140.5s-68.667 43.5 -126 43.5
c-8.66699 0 -14.5 -1.5 -17.5 -4.5s-4.5 -8.16699 -4.5 -15.5l-7 -133z" />
    <glyph glyph-name="ntilde" unicode="&#xf1;" horiz-adv-x="621" 
d="M131 612v10.001l78 101l17 4c12.667 0 39.667 -6 81 -18c37.333 -10.667 60 -16 68 -16c7.33301 0 15.833 4.16699 25.5 12.5s18.167 17.166 25.5 26.499l14 18h11l38 -36v-10l-78 -101l-16 -4c-8 0 -19.5 1.83301 -34.5 5.5l-45.5 11.5
c-3.33301 0.666992 -13.833 3.5 -31.5 8.5s-30.5 7.5 -38.5 7.5c-7.33301 0 -15.833 -4.16699 -25.5 -12.5s-18.167 -17 -25.5 -26s-12 -14.833 -14 -17.5h-10zM440 412.001c-0.666992 12.667 -2.99805 21.3359 -6.99805 26.0029s-10.667 7 -20 7h-28l-3 7l5 52
c8 -0.666992 23 -1.33398 45 -2.00098s44.333 -1 67 -1c22 0 42.667 0.5 62 1.5s32.333 1.83301 39 2.5l-4 -57c-18 -2.66699 -30.833 -7.66699 -38.5 -15s-11.834 -18.666 -12.501 -33.999l-12 -407l-99 -10l-142.5 204.5l-84.5 117.5h-9v-213
c0 -14 2.16699 -23.667 6.5 -29s11.833 -8 22.5 -8c6 0 12.5 0.333008 19.5 1s11.833 1 14.5 1l5 -5l-9 -54c-8 0 -23 0.5 -45 1.5s-43.667 1.5 -65 1.5c-19.333 0 -40.166 -0.833008 -62.499 -2.5s-36.833 -2.83398 -43.5 -3.50098l7 57c16.667 2 28.667 6.66699 36 14
s11.333 19 12 35l11 298c0 16.667 -4.33301 28.167 -13 34.5s-26.334 11.166 -53.001 14.499l-7 8l6 50c6 -0.666992 19.667 -1.5 41 -2.5s41 -1.5 59 -1.5c19.333 0 37 0.333008 53 1s26.667 1.33398 32 2.00098c41.333 -64.667 83.166 -126.834 125.499 -186.501
s69.833 -97.834 82.5 -114.501h9z" />
    <glyph glyph-name="ograve" unicode="&#xf2;" horiz-adv-x="571" 
d="M225.5 643c-37.667 25.333 -61.833 41.333 -72.5 48l-2 14l53 68l14 1c9.33301 -10.667 30.833 -33.5 64.5 -68.5l101.5 -101.5l-29 -38l-15 -4zM93.501 56.5c-42.333 43.667 -63.5 104.165 -63.5 181.498c0 55.333 11 103.5 33 144.5s53.5 72.5 94.5 94.5
s88.833 33 143.5 33c76 0 135 -21.5 177 -64.5s63 -103.167 63 -180.5c0 -55.333 -11.167 -103.666 -33.5 -144.999s-54 -73.166 -95 -95.499s-88.833 -33.5 -143.5 -33.5c-74.667 0 -133.167 21.833 -175.5 65.5zM372.001 105.998c19.333 26.667 29 65.333 29 116
c0 68 -10.5 119 -31.5 153s-51.167 51 -90.5 51c-35.333 0 -62.333 -13 -81 -39s-28 -64.667 -28 -116c0 -68.667 10.167 -120 30.5 -154s49.833 -51 88.5 -51c36 0 63.667 13.333 83 40z" />
    <glyph glyph-name="oacute" unicode="&#xf3;" horiz-adv-x="571" 
d="M200 564l-31 37l99.5 104.5l63.5 69.5h13l56 -67l-1 -13l-72 -50.5c-37.333 -26.333 -75 -54.5 -113 -84.5zM93.5 56.5c-42.333 43.667 -63.5 104.165 -63.5 181.498c0 55.333 11 103.5 33 144.5s53.5 72.5 94.5 94.5s88.833 33 143.5 33c76 0 135 -21.5 177 -64.5
s63 -103.167 63 -180.5c0 -55.333 -11.167 -103.666 -33.5 -144.999s-54 -73.166 -95 -95.499s-88.833 -33.5 -143.5 -33.5c-74.667 0 -133.167 21.833 -175.5 65.5zM372 105.998c19.333 26.667 29 65.333 29 116c0 68 -10.5 119 -31.5 153s-51.167 51 -90.5 51
c-35.333 0 -62.333 -13 -81 -39s-28 -64.667 -28 -116c0 -68.667 10.167 -120 30.5 -154s49.833 -51 88.5 -51c36 0 63.667 13.333 83 40z" />
    <glyph glyph-name="ocircumflex" unicode="&#xf4;" horiz-adv-x="571" 
d="M159 561l-28 40l90.5 91.5l60.5 63.5h20c8.66699 -10 28.5 -31.167 59.5 -63.5l90.5 -91.5l-28 -40l-15 -3c-24 18.667 -48.333 36.5 -73 53.5l-44 30.5c-44 -28 -83 -56 -117 -84zM93.5 56.5c-42.333 43.667 -63.5 104.165 -63.5 181.498c0 55.333 11 103.5 33 144.5
s53.5 72.5 94.5 94.5s88.833 33 143.5 33c76 0 135 -21.5 177 -64.5s63 -103.167 63 -180.5c0 -55.333 -11.167 -103.666 -33.5 -144.999s-54 -73.166 -95 -95.499s-88.833 -33.5 -143.5 -33.5c-74.667 0 -133.167 21.833 -175.5 65.5zM372 105.998
c19.333 26.667 29 65.333 29 116c0 68 -10.5 119 -31.5 153s-51.167 51 -90.5 51c-35.333 0 -62.333 -13 -81 -39s-28 -64.667 -28 -116c0 -68.667 10.167 -120 30.5 -154s49.833 -51 88.5 -51c36 0 63.667 13.333 83 40z" />
    <glyph glyph-name="otilde" unicode="&#xf5;" horiz-adv-x="571" 
d="M106 612v10.001l78 101l17 4c12.667 0 39.667 -6 81 -18c37.333 -10.667 60 -16 68 -16c7.33301 0 15.833 4.16699 25.5 12.5s18.167 17.166 25.5 26.499l14 18h11l38 -36v-10l-78 -101l-16 -4c-8 0 -19.5 1.83301 -34.5 5.5l-45.5 11.5
c-3.33301 0.666992 -13.833 3.5 -31.5 8.5s-30.5 7.5 -38.5 7.5c-7.33301 0 -15.833 -4.16699 -25.5 -12.5s-18.167 -17 -25.5 -26s-12 -14.833 -14 -17.5h-10zM93.5 56.501c-42.333 43.667 -63.5 104.165 -63.5 181.498c0 55.333 11 103.5 33 144.5s53.5 72.5 94.5 94.5
s88.833 33 143.5 33c76 0 135 -21.5 177 -64.5s63 -103.167 63 -180.5c0 -55.333 -11.167 -103.666 -33.5 -144.999s-54 -73.166 -95 -95.499s-88.833 -33.5 -143.5 -33.5c-74.667 0 -133.167 21.833 -175.5 65.5zM372 105.999c19.333 26.667 29 65.333 29 116
c0 68 -10.5 119 -31.5 153s-51.167 51 -90.5 51c-35.333 0 -62.333 -13 -81 -39s-28 -64.667 -28 -116c0 -68.667 10.167 -120 30.5 -154s49.833 -51 88.5 -51c36 0 63.667 13.333 83 40z" />
    <glyph glyph-name="divide" unicode="&#xf7;" horiz-adv-x="506" 
d="M195.5 381.5c-11.667 12.333 -17.5 28.5 -17.5 48.5c0 22 6.66699 40 20 54s31.333 21 54 21c21.333 0 37.833 -6.16699 49.5 -18.5s17.5 -28.833 17.5 -49.5c0 -22 -6.66699 -39.833 -20 -53.5s-31.333 -20.5 -54 -20.5c-21.333 0 -37.833 6.16699 -49.5 18.5zM17 219
l14 86.999l234 -1c33.333 0 74 0.833008 122 2.5s79.667 2.83398 95 3.50098l7 -12l-10 -89l-227 -1l-228 -1zM195.5 26.999c-11.667 12.667 -17.5 29 -17.5 49c0 22 6.66699 40 20 54s31.333 21 54 21c21.333 0 37.833 -6.16699 49.5 -18.5s17.5 -28.833 17.5 -49.5
c0 -22 -6.66699 -40 -20 -54s-31.333 -21 -54 -21c-21.333 0 -37.833 6.33301 -49.5 19z" />
    <glyph glyph-name="oslash" unicode="&#xf8;" horiz-adv-x="571" 
d="M520 380c14 -33.333 21 -71.6699 21 -115.003c0 -55.333 -11.167 -103.666 -33.5 -144.999s-54 -73.166 -95 -95.499s-88.833 -33.5 -143.5 -33.5c-36.667 0 -70 5.66699 -100 17l-63 -94l-56 30l-2 8l61 90c-26 21.333 -45.667 48.5 -59 81.5s-20 71.167 -20 114.5
c0 55.333 11 103.5 33 144.5s53.5 72.5 94.5 94.5s88.833 33 143.5 33c36 0 68 -5 96 -15l52 79l58 -29l1 -11l-48 -72c26 -21.333 46 -48.666 60 -81.999zM198 386.996c-18.667 -26 -28 -64.666 -28 -115.999c0 -42.667 4.33301 -80.334 13 -113.001l157 250
c-16.667 12 -37 18 -61 18c-35.333 0 -62.333 -13 -81 -39zM372 105.997c19.333 26.667 29 65.333 29 116c0 49.333 -5.66699 90.333 -17 123l-161 -256c18.667 -15.333 40.667 -23 66 -23c36 0 63.667 13.333 83 40z" />
    <glyph glyph-name="ugrave" unicode="&#xf9;" horiz-adv-x="554" 
d="M216.5 643c-37.667 25.333 -61.833 41.333 -72.5 48l-2 14l53 68l14 1c9.33301 -10.667 30.833 -33.5 64.5 -68.5l101.5 -101.5l-29 -38l-15 -4zM122.501 32c-31.667 27.333 -47.5039 69.3311 -47.5039 125.998v245c0 17.333 -1.66699 28.666 -5 33.999
s-10.666 8 -21.999 8l-25 -1l-2 3l7 56c8 0 23.833 -0.333008 47.5 -1s49.167 -1 76.5 -1c20 0 40 0.5 60 1.5s33.667 1.83301 41 2.5l-7 -58c-16 -1.33301 -27.167 -5 -33.5 -11s-10.166 -15.667 -11.499 -29l-5 -227c0 -34.667 8.16699 -62 24.5 -82s39.5 -30 69.5 -30
c62 0 93 31 93 93c0 39.333 -0.5 84.333 -1.5 135s-1.5 86.334 -1.5 107.001c0 16.667 -1.66699 27.834 -5 33.501s-10 8.5 -20 8.5l-26 -1l-2 3l8 56c7.33301 0 20.5 -0.333008 39.5 -1s37.833 -1 56.5 -1s38.834 0.5 60.501 1.5s35.834 1.83301 42.501 2.5l-5 -57
c-20 -4.66699 -32.833 -9.16699 -38.5 -13.5s-8.5 -12.5 -8.5 -24.5v-236c0 -59.333 -18.333 -104.666 -55 -135.999s-89.667 -47 -159 -47c-65.333 0 -113.833 13.667 -145.5 41z" />
    <glyph glyph-name="uacute" unicode="&#xfa;" horiz-adv-x="554" 
d="M191 564l-31 37l99.5 104.5l63.5 69.5h13l56 -67l-1 -13l-72 -50.5c-37.333 -26.333 -75 -54.5 -113 -84.5zM122.5 32c-31.667 27.333 -47.5039 69.3311 -47.5039 125.998v245c0 17.333 -1.66699 28.666 -5 33.999s-10.666 8 -21.999 8l-25 -1l-2 3l7 56
c8 0 23.833 -0.333008 47.5 -1s49.167 -1 76.5 -1c20 0 40 0.5 60 1.5s33.667 1.83301 41 2.5l-7 -58c-16 -1.33301 -27.167 -5 -33.5 -11s-10.166 -15.667 -11.499 -29l-5 -227c0 -34.667 8.16699 -62 24.5 -82s39.5 -30 69.5 -30c62 0 93 31 93 93
c0 39.333 -0.5 84.333 -1.5 135s-1.5 86.334 -1.5 107.001c0 16.667 -1.66699 27.834 -5 33.501s-10 8.5 -20 8.5l-26 -1l-2 3l8 56c7.33301 0 20.5 -0.333008 39.5 -1s37.833 -1 56.5 -1s38.834 0.5 60.501 1.5s35.834 1.83301 42.501 2.5l-5 -57
c-20 -4.66699 -32.833 -9.16699 -38.5 -13.5s-8.5 -12.5 -8.5 -24.5v-236c0 -59.333 -18.333 -104.666 -55 -135.999s-89.667 -47 -159 -47c-65.333 0 -113.833 13.667 -145.5 41z" />
    <glyph glyph-name="ucircumflex" unicode="&#xfb;" horiz-adv-x="554" 
d="M150 561l-28 40l90.5 91.5l60.5 63.5h20c8.66699 -10 28.5 -31.167 59.5 -63.5l90.5 -91.5l-28 -40l-15 -3c-24 18.667 -48.333 36.5 -73 53.5l-44 30.5c-44 -28 -83 -56 -117 -84zM122.5 32c-31.667 27.333 -47.5039 69.3311 -47.5039 125.998v245
c0 17.333 -1.66699 28.666 -5 33.999s-10.666 8 -21.999 8l-25 -1l-2 3l7 56c8 0 23.833 -0.333008 47.5 -1s49.167 -1 76.5 -1c20 0 40 0.5 60 1.5s33.667 1.83301 41 2.5l-7 -58c-16 -1.33301 -27.167 -5 -33.5 -11s-10.166 -15.667 -11.499 -29l-5 -227
c0 -34.667 8.16699 -62 24.5 -82s39.5 -30 69.5 -30c62 0 93 31 93 93c0 39.333 -0.5 84.333 -1.5 135s-1.5 86.334 -1.5 107.001c0 16.667 -1.66699 27.834 -5 33.501s-10 8.5 -20 8.5l-26 -1l-2 3l8 56c7.33301 0 20.5 -0.333008 39.5 -1s37.833 -1 56.5 -1
s38.834 0.5 60.501 1.5s35.834 1.83301 42.501 2.5l-5 -57c-20 -4.66699 -32.833 -9.16699 -38.5 -13.5s-8.5 -12.5 -8.5 -24.5v-236c0 -59.333 -18.333 -104.666 -55 -135.999s-89.667 -47 -159 -47c-65.333 0 -113.833 13.667 -145.5 41z" />
    <glyph glyph-name="udieresis" unicode="&#xfc;" horiz-adv-x="554" 
d="M140.5 607.5c-10.333 11 -15.501 25.501 -15.501 43.501c0 19.333 6.16699 35.166 18.5 47.499s28.5 18.5 48.5 18.5c18 0 32.167 -5.33301 42.5 -16s15.5 -25 15.5 -43c0 -19.333 -6.16699 -35.333 -18.5 -48s-28.166 -19 -47.499 -19c-18.667 0 -33.167 5.5 -43.5 16.5
zM318.499 607.501c-10.333 11 -15.5 25.501 -15.5 43.501c0 19.333 6.16699 35.166 18.5 47.499s28.166 18.5 47.499 18.5c18.667 0 33.167 -5.33301 43.5 -16s15.5 -25 15.5 -43c0 -19.333 -6.16699 -35.333 -18.5 -48s-28.166 -19 -47.499 -19
c-18.667 0 -33.167 5.5 -43.5 16.5zM122.499 32.002c-31.667 27.333 -47.5039 69.3311 -47.5039 125.998v245c0 17.333 -1.66699 28.666 -5 33.999s-10.666 8 -21.999 8l-25 -1l-2 3l7 56c8 0 23.833 -0.333008 47.5 -1s49.167 -1 76.5 -1c20 0 40 0.5 60 1.5
s33.667 1.83301 41 2.5l-7 -58c-16 -1.33301 -27.167 -5 -33.5 -11s-10.166 -15.667 -11.499 -29l-5 -227c0 -34.667 8.16699 -62 24.5 -82s39.5 -30 69.5 -30c62 0 93 31 93 93c0 39.333 -0.5 84.333 -1.5 135s-1.5 86.334 -1.5 107.001
c0 16.667 -1.66699 27.834 -5 33.501s-10 8.5 -20 8.5l-26 -1l-2 3l8 56c7.33301 0 20.5 -0.333008 39.5 -1s37.833 -1 56.5 -1s38.834 0.5 60.501 1.5s35.834 1.83301 42.501 2.5l-5 -57c-20 -4.66699 -32.833 -9.16699 -38.5 -13.5s-8.5 -12.5 -8.5 -24.5v-236
c0 -59.333 -18.333 -104.666 -55 -135.999s-89.667 -47 -159 -47c-65.333 0 -113.833 13.667 -145.5 41z" />
    <glyph glyph-name="thorn" unicode="&#xfe;" horiz-adv-x="496" 
d="M42 49c23.333 4 38.832 10.334 46.499 19.001s11.5 24 11.5 46l1 291c0 16 -2 26.667 -6 32s-12 8 -24 8h-27l-4 8l5 49l119 -1c14.667 0 36.334 0.666992 65.001 2s47.667 2.33301 57 3l-5 -57c-21.333 -3.33301 -35 -7 -41 -11s-9.66699 -11.667 -11 -23l-1 -14h61
c126 0 189 -47 189 -141c0 -28 -8.66699 -53.333 -26 -76s-41.333 -40.5 -72 -53.5s-64.667 -19.5 -102 -19.5h-59v-22c0 -14 2 -23.167 6 -27.5s12.333 -6.5 25 -6.5c10 0 18.333 0.333008 25 1s11 1 13 1l5 -6l-8 -53c-10 0 -28.167 0.333008 -54.5 1s-51.5 1 -75.5 1
c-19.333 0 -42 -0.833008 -68 -2.5s-43 -2.83398 -51 -3.50098zM351.999 255.001c0 26.667 -8.83301 46 -26.5 58s-45.167 18 -82.5 18c-7.33301 0 -12.333 -0.833008 -15 -2.5s-4 -5.16699 -4 -10.5c-2.66699 -64 -4 -108 -4 -132c22 -6 44 -9.66699 66 -11
c44 8 66 34.667 66 80z" />
    <glyph glyph-name="ydieresis" unicode="&#xff;" horiz-adv-x="521" 
d="M124.5 607.5c-10.333 11 -15.501 25.501 -15.501 43.501c0 19.333 6.16699 35.166 18.5 47.499s28.5 18.5 48.5 18.5c18 0 32.167 -5.33301 42.5 -16s15.5 -25 15.5 -43c0 -19.333 -6.16699 -35.333 -18.5 -48s-28.166 -19 -47.499 -19c-18.667 0 -33.167 5.5 -43.5 16.5
zM302.499 607.501c-10.333 11 -15.5 25.501 -15.5 43.501c0 19.333 6.16699 35.166 18.5 47.499s28.166 18.5 47.499 18.5c18.667 0 33.167 -5.33301 43.5 -16s15.5 -25 15.5 -43c0 -19.333 -6.16699 -35.333 -18.5 -48s-28.166 -19 -47.499 -19
c-18.667 0 -33.167 5.5 -43.5 16.5zM125.999 50.002c22 2.66699 38.333 6.16309 49 10.4961s17.834 11 21.501 20s5.5 22.167 5.5 39.5v21c0 12.667 -1.66699 24.667 -5 36s-9.33301 25 -18 41l-83 150c-12 22.667 -24.333 39.334 -37 50.001s-30.667 19 -54 25l-3 4l8 55
c8.66699 0 24 -0.333008 46 -1s43.333 -1 64 -1c17.333 0 41.5 0.833008 72.5 2.5s51.5 2.83398 61.5 3.50098l5 -8l-5 -49c-17.333 -0.666992 -29.333 -2.66699 -36 -6s-10 -9 -10 -17c0 -6 7 -24 21 -54l25 -54l19 -40h8l59 118c8.66699 15.333 13 27.333 13 36
c0 5.33301 -3.16699 9.33301 -9.5 12s-16.5 4.33398 -30.5 5.00098l-3 4l6 50l47 -1c29.333 -1.33301 51.666 -2 66.999 -2c20 0 38.167 0.333008 54.5 1s27.166 1.33398 32.499 2.00098l3 -6l-6 -52c-21.333 -7.33301 -39 -18.333 -53 -33s-29.333 -36.667 -46 -66
l-78 -140c-6.66699 -12.667 -10.667 -25.167 -12 -37.5s-2.33301 -32.833 -3 -61.5c0 -18.667 2.83301 -31.667 8.5 -39s16.167 -11 31.5 -11c9.33301 0 17.833 0.333008 25.5 1s12.834 1 15.501 1l3 -4l-8 -59c-10.667 0.666992 -30.334 1.5 -59.001 2.5
s-56.667 1.5 -84 1.5c-20 0 -45.167 -1.16699 -75.5 -3.5s-50.166 -3.83301 -59.499 -4.5z" />
    <glyph glyph-name="Amacron" unicode="&#x100;" horiz-adv-x="625" 
d="M331 0l5.00098 59c22.667 2 39.167 4.16699 49.5 6.5s17.5 5.66602 21.5 9.99902s6 10.833 6 19.5c0 8 -1.66699 19.667 -5 35l-21 77c-34.667 1.33301 -65.334 2 -92.001 2c-12 0 -37 -1.66699 -75 -5l-21 -2l-25 -77c-4 -14.667 -6 -25 -6 -31
c0 -12 3.5 -20.333 10.5 -25s19.167 -7 36.5 -7h43l5 -7l-7 -61c-9.33301 0.666992 -29.333 1.83398 -60 3.50098s-59.334 2.5 -86.001 2.5c-28 0 -53.167 -0.333008 -75.5 -1s-37.166 -1.33398 -44.499 -2.00098l7 65c15.333 2.66699 28 9 38 19s19.333 26.333 28 49
l179 507l153 16l11 -5l62.5 -233.5c31.667 -117.667 58.834 -212.167 81.501 -283.5c7.33301 -24 16.666 -41 27.999 -51s28.333 -16 51 -18l4 -7l-7 -58c-8.66699 0.666992 -25 1.33398 -49 2.00098s-48.333 1 -73 1c-35.333 -0 -69.833 -1.16699 -103.5 -3.5l-64.5 -4.5z
M295.001 286c7.33301 0 32 1 74 3l-59 223h-13l-74 -226h72zM168.001 719l13.998 73.999l154 -1c20.667 0 44.834 0.833008 72.501 2.5s45.834 2.83398 54.501 3.50098l8 -13l-12 -75l-141 -1l-139 -1z" />
    <glyph glyph-name="amacron" unicode="&#x101;" horiz-adv-x="544" 
d="M120 620l13.998 73.999l154 -1c20.667 0 44.834 0.833008 72.501 2.5s45.834 2.83398 54.501 3.50098l8 -14l-12 -75l-141 -1l-139 -1zM281.998 -0.000976562l3.99609 52.001c19.333 2 33 3.83301 41 5.5s13.5 4.16699 16.5 7.5s4.5 8.33301 4.5 15
c0 7.33301 -1.33301 15 -4 23l-14 52c-14 0.666992 -38.333 1 -73 1c-15.333 0 -40.666 -1.66699 -75.999 -5l-18 -52c-2.66699 -10 -4 -17.333 -4 -22c0 -8.66699 2.5 -14.5 7.5 -17.5s14.5 -4.5 28.5 -4.5h31l5 -7l-6 -52c-8 0.666992 -24.833 1.5 -50.5 2.5
s-49.5 1.5 -71.5 1.5c-23.333 0 -44.5 -0.333008 -63.5 -1s-31.5 -1 -37.5 -1l6 56c12 2 21.833 6.83301 29.5 14.5s14.834 19.167 21.501 34.5l144 394l147 13l10 -6l51 -184c26 -92.667 47.333 -163.667 64 -213c5.33301 -18 12.5 -31 21.5 -39s22.167 -12.667 39.5 -14
l4 -6l-6 -50c-7.33301 0 -21.166 0.333008 -41.499 1s-41.166 1 -62.499 1c-30 0 -59.333 -0.833008 -88 -2.5s-47 -2.83398 -55 -3.50098zM256.994 226c22 0 41.333 1 58 3l-45 162h-12l-55 -165h54z" />
    <glyph glyph-name="Abreve" unicode="&#x102;" horiz-adv-x="625" 
d="M331 0l5.00098 59c22.667 2 39.167 4.16699 49.5 6.5s17.5 5.66602 21.5 9.99902s6 10.833 6 19.5c0 8 -1.66699 19.667 -5 35l-21 77c-34.667 1.33301 -65.334 2 -92.001 2c-12 0 -37 -1.66699 -75 -5l-21 -2l-25 -77c-4 -14.667 -6 -25 -6 -31
c0 -12 3.5 -20.333 10.5 -25s19.167 -7 36.5 -7h43l5 -7l-7 -61c-9.33301 0.666992 -29.333 1.83398 -60 3.50098s-59.334 2.5 -86.001 2.5c-28 0 -53.167 -0.333008 -75.5 -1s-37.166 -1.33398 -44.499 -2.00098l7 65c15.333 2.66699 28 9 38 19s19.333 26.333 28 49
l179 507l153 16l11 -5l62.5 -233.5c31.667 -117.667 58.834 -212.167 81.501 -283.5c7.33301 -24 16.666 -41 27.999 -51s28.333 -16 51 -18l4 -7l-7 -58c-8.66699 0.666992 -25 1.33398 -49 2.00098s-48.333 1 -73 1c-35.333 -0 -69.833 -1.16699 -103.5 -3.5l-64.5 -4.5z
M295.001 286c7.33301 0 32 1 74 3l-59 223h-13l-74 -226h72zM220.501 727c-24.333 22 -41.5 49.333 -51.5 82l27 34l16 3c9.33301 -19.333 23 -34 41 -44s38.667 -15 62 -15s44 5 62 15s31.667 24.667 41 44l16 -3l27 -34c-10 -32.667 -27.167 -60 -51.5 -82
s-55.833 -33 -94.5 -33s-70.167 11 -94.5 33z" />
    <glyph glyph-name="abreve" unicode="&#x103;" horiz-adv-x="544" 
d="M177 603.5c-24.667 23.667 -41.665 52.834 -50.998 87.501l27 34l16 3c9.33301 -22 23 -38.833 41 -50.5s38.667 -17.5 62 -17.5s44 5.83301 62 17.5s31.667 28.5 41 50.5l16 -3l27 -34c-9.33301 -34.667 -26.333 -63.834 -51 -87.501s-56.334 -35.5 -95.001 -35.5
s-70.334 11.833 -95.001 35.5zM282.002 0l3.99609 52.001c19.333 2 33 3.83301 41 5.5s13.5 4.16699 16.5 7.5s4.5 8.33301 4.5 15c0 7.33301 -1.33301 15 -4 23l-14 52c-14 0.666992 -38.333 1 -73 1c-15.333 0 -40.666 -1.66699 -75.999 -5l-18 -52
c-2.66699 -10 -4 -17.333 -4 -22c0 -8.66699 2.5 -14.5 7.5 -17.5s14.5 -4.5 28.5 -4.5h31l5 -7l-6 -52c-8 0.666992 -24.833 1.5 -50.5 2.5s-49.5 1.5 -71.5 1.5c-23.333 0 -44.5 -0.333008 -63.5 -1s-31.5 -1 -37.5 -1l6 56c12 2 21.833 6.83301 29.5 14.5
s14.834 19.167 21.501 34.5l144 394l147 13l10 -6l51 -184c26 -92.667 47.333 -163.667 64 -213c5.33301 -18 12.5 -31 21.5 -39s22.167 -12.667 39.5 -14l4 -6l-6 -50c-7.33301 0 -21.166 0.333008 -41.499 1s-41.166 1 -62.499 1c-30 0 -59.333 -0.833008 -88 -2.5
s-47 -2.83398 -55 -3.50098zM256.998 226.001c22 0 41.333 1 58 3l-45 162h-12l-55 -165h54z" />
    <glyph glyph-name="Aogonek" unicode="&#x104;" horiz-adv-x="625" 
d="M331 0l5.00098 59c22.667 2 39.167 4.16699 49.5 6.5s17.5 5.66602 21.5 9.99902s6 10.833 6 19.5c0 8 -1.66699 19.667 -5 35l-21 77c-34.667 1.33301 -65.334 2 -92.001 2c-12 0 -37 -1.66699 -75 -5l-21 -2l-25 -77c-4 -14.667 -6 -25 -6 -31
c0 -12 3.5 -20.333 10.5 -25s19.167 -7 36.5 -7h43l5 -7l-7 -61c-9.33301 0.666992 -29.333 1.83398 -60 3.50098s-59.334 2.5 -86.001 2.5c-28 0 -53.167 -0.333008 -75.5 -1s-37.166 -1.33398 -44.499 -2.00098l7 65c15.333 2.66699 28 9 38 19s19.333 26.333 28 49
l179 507l153 16l11 -5l62.5 -233.5c31.667 -117.667 58.834 -212.167 81.501 -283.5c7.33301 -24 16.666 -41 27.999 -51s28.333 -16 51 -18l4 -7l-7 -58c-8.66699 0.666992 -25 1.33398 -49 2.00098s-48.333 1 -73 1c-35.333 -0 -69.833 -1.16699 -103.5 -3.5l-64.5 -4.5z
M295.001 286c7.33301 0 32 1 74 3l-59 223h-13l-74 -226h72zM442.001 -214.5c-22 17.667 -33.002 40.832 -33.002 69.499c0 14.667 3.16699 28.834 9.5 42.501s18.166 31 35.499 52s45 51.833 83 92.5h60c-38.667 -48.667 -64.5 -84 -77.5 -106s-19.5 -41 -19.5 -57
c0 -12.667 3.83301 -22.667 11.5 -30s17.834 -11 30.501 -11c10 0 21.333 2.16699 34 6.5s24.334 9.83301 35.001 16.5l22 -34c-18.667 -18 -37.167 -33 -55.5 -45s-35.166 -19.667 -50.499 -23c-34.667 0 -63 8.83301 -85 26.5z" />
    <glyph glyph-name="aogonek" unicode="&#x105;" horiz-adv-x="544" 
d="M551 -174c-17.333 -17.333 -35.333 -32.001 -54 -44.001s-35.334 -19.667 -50.001 -23c-34 0 -61.833 8.66699 -83.5 26s-32.5 40 -32.5 68c0 19.333 5.66699 38.333 17 57s36 48.667 74 90c-28.667 0 -56.5 -0.833008 -83.5 -2.5s-44.167 -2.83398 -51.5 -3.50098l-5 6
l4 52c19.333 2 33 3.83301 41 5.5s13.5 4.16699 16.5 7.5s4.5 8.33301 4.5 15c0 7.33301 -1.33301 15 -4 23l-14 52c-14 0.666992 -38.333 1 -73 1c-15.333 0 -40.666 -1.66699 -75.999 -5l-18 -52c-2.66699 -10 -4 -17.333 -4 -22c0 -8.66699 2.5 -14.5 7.5 -17.5
s14.5 -4.5 28.5 -4.5h31l5 -7l-6 -52c-8 0.666992 -24.833 1.5 -50.5 2.5s-49.5 1.5 -71.5 1.5c-23.333 0 -44.5 -0.333008 -63.5 -1s-31.5 -1 -37.5 -1l6 56c12 2 21.833 6.83301 29.5 14.5s14.834 19.167 21.501 34.5l144 394l147 13l10 -6l51 -184
c26 -92.667 47.333 -163.667 64 -213c5.33301 -18 12.5 -31 21.5 -39s22.167 -12.667 39.5 -14l4 -6l-6 -50c-2.66699 0 -8.33398 0.166992 -17.001 0.5s-19 0.5 -31 0.5c-25.333 -33.333 -42.666 -58.666 -51.999 -75.999s-14 -32.666 -14 -45.999
c0 -12.667 3.66699 -22.5 11 -29.5s17.666 -10.5 30.999 -10.5c9.33301 0 20.333 2 33 6s24 9.33301 34 16zM315 228.999l-45 162h-12l-55 -165h54c22 0 41.333 1 58 3z" />
    <glyph glyph-name="Cacute" unicode="&#x106;" horiz-adv-x="616" 
d="M168 26c-44.667 25.333 -79.001 61.666 -103.001 108.999s-36 103.333 -36 168c0 70.667 14.333 132.334 43 185.001s69.5 93.5 122.5 122.5s114.5 43.5 184.5 43.5c24.667 0 51.167 -1.83301 79.5 -5.5s52.5 -7.5 72.5 -11.5s32.667 -6.66699 38 -8l6 -13
c-1.33301 -4.66699 -3.66602 -15.334 -6.99902 -32.001s-7 -39 -11 -67s-7 -57.667 -9 -89l-95 -6c0 2.66699 0.333008 8.83398 1 18.501s1 20.834 1 33.501c0 29.333 -9 50.833 -27 64.5s-46.333 20.5 -85 20.5c-52.667 0 -92.834 -18.667 -120.501 -56
s-41.5 -92.333 -41.5 -165c0 -82 14.833 -145.667 44.5 -191s71.167 -68 124.5 -68c36.667 0 65.334 11.167 86.001 33.5s35 57.833 43 106.5l96 6c-2 -11.333 -5.5 -36.333 -10.5 -75s-8.16699 -75.334 -9.5 -110.001l-10 -12c0 -0.666992 -11.167 -4.5 -33.5 -11.5
s-49.666 -13.5 -81.999 -19.5s-66.833 -9 -103.5 -9c-60.667 0 -113.334 12.667 -158.001 38zM274.999 706l-13 44.998l134.5 62.5l87.5 42.5l12 -5l25 -75l-5 -13c-13.333 -3.33301 -42.833 -11.166 -88.5 -23.499s-92.167 -26.166 -139.5 -41.499z" />
    <glyph glyph-name="cacute" unicode="&#x107;" horiz-adv-x="524" 
d="M201 564l-31 37l99.5 104.5l63.5 69.5h13l56 -67l-1 -13l-72 -50.5c-37.333 -26.333 -75 -54.5 -113 -84.5zM95 56.5c-43.333 43.667 -65.002 104.167 -65.002 181.5c0 55.333 11.667 103.5 35 144.5s56.833 72.5 100.5 94.5s94.834 33 153.501 33
c20.667 0 43 -1.5 67 -4.5s44.5 -6 61.5 -9s27.833 -5.16699 32.5 -6.5l5 -11c-0.666992 -3.33301 -2.5 -11.833 -5.5 -25.5s-6.16699 -31.834 -9.5 -54.501s-5.66602 -46.667 -6.99902 -72l-90 -6c0 2 0.166992 6.83301 0.5 14.5s0.5 16.834 0.5 27.501
c0 22 -6.66699 38 -20 48s-34.333 15 -63 15c-40.667 0 -71 -13.167 -91 -39.5s-30 -66.833 -30 -121.5c0 -61.333 11 -108.5 33 -141.5s53 -49.5 93 -49.5c28 0 49.667 8 65 24s26 42.333 32 79l90 6c-1.33301 -9.33301 -4 -29.833 -8 -61.5s-6.33301 -61.5 -7 -89.5
l-9 -10c-4 -1.33301 -14.333 -4.5 -31 -9.5s-38.667 -9.83301 -66 -14.5s-56.333 -7 -87 -7c-76.667 0 -136.667 21.833 -180 65.5z" />
    <glyph glyph-name="Ccircumflex" unicode="&#x108;" horiz-adv-x="616" 
d="M168 26c-44.667 25.333 -79.001 61.666 -103.001 108.999s-36 103.333 -36 168c0 70.667 14.333 132.334 43 185.001s69.5 93.5 122.5 122.5s114.5 43.5 184.5 43.5c24.667 0 51.167 -1.83301 79.5 -5.5s52.5 -7.5 72.5 -11.5s32.667 -6.66699 38 -8l6 -13
c-1.33301 -4.66699 -3.66602 -15.334 -6.99902 -32.001s-7 -39 -11 -67s-7 -57.667 -9 -89l-95 -6c0 2.66699 0.333008 8.83398 1 18.501s1 20.834 1 33.501c0 29.333 -9 50.833 -27 64.5s-46.333 20.5 -85 20.5c-52.667 0 -92.834 -18.667 -120.501 -56
s-41.5 -92.333 -41.5 -165c0 -82 14.833 -145.667 44.5 -191s71.167 -68 124.5 -68c36.667 0 65.334 11.167 86.001 33.5s35 57.833 43 106.5l96 6c-2 -11.333 -5.5 -36.333 -10.5 -75s-8.16699 -75.334 -9.5 -110.001l-10 -12c0 -0.666992 -11.167 -4.5 -33.5 -11.5
s-49.666 -13.5 -81.999 -19.5s-66.833 -9 -103.5 -9c-60.667 0 -113.334 12.667 -158.001 38zM207.999 708l-28 40l90.5 91.5l60.5 63.5h20c8.66699 -10 28.5 -31.167 59.5 -63.5l90.5 -91.5l-28 -40l-15 -3c-24 18.667 -48.333 36.5 -73 53.5l-44 30.5
c-44 -28 -83 -56 -117 -84z" />
    <glyph glyph-name="ccircumflex" unicode="&#x109;" horiz-adv-x="524" 
d="M161 561l-28 40l90.5 91.5l60.5 63.5h20c8.66699 -10 28.5 -31.167 59.5 -63.5l90.5 -91.5l-28 -40l-15 -3c-24 18.667 -48.333 36.5 -73 53.5l-44 30.5c-44 -28 -83 -56 -117 -84zM95 56.5c-43.333 43.667 -65.002 104.167 -65.002 181.5
c0 55.333 11.667 103.5 35 144.5s56.833 72.5 100.5 94.5s94.834 33 153.501 33c20.667 0 43 -1.5 67 -4.5s44.5 -6 61.5 -9s27.833 -5.16699 32.5 -6.5l5 -11c-0.666992 -3.33301 -2.5 -11.833 -5.5 -25.5s-6.16699 -31.834 -9.5 -54.501s-5.66602 -46.667 -6.99902 -72
l-90 -6c0 2 0.166992 6.83301 0.5 14.5s0.5 16.834 0.5 27.501c0 22 -6.66699 38 -20 48s-34.333 15 -63 15c-40.667 0 -71 -13.167 -91 -39.5s-30 -66.833 -30 -121.5c0 -61.333 11 -108.5 33 -141.5s53 -49.5 93 -49.5c28 0 49.667 8 65 24s26 42.333 32 79l90 6
c-1.33301 -9.33301 -4 -29.833 -8 -61.5s-6.33301 -61.5 -7 -89.5l-9 -10c-4 -1.33301 -14.333 -4.5 -31 -9.5s-38.667 -9.83301 -66 -14.5s-56.333 -7 -87 -7c-76.667 0 -136.667 21.833 -180 65.5z" />
    <glyph glyph-name="Cdotaccent" unicode="&#x10a;" horiz-adv-x="616" 
d="M168 26c-44.667 25.333 -79.001 61.666 -103.001 108.999s-36 103.333 -36 168c0 70.667 14.333 132.334 43 185.001s69.5 93.5 122.5 122.5s114.5 43.5 184.5 43.5c24.667 0 51.167 -1.83301 79.5 -5.5s52.5 -7.5 72.5 -11.5s32.667 -6.66699 38 -8l6 -13
c-1.33301 -4.66699 -3.66602 -15.334 -6.99902 -32.001s-7 -39 -11 -67s-7 -57.667 -9 -89l-95 -6c0 2.66699 0.333008 8.83398 1 18.501s1 20.834 1 33.501c0 29.333 -9 50.833 -27 64.5s-46.333 20.5 -85 20.5c-52.667 0 -92.834 -18.667 -120.501 -56
s-41.5 -92.333 -41.5 -165c0 -82 14.833 -145.667 44.5 -191s71.167 -68 124.5 -68c36.667 0 65.334 11.167 86.001 33.5s35 57.833 43 106.5l96 6c-2 -11.333 -5.5 -36.333 -10.5 -75s-8.16699 -75.334 -9.5 -110.001l-10 -12c0 -0.666992 -11.167 -4.5 -33.5 -11.5
s-49.666 -13.5 -81.999 -19.5s-66.833 -9 -103.5 -9c-60.667 0 -113.334 12.667 -158.001 38zM293.999 715.5c-12 13 -18.001 30.167 -18.001 51.5c0 24 7.16699 43.333 21.5 58s33.5 22 57.5 22c21.333 0 38 -6.5 50 -19.5s18 -30.167 18 -51.5
c0 -23.333 -7.16699 -42.5 -21.5 -57.5s-33.166 -22.5 -56.499 -22.5c-22 0 -39 6.5 -51 19.5z" />
    <glyph glyph-name="cdotaccent" unicode="&#x10b;" horiz-adv-x="524" 
d="M232 617c-12 12.667 -18.001 29.667 -18.001 51c0 24 7.16699 43.333 21.5 58s33.5 22 57.5 22c21.333 0 38 -6.5 50 -19.5s18 -30.167 18 -51.5c0 -23.333 -7.16699 -42.333 -21.5 -57s-33.166 -22 -56.499 -22c-22 0 -39 6.33301 -51 19zM94.999 56.5
c-43.333 43.667 -65.002 104.167 -65.002 181.5c0 55.333 11.667 103.5 35 144.5s56.833 72.5 100.5 94.5s94.834 33 153.501 33c20.667 0 43 -1.5 67 -4.5s44.5 -6 61.5 -9s27.833 -5.16699 32.5 -6.5l5 -11c-0.666992 -3.33301 -2.5 -11.833 -5.5 -25.5
s-6.16699 -31.834 -9.5 -54.501s-5.66602 -46.667 -6.99902 -72l-90 -6c0 2 0.166992 6.83301 0.5 14.5s0.5 16.834 0.5 27.501c0 22 -6.66699 38 -20 48s-34.333 15 -63 15c-40.667 0 -71 -13.167 -91 -39.5s-30 -66.833 -30 -121.5c0 -61.333 11 -108.5 33 -141.5
s53 -49.5 93 -49.5c28 0 49.667 8 65 24s26 42.333 32 79l90 6c-1.33301 -9.33301 -4 -29.833 -8 -61.5s-6.33301 -61.5 -7 -89.5l-9 -10c-4 -1.33301 -14.333 -4.5 -31 -9.5s-38.667 -9.83301 -66 -14.5s-56.333 -7 -87 -7c-76.667 0 -136.667 21.833 -180 65.5z" />
    <glyph glyph-name="Ccaron" unicode="&#x10c;" horiz-adv-x="616" 
d="M168 26c-44.667 25.333 -79.001 61.666 -103.001 108.999s-36 103.333 -36 168c0 70.667 14.333 132.334 43 185.001s69.5 93.5 122.5 122.5s114.5 43.5 184.5 43.5c24.667 0 51.167 -1.83301 79.5 -5.5s52.5 -7.5 72.5 -11.5s32.667 -6.66699 38 -8l6 -13
c-1.33301 -4.66699 -3.66602 -15.334 -6.99902 -32.001s-7 -39 -11 -67s-7 -57.667 -9 -89l-95 -6c0 2.66699 0.333008 8.83398 1 18.501s1 20.834 1 33.501c0 29.333 -9 50.833 -27 64.5s-46.333 20.5 -85 20.5c-52.667 0 -92.834 -18.667 -120.501 -56
s-41.5 -92.333 -41.5 -165c0 -82 14.833 -145.667 44.5 -191s71.167 -68 124.5 -68c36.667 0 65.334 11.167 86.001 33.5s35 57.833 43 106.5l96 6c-2 -11.333 -5.5 -36.333 -10.5 -75s-8.16699 -75.334 -9.5 -110.001l-10 -12c0 -0.666992 -11.167 -4.5 -33.5 -11.5
s-49.666 -13.5 -81.999 -19.5s-66.833 -9 -103.5 -9c-60.667 0 -113.334 12.667 -158.001 38zM276.499 747.5l-93.499 72.501l23 40l15 4c37.333 -18.667 79.666 -38.334 126.999 -59.001c36.667 15.333 78.667 35 126 59l15 -4l24 -40l-93.5 -72.5l-61.5 -50.5h-20z" />
    <glyph glyph-name="ccaron" unicode="&#x10d;" horiz-adv-x="524" 
d="M216 624.5l-93 93.5l29 41l15 4c34 -28 74.333 -57 121 -87c45.333 30 85.333 59 120 87l15 -4l29 -41l-93.5 -93.5l-61.5 -64.5h-20zM95 56.5c-43.333 43.667 -65.002 104.167 -65.002 181.5c0 55.333 11.667 103.5 35 144.5s56.833 72.5 100.5 94.5
s94.834 33 153.501 33c20.667 0 43 -1.5 67 -4.5s44.5 -6 61.5 -9s27.833 -5.16699 32.5 -6.5l5 -11c-0.666992 -3.33301 -2.5 -11.833 -5.5 -25.5s-6.16699 -31.834 -9.5 -54.501s-5.66602 -46.667 -6.99902 -72l-90 -6c0 2 0.166992 6.83301 0.5 14.5
s0.5 16.834 0.5 27.501c0 22 -6.66699 38 -20 48s-34.333 15 -63 15c-40.667 0 -71 -13.167 -91 -39.5s-30 -66.833 -30 -121.5c0 -61.333 11 -108.5 33 -141.5s53 -49.5 93 -49.5c28 0 49.667 8 65 24s26 42.333 32 79l90 6c-1.33301 -9.33301 -4 -29.833 -8 -61.5
s-6.33301 -61.5 -7 -89.5l-9 -10c-4 -1.33301 -14.333 -4.5 -31 -9.5s-38.667 -9.83301 -66 -14.5s-56.333 -7 -87 -7c-76.667 0 -136.667 21.833 -180 65.5z" />
    <glyph glyph-name="Dcaron" unicode="&#x10e;" horiz-adv-x="694" 
d="M252.5 -5c-33 3.33301 -61.498 5.00195 -85.498 5.00195c-22 0 -46.667 -1.33301 -74 -4s-45 -4.66699 -53 -6l6 67c28.667 4.66699 48 13 58 25s15 32 15 60v381c0 21.333 -2 35.666 -6 42.999s-12.333 11 -25 11c-7.33301 0 -14.333 -0.333008 -21 -1s-11 -1 -13 -1
l-5 9l8 61c9.33301 0 26.666 -0.5 51.999 -1.5s50 -1.5 74 -1.5c29.333 0 60 0.5 92 1.5s54 1.83301 66 2.5c66.667 0 124.334 -12 173.001 -36s86 -58.333 112 -103s39 -98 39 -160c0 -69.333 -14.833 -131.333 -44.5 -186s-70.834 -97.167 -123.501 -127.5
s-112.334 -45.5 -179.001 -45.5c-10.667 1.33301 -32.5 3.66602 -65.5 6.99902zM265.002 557.002c-4 -3.33301 -6.33203 -9.66797 -6.99902 -19.001c-8.66699 -186 -13 -317 -13 -393c0 -20 2.33301 -35.167 7 -45.5s13.167 -17.5 25.5 -21.5s30.166 -6 53.499 -6
c58.667 0 103.5 20.667 134.5 62s46.5 102 46.5 182c0 84.667 -18.5 146.834 -55.5 186.501s-93.5 59.5 -169.5 59.5c-10.667 0 -18 -1.66699 -22 -5zM266.503 747.5l-93.499 72.501l23 40l15 4c37.333 -18.667 79.666 -38.334 126.999 -59.001
c36.667 15.333 78.667 35 126 59l15 -4l24 -40l-93.5 -72.5l-61.5 -50.5h-20z" />
    <glyph glyph-name="dcaron" unicode="&#x10f;" horiz-adv-x="588" 
d="M222 624.5l-93 93.5l29 41l15 4c34 -28 74.333 -57 121 -87c45.333 30 85.333 59 120 87l15 -4l29 -41l-93.5 -93.5l-61.5 -64.5h-20zM217 -3.5c-27.333 2.33301 -51.001 3.49902 -71.001 3.49902c-18.667 0 -39.5 -1.16699 -62.5 -3.5s-38.167 -3.83301 -45.5 -4.5l5 59
c22.667 3.33301 38 9.5 46 18.5s12 24.5 12 46.5l1 287c0 16.667 -1.83301 27.834 -5.5 33.501s-10.167 8.5 -19.5 8.5c-6 0 -11.5 -0.333008 -16.5 -1s-8.5 -1 -10.5 -1l-5 8l7 52c8 0 23 -0.333008 45 -1s43 -1 63 -1c24.667 0 50.334 0.5 77.001 1.5s45 1.83301 55 2.5
c84 0 149.333 -20.333 196 -61s70 -98.334 70 -173.001c0 -55.333 -12 -104.166 -36 -146.499s-57.833 -75.166 -101.5 -98.499s-93.5 -35 -149.5 -35c-8.66699 1.33301 -26.667 3.16602 -54 5.49902zM233.499 424.999c-3 -2.66699 -4.83301 -7.66699 -5.5 -15
c-6.66699 -130 -10 -227.667 -10 -293c0 -20.667 4.16699 -34.334 12.5 -41.001s24.5 -10 48.5 -10c92 0 138 60 138 180c0 64.667 -13.333 111.334 -40 140.001s-68.667 43 -126 43c-8.66699 0 -14.5 -1.33301 -17.5 -4z" />
    <glyph glyph-name="Dcroat" unicode="&#x110;" horiz-adv-x="709" 
d="M266.5 -5c-33 3.33301 -61.501 5.00195 -85.501 5.00195c-21.333 0 -45.666 -1.33301 -72.999 -4s-45.333 -4.66699 -54 -6l7 67c21.333 4 36.833 9.16699 46.5 15.5s16.334 16 20.001 29s5.5 33.167 5.5 60.5v125h-117l-8 7l10 58h115v171c0 21.333 -2 35.666 -6 42.999
s-12.333 11 -25 11c-7.33301 0 -14.166 -0.333008 -20.499 -1s-10.5 -1 -12.5 -1l-6 9l8 61c9.33301 0 26.666 -0.5 51.999 -1.5s50 -1.5 74 -1.5c28 0 58.167 0.5 90.5 1.5s54.833 1.83301 67.5 2.5c66.667 0 124.334 -12 173.001 -36s86 -58.5 112 -103.5
s39 -98.167 39 -159.5c0 -69.333 -14.833 -131.333 -44.5 -186s-70.834 -97.167 -123.501 -127.5s-112.334 -45.5 -179.001 -45.5c-10.667 1.33301 -32.5 3.66602 -65.5 6.99902zM390.999 354.002l6 -9.00195l-6 -58h-129l-3 -142c0 -20 2.5 -35.167 7.5 -45.5
s13.5 -17.5 25.5 -21.5s29.667 -6 53 -6c59.333 0 104.333 20.667 135 62s46 102 46 182c0 84.667 -18.5 146.834 -55.5 186.501s-93.5 59.5 -169.5 59.5c-10.667 0 -18 -1.66699 -22 -5s-6.33301 -9.66602 -7 -18.999l-8 -186z" />
    <glyph glyph-name="dcroat" unicode="&#x111;" horiz-adv-x="602" 
d="M230.5 -3.5c-27.667 2.33301 -51.5 3.50098 -71.5 3.50098c-18 0 -38.667 -1.16699 -62 -3.5s-38.666 -3.83301 -45.999 -4.5l6 59c24 3.33301 39.667 10 47 20s11 29 11 57v91h-92l-7 5l9 53h90v126c0 16.667 -1.66699 27.834 -5 33.501s-10 8.5 -20 8.5
c-6 0 -11.333 -0.333008 -16 -1s-8 -1 -10 -1l-6 8l7 52c8 0 23 -0.333008 45 -1s43.333 -1 64 -1c22.667 0 47.667 0.5 75 1.5s46.333 1.83301 57 2.5c83.333 0 148.333 -20.5 195 -61.5s70 -98.5 70 -172.5c0 -54.667 -12 -103.334 -36 -146.001s-57.667 -75.667 -101 -99
s-93 -35 -149 -35c-8.66699 1.33301 -26.834 3.16602 -54.501 5.49902zM330 278.001l6 -5.99902l-6 -53h-97l-1 -102c0 -20.667 4.16699 -34.334 12.5 -41.001s24.5 -10 48.5 -10c91.333 0 137 60 137 180c0 64.667 -13.333 111.5 -40 140.5s-68.667 43.5 -126 43.5
c-8.66699 0 -14.5 -1.5 -17.5 -4.5s-4.5 -8.16699 -4.5 -15.5l-7 -133z" />
    <glyph glyph-name="Emacron" unicode="&#x112;" horiz-adv-x="596" 
d="M557 189c-10.667 -52 -19.6689 -113.666 -27.002 -184.999l-10 -11c-127.333 4.66699 -231 7 -311 7c-56 0 -113 -3.33301 -171 -10l7 67c28 4 47 12 57 24s15 32.667 15 62l1 381c0 22 -2 36.5 -6 43.5s-12.667 10.5 -26 10.5c-8.66699 0 -19 -0.666992 -31 -2l-6 9
l8 60h20c47.333 -2 101 -3 161 -3c148.667 0 250 4 304 12l8 -11c-5.33301 -24.667 -10.166 -54 -14.499 -88s-7.16602 -65 -8.49902 -93l-89 -6l2 40c0 20 -2.83301 34.167 -8.5 42.5s-17 14 -34 17s-45.5 4.5 -85.5 4.5c-17.333 0 -29.333 -0.666992 -36 -2
s-11.167 -4.33301 -13.5 -9s-3.83301 -12.334 -4.5 -23.001l-7 -157l94 -1c14 0 31.5 0.833008 52.5 2.5s42.167 3.83398 63.5 6.50098l8 -9l-14 -85c-8.66699 0 -15.334 0.333008 -20.001 1c-46.667 1.33301 -83.667 2 -111 2c-20.667 0 -46.334 -2 -77.001 -6l-2 -143
c0 -18.667 1.5 -32 4.5 -40s8.66699 -13.333 17 -16s22.833 -4 43.5 -4c44 0 75.833 2.5 95.5 7.5s33.834 15.167 42.501 30.5s15.334 40.666 20.001 75.999l82 7zM167.998 719.001l13.998 73.999l154 -1c20.667 0 44.834 0.833008 72.501 2.5
s45.834 2.83398 54.501 3.50098l8 -13l-12 -75l-141 -1l-139 -1z" />
    <glyph glyph-name="emacron" unicode="&#x113;" horiz-adv-x="512" 
d="M110 620l13.998 73.999l154 -1c20.667 0 44.834 0.833008 72.501 2.5s45.834 2.83398 54.501 3.50098l8 -14l-12 -75l-141 -1l-139 -1zM41.998 49.999c22.667 2.66699 38.001 8.83105 46.001 18.498s12 26.167 12 49.5l1 285c0 16.667 -1.66699 27.834 -5 33.501
s-10.333 8.5 -21 8.5l-24 -1l-6 8l7 51c10.667 0 31.167 -0.333008 61.5 -1s62.833 -1 97.5 -1c118 0 202 3 252 9l7 -9c-2 -8.66699 -5.16699 -27.5 -9.5 -56.5s-7.5 -58.833 -9.5 -89.5l-83 -5c0 2 0.333008 6.16699 1 12.5s1 12.5 1 18.5c0 14.667 -2.33301 25 -7 31
s-13.667 10.167 -27 12.5s-35.333 3.5 -66 3.5c-18 0 -29.167 -1.33301 -33.5 -4s-6.83301 -9.33398 -7.5 -20.001l-5 -113h74c12 0 29 0.833008 51 2.5s36.667 2.83398 44 3.50098l8 -9l-12 -72c-7.33301 0 -21.166 0.333008 -41.499 1s-41.833 1 -64.5 1
c-18 0 -38.667 -1.66699 -62 -5c-1.33301 -32 -2 -64.667 -2 -98c0 -14.667 1 -25 3 -31s6.33301 -10.167 13 -12.5s18 -3.5 34 -3.5c33.333 0 57.666 2.16699 72.999 6.5s26.333 12.333 33 24s12 30.834 16 57.501l76 6l8 -9c-2 -8 -5.5 -26.667 -10.5 -56
s-9.16699 -60.333 -12.5 -93l-9 -9c-16.667 0.666992 -52.834 1.66699 -108.501 3s-105.834 2 -150.501 2c-31.333 0 -61.666 -1.16699 -90.999 -3.5l-57 -4.5z" />
    <glyph glyph-name="Ebreve" unicode="&#x114;" horiz-adv-x="596" 
d="M557 189c-10.667 -52 -19.6689 -113.666 -27.002 -184.999l-10 -11c-127.333 4.66699 -231 7 -311 7c-56 0 -113 -3.33301 -171 -10l7 67c28 4 47 12 57 24s15 32.667 15 62l1 381c0 22 -2 36.5 -6 43.5s-12.667 10.5 -26 10.5c-8.66699 0 -19 -0.666992 -31 -2l-6 9
l8 60h20c47.333 -2 101 -3 161 -3c148.667 0 250 4 304 12l8 -11c-5.33301 -24.667 -10.166 -54 -14.499 -88s-7.16602 -65 -8.49902 -93l-89 -6l2 40c0 20 -2.83301 34.167 -8.5 42.5s-17 14 -34 17s-45.5 4.5 -85.5 4.5c-17.333 0 -29.333 -0.666992 -36 -2
s-11.167 -4.33301 -13.5 -9s-3.83301 -12.334 -4.5 -23.001l-7 -157l94 -1c14 0 31.5 0.833008 52.5 2.5s42.167 3.83398 63.5 6.50098l8 -9l-14 -85c-8.66699 0 -15.334 0.333008 -20.001 1c-46.667 1.33301 -83.667 2 -111 2c-20.667 0 -46.334 -2 -77.001 -6l-2 -143
c0 -18.667 1.5 -32 4.5 -40s8.66699 -13.333 17 -16s22.833 -4 43.5 -4c44 0 75.833 2.5 95.5 7.5s33.834 15.167 42.501 30.5s15.334 40.666 20.001 75.999l82 7zM231.998 734.501c-24.667 23.667 -41.665 52.834 -50.998 87.501l27 34l16 3
c9.33301 -22 23 -38.833 41 -50.5s38.667 -17.5 62 -17.5s44 5.83301 62 17.5s31.667 28.5 41 50.5l16 -3l27 -34c-9.33301 -34.667 -26.333 -63.834 -51 -87.501s-56.334 -35.5 -95.001 -35.5s-70.334 11.833 -95.001 35.5z" />
    </font>
</defs>
</svg>
