<svg width="100" height="100" viewBox="0 0 100 100" fill="none" xmlns="http://www.w3.org/2000/svg">
<g clip-path="url(#clip0)">
<path d="M99.428 32.994L91.6155 25.1815C90.8528 24.4188 89.6161 24.4188 88.8532 25.1815L53.6969 60.3377C53.4825 60.5522 53.321 60.8135 53.2251 61.1012L49.3188 72.8199C49.0848 73.5217 49.2675 74.2955 49.7907 74.8186C50.3149 75.3442 51.0952 75.5233 51.7893 75.2904L63.5081 71.3842C63.7958 71.2883 64.0571 71.1268 64.2716 70.9123L99.4278 35.7561C100.191 34.9934 100.191 33.7567 99.428 32.994ZM62.8907 66.7692L57.8403 61.7188L80.4688 39.0902L85.5192 44.1406L62.8907 66.7692ZM55.9317 65.3346L59.2749 68.6777L54.26 70.3494L55.9317 65.3346ZM90.8065 38.8533L85.7561 33.8029L90.2345 29.3246L95.2848 34.375L90.8065 38.8533Z" fill="#ABD0D3"/>
<path d="M25.3906 12.8906H1.95312C0.874414 12.8906 0 13.765 0 14.8438V85.1562C0 86.235 0.874414 87.1094 1.95312 87.1094H25.3906C26.4693 87.1094 27.3438 86.235 27.3438 85.1562V14.8438C27.3438 13.765 26.4693 12.8906 25.3906 12.8906ZM3.90625 16.7969H7.8125V83.2031H3.90625V16.7969ZM11.7188 83.2031V16.7969H23.4375V20.7031H17.5781C14.9867 20.8063 14.9887 24.5072 17.5781 24.6094H23.4375V34.375H19.5312C16.9398 34.4781 16.9418 38.1791 19.5312 38.2812H23.4375V48.0469H17.5781C14.9867 48.15 14.9887 51.851 17.5781 51.9531H23.4375V61.7188H19.5312C16.9398 61.8219 16.9418 65.5229 19.5312 65.625H23.4375V75.3906H17.5781C14.9867 75.4938 14.9887 79.1947 17.5781 79.2969H23.4375V83.2031H11.7188Z" fill="#ABD0D3"/>
<path d="M44.1406 16.7969C46.732 16.6937 46.7301 12.9928 44.1406 12.8906H36.3281C33.7367 12.9937 33.7387 16.6947 36.3281 16.7969H38.2813V83.2031H36.3281C33.7367 83.3063 33.7387 87.0072 36.3281 87.1094H44.1406C46.732 87.0062 46.7301 83.3053 44.1406 83.2031H42.1875V16.7969H44.1406Z" fill="#ABD0D3"/>
</g>
<defs>
<clipPath id="clip0">
<rect width="100" height="100" fill="white"/>
</clipPath>
</defs>
</svg>
