<svg width="16" height="16" viewBox="0 0 16 16" fill="none" xmlns="http://www.w3.org/2000/svg">
<g clip-path="url(#clip0)">
<path d="M15.5394 11.9942L13.2269 9.68065C12.9163 9.37168 12.5004 9.20144 12.056 9.20144C11.5936 9.20144 11.1569 9.38353 10.8268 9.71388L9.9266 10.6139C9.22711 10.2251 8.29741 9.69032 7.33217 8.72507C6.36805 7.76063 5.83324 6.83364 5.44246 6.13038L6.34349 5.23C7.0134 4.55871 7.0271 3.48174 6.37414 2.82937L4.06207 0.51724C3.75237 0.206678 3.3365 0.0356445 2.89098 0.0356445C2.43884 0.0356445 2.01112 0.209723 1.68289 0.526572C1.48432 0.686486 0.487837 1.56615 0.116448 3.38027C-0.403538 5.9195 0.791184 8.36262 4.24019 11.813C8.09302 15.6647 11.3822 15.964 12.2985 15.964C12.4893 15.964 12.6044 15.9522 12.6351 15.9487C14.4319 15.7381 15.0753 14.9401 15.545 14.3574C16.1537 13.6023 16.1516 12.6086 15.5394 11.9942ZM14.7721 13.7342C14.3305 14.2819 13.9135 14.7991 12.5196 14.9625C12.5188 14.9626 12.4426 14.9711 12.2985 14.9711C11.4787 14.9711 8.52517 14.6927 4.94226 11.1109C1.76165 7.92901 0.645302 5.74694 1.0891 3.57937C1.41303 1.99704 2.27304 1.32449 2.30646 1.29894L2.33611 1.27703L2.36213 1.25095C2.50569 1.10752 2.69347 1.02849 2.89091 1.02849C3.07069 1.02849 3.23695 1.09587 3.35954 1.21885L5.67213 3.53151C5.93822 3.79733 5.92405 4.24464 5.64096 4.52833L4.62197 5.54645L4.60522 5.56399C4.33967 5.85649 4.37091 6.25177 4.51719 6.50918C4.93928 7.27089 5.51745 8.3141 6.62996 9.42695C7.73877 10.5358 8.78046 11.1135 9.54005 11.5348C9.6161 11.5774 9.77311 11.6491 9.96962 11.6491C10.2017 11.6491 10.4147 11.5508 10.5725 11.3718L11.5288 10.4158C11.6716 10.2729 11.8587 10.1942 12.0559 10.1942C12.2361 10.1942 12.4032 10.2618 12.5255 10.3835L14.8365 12.6955C15.1301 12.9901 15.0089 13.4405 14.7721 13.7342Z" fill="#B5AB9F"/>
<path d="M9.69324 2.46766C10.5462 2.56582 11.5506 3.08249 12.2519 3.78391C12.9598 4.4918 13.4778 5.50636 13.5713 6.36861C13.5989 6.62297 13.814 6.81148 14.0642 6.81148C14.0821 6.81148 14.1002 6.81049 14.1183 6.80857C14.3909 6.77898 14.5879 6.53408 14.5583 6.26151C14.44 5.17157 13.8253 3.95322 12.954 3.0819C12.0909 2.21872 10.885 1.60548 9.80675 1.48137C9.53451 1.4498 9.28822 1.64545 9.25685 1.91776C9.22547 2.19006 9.4208 2.43629 9.69324 2.46766Z" fill="#B5AB9F"/>
<path d="M9.22942 4.54832C9.69076 4.60147 10.3292 4.94367 10.7475 5.36192C11.1693 5.78381 11.5122 6.42837 11.5627 6.89467C11.5903 7.1491 11.8054 7.33761 12.0556 7.33761C12.0735 7.33761 12.0915 7.33662 12.1097 7.3347C12.3822 7.30511 12.5793 7.06021 12.5497 6.78764C12.4634 5.99152 11.9349 5.14528 11.4494 4.65985C10.9684 4.17872 10.1304 3.65271 9.34294 3.56196C9.0703 3.53026 8.82434 3.72598 8.79297 3.99828C8.76166 4.27065 8.95705 4.51694 9.22942 4.54832Z" fill="#B5AB9F"/>
</g>
<defs>
<clipPath id="clip0">
<rect width="16" height="16" fill="white"/>
</clipPath>
</defs>
</svg>
