<svg width="21" height="21" viewBox="0 0 21 21" fill="none" xmlns="http://www.w3.org/2000/svg">
<path d="M20.3955 15.6956L17.3603 12.6591C16.9527 12.2535 16.4068 12.0301 15.8236 12.0301C15.2166 12.0301 14.6435 12.2691 14.2101 12.7027L13.0287 13.8839C12.1106 13.3736 10.8904 12.6718 9.62347 11.4049C8.35807 10.139 7.65613 8.92237 7.14322 7.99934L8.32584 6.81759C9.20509 5.93652 9.22307 4.523 8.36606 3.66677L5.33147 0.632094C4.92499 0.224482 4.37916 0 3.79441 0C3.20098 0 2.6396 0.228478 2.20879 0.644343C1.94817 0.85423 0.640286 2.00878 0.152837 4.38982C-0.529643 7.72256 1.03843 10.9292 5.56525 15.4578C10.6221 20.5131 14.9391 20.906 16.1418 20.906C16.3922 20.906 16.5432 20.8905 16.5835 20.8858C18.9419 20.6094 19.7863 19.5621 20.4029 18.7973C21.2017 17.8062 21.199 16.502 20.3955 15.6956ZM19.3883 17.9794C18.8088 18.6982 18.2615 19.377 16.4319 19.5915C16.431 19.5916 16.3309 19.6028 16.1418 19.6028C15.0658 19.6028 11.1893 19.2374 6.48672 14.5363C2.31217 10.36 0.846959 7.49608 1.42945 4.65114C1.85461 2.57433 2.98336 1.69161 3.02723 1.65807L3.06615 1.62932L3.10029 1.59509C3.28872 1.40683 3.53518 1.30311 3.79433 1.30311C4.03027 1.30311 4.2485 1.39154 4.40939 1.55296L7.44468 4.58833C7.79391 4.93721 7.77532 5.5243 7.40376 5.89665L6.06634 7.23294L6.04436 7.25596C5.69582 7.63986 5.73682 8.15867 5.92881 8.49652C6.48281 9.49626 7.24165 10.8655 8.70183 12.3261C10.1571 13.7814 11.5244 14.5396 12.5213 15.0926C12.6211 15.1486 12.8272 15.2426 13.0851 15.2426C13.3897 15.2426 13.6694 15.1137 13.8764 14.8787L15.1315 13.6239C15.3189 13.4364 15.5646 13.3331 15.8234 13.3331C16.0599 13.3331 16.2792 13.4218 16.4398 13.5815L19.473 16.616C19.8582 17.0027 19.6992 17.5939 19.3883 17.9794Z" fill="#3B3B3B"/>
<path d="M12.7224 3.19269C13.8419 3.32153 15.1601 3.99966 16.0807 4.92026C17.0098 5.84938 17.6896 7.18098 17.8123 8.31269C17.8485 8.64654 18.1309 8.89396 18.4593 8.89396C18.4827 8.89396 18.5065 8.89265 18.5303 8.89013C18.8881 8.8513 19.1466 8.52987 19.1078 8.17212C18.9525 6.74157 18.1456 5.14249 17.0021 3.99888C15.8693 2.86596 14.2865 2.06107 12.8714 1.89819C12.5141 1.85675 12.1908 2.11355 12.1496 2.47094C12.1084 2.82834 12.3648 3.15151 12.7224 3.19269Z" fill="#3B3B3B"/>
<path d="M12.1137 5.9223C12.7192 5.99206 13.5572 6.4412 14.1061 6.99016C14.6598 7.54389 15.1098 8.38987 15.1761 9.00189C15.2123 9.33584 15.4946 9.58325 15.823 9.58325C15.8465 9.58325 15.8702 9.58195 15.894 9.57943C16.2517 9.5406 16.5104 9.21916 16.4715 8.86142C16.3582 7.8165 15.6645 6.70582 15.0274 6.06869C14.396 5.4372 13.2962 4.74682 12.2627 4.62771C11.9048 4.5861 11.582 4.84298 11.5408 5.20038C11.4997 5.55787 11.7562 5.88113 12.1137 5.9223Z" fill="#3B3B3B"/>
</svg>
