<svg width="100" height="100" viewBox="0 0 100 100" fill="none" xmlns="http://www.w3.org/2000/svg">
<path d="M99.8192 80.9586C99.35 78.7003 98.0225 76.7708 96.0808 75.525C94.1391 74.2798 91.8327 73.8778 89.5836 74.392L79.1603 76.7785V72.5175C81.2508 70.5483 83.4274 67.9772 84.9754 65.6273C87.69 61.5067 89.6111 56.9817 90.6853 52.1805C91.9624 46.4684 91.9899 40.4214 90.7639 34.6909C90.538 33.6365 89.4997 32.9636 88.4453 33.1902C87.3901 33.4153 86.7188 34.4536 86.9438 35.5088C88.0531 40.6914 88.0287 46.1617 86.8729 51.3276C85.9024 55.6656 84.166 59.7542 81.7131 63.4781C80.986 64.5821 80.1041 65.7403 79.1603 66.8465V45.1974C79.1603 44.1186 78.286 43.2442 77.2072 43.2442H61.7569V22.387C61.7569 21.3112 60.8864 20.4377 59.8106 20.4339L42.4072 20.3751C42.4049 20.3751 42.4034 20.3751 42.4011 20.3751C41.8839 20.3751 41.3879 20.5796 41.0225 20.945C40.6548 21.3112 40.448 21.8087 40.448 22.3282V33.178H24.9954C23.9174 33.178 23.0423 34.0523 23.0423 35.1311V54.4724H18.6905V51.8197C18.6905 50.7416 17.8162 49.8673 16.7374 49.8673H14.7339C14.3929 47.9897 14.1953 46.0824 14.1487 44.1781C14.0343 39.5478 14.7682 35.0175 16.3292 30.7114C16.6931 29.7074 17.1066 28.7064 17.5575 27.7375C18.013 26.7594 17.5888 25.5974 16.6115 25.142C15.6334 24.688 14.4714 25.1107 14.0167 26.0888C13.517 27.1615 13.0592 28.2693 12.6572 29.3801C10.9299 34.1447 10.1181 39.1564 10.2432 44.2742C10.2898 46.1449 10.4683 48.0172 10.7712 49.8673H1.95312C0.874328 49.8673 0 50.7416 0 51.8204V86.1512C0 87.23 0.874328 88.1043 1.95312 88.1043H16.7374C17.8162 88.1043 18.6905 87.23 18.6905 86.1512V84.2942H26.0376L55.7991 95.9672C58.5777 97.0574 61.4883 97.606 64.4142 97.606C66.3651 97.606 68.3243 97.3618 70.2538 96.8712L93.5806 90.9424C98.0087 89.8171 100.748 85.4317 99.8192 80.9586ZM75.2548 47.1505V77.6726L70.0333 78.8682C69.4717 78.9963 68.9041 79.0978 68.3334 79.1772C66.1575 79.477 63.9374 79.4137 61.7844 78.9872C61.7752 78.9849 61.7661 78.9834 61.7569 78.9811V76.0193C63.2462 73.7977 63.7398 70.9809 62.9593 68.4098C62.7419 67.6926 62.4329 67.0006 62.0399 66.3621C61.9507 66.2171 61.8576 66.0752 61.7607 65.9363C61.7599 65.9341 61.7584 65.9325 61.7569 65.9302V47.1497H75.2548V47.1505ZM44.3542 24.2882L57.8514 24.3333V62.8281L50.3082 59.7062L44.3542 57.2411V24.2882ZM26.9485 37.0843H40.4457V55.6229L38.0234 54.6204C37.7861 54.522 37.532 54.4716 37.2765 54.4716H26.9485V37.0843ZM14.7842 84.1981H3.90625V53.7728H13.121C13.1248 53.7728 13.1294 53.7736 13.134 53.7736C13.1378 53.7736 13.1409 53.7728 13.1447 53.7728H14.7842V84.1981ZM92.6186 87.1567L69.2917 93.0855C65.2649 94.1086 61.0924 93.847 57.225 92.331L27.1202 80.523C26.8929 80.4337 26.651 80.3887 26.4069 80.3887H18.6905V58.3787H36.8874L49.5247 63.6094L56.44 66.4719C58.8867 67.4866 60.0578 70.3568 59.0546 72.8005C58.8531 73.2911 58.6037 73.7572 58.2726 74.173C57.0496 75.7165 55.0362 76.397 53.1532 75.9392C53.138 75.9354 53.1227 75.9316 53.1075 75.9278C52.9945 75.8996 52.8824 75.8668 52.771 75.8301L39.6294 70.778C39.5226 70.7368 39.4661 70.7154 39.4661 70.7154C38.4598 70.3278 37.3299 70.8306 36.9423 71.8377C36.5555 72.844 37.0575 73.9747 38.0646 74.3615C38.0646 74.3615 45.4742 77.2103 51.1246 79.3893C51.2383 79.4335 51.3512 79.4747 51.4648 79.5128L55.8037 81.1814C57.1152 81.6857 58.4206 82.1877 59.7855 82.5364C62.1033 83.1284 64.5088 83.3665 66.8983 83.236C68.2457 83.1628 69.5908 82.9766 70.9061 82.676L77.6436 81.1341C77.6505 81.1326 77.6573 81.1295 77.6642 81.128L90.4556 78.1998C91.6725 77.9214 92.9214 78.1388 93.9713 78.8125C95.0226 79.4869 95.7405 80.5314 95.9946 81.7536C96.4981 84.1744 95.015 86.5479 92.6186 87.1567Z" fill="#ABD0D3"/>
<path d="M24.9763 16.4308C25.4432 16.4308 25.9117 16.2645 26.2847 15.9272C29.7698 12.7794 33.9317 10.2685 38.3224 8.66559C43.0793 6.92913 48.294 6.18832 53.4034 6.52401C57.0602 6.76434 60.643 7.54483 64.0518 8.84335C65.0589 9.22711 66.188 8.72204 66.5718 7.71344C66.9563 6.70559 66.4505 5.57721 65.4419 5.19345C61.6699 3.75607 57.7056 2.89242 53.6598 2.62616C48.0125 2.25537 42.2454 3.07476 36.9827 4.99661C32.125 6.76968 27.5207 9.54754 23.6671 13.0281C22.866 13.7513 22.8034 14.9865 23.5267 15.7869C23.912 16.2141 24.443 16.4308 24.9763 16.4308Z" fill="#ABD0D3"/>
<path d="M69.3139 30.3695C69.6839 30.6907 70.1402 30.8479 70.5941 30.8479C71.1396 30.8479 71.6828 30.6205 72.0696 30.1765L88.1387 11.679C88.8467 10.8649 88.7597 9.63127 87.9456 8.92403C87.1308 8.21678 85.8979 8.30299 85.1907 9.11705L69.1209 27.6145C68.4129 28.4286 68.4998 29.6622 69.3139 30.3695Z" fill="#ABD0D3"/>
<path d="M83.7142 22.0192C81.0103 22.0192 78.8108 24.2188 78.8108 26.9226C78.8108 29.6265 81.0103 31.826 83.7142 31.826C86.4181 31.826 88.6176 29.6257 88.6176 26.9226C88.6176 24.2188 86.4181 22.0192 83.7142 22.0192ZM83.7142 27.9198C83.1641 27.9198 82.717 27.4727 82.717 26.9226C82.717 26.3733 83.1641 25.9255 83.7142 25.9255C84.2635 25.9255 84.7114 26.3733 84.7114 26.9226C84.7114 27.4727 84.2635 27.9198 83.7142 27.9198Z" fill="#ABD0D3"/>
<path d="M72.8683 17.6713C75.5721 17.6713 77.7717 15.4717 77.7717 12.7679C77.7717 10.064 75.5721 7.86444 72.8683 7.86444C70.1644 7.86444 67.9648 10.064 67.9648 12.7679C67.9648 15.4717 70.1644 17.6713 72.8683 17.6713ZM72.8683 11.7699C73.4183 11.7699 73.8654 12.2178 73.8654 12.7679C73.8654 13.3172 73.4183 13.765 72.8683 13.765C72.3182 13.765 71.8711 13.3172 71.8711 12.7679C71.8711 12.2178 72.3182 11.7699 72.8683 11.7699Z" fill="#ABD0D3"/>
</svg>
