<svg width="16" height="16" viewBox="0 0 16 16" fill="none" xmlns="http://www.w3.org/2000/svg">
<g clip-path="url(#clip0)">
<path d="M8.88675 12.0508C11.5867 12.6935 12.5367 10.3842 12.0607 9.52216C11.8701 9.17816 10.1567 8.5175 10.0734 8.4855C9.33741 8.2175 9.06541 8.7175 8.55542 9.3755C7.57608 8.8855 6.91941 8.4995 6.24475 7.40216C6.28275 7.35483 6.33342 7.29883 6.37141 7.25616C6.60741 6.99216 7.04941 6.50016 6.74808 5.89816C6.49475 5.3935 6.36875 5.0415 6.27608 4.7835C6.00741 4.03616 5.80275 3.8335 4.87741 3.8335C3.91408 3.8335 3.16675 5.0995 3.16675 6.1895C3.16675 8.56883 6.36541 11.4488 8.88675 12.0508ZM4.87741 4.8335C5.07741 4.8335 5.17875 4.84016 5.22941 4.84816C5.33741 5.07683 5.44675 5.55416 5.84941 6.29683C5.78675 6.53083 4.89675 7.0795 5.30941 7.78883C6.15275 9.22083 6.99675 9.7175 8.20608 10.3188C9.01142 10.6828 9.26875 10.0235 9.77941 9.44416C10.0161 9.54016 10.8147 9.8935 11.1654 10.0708C11.1341 10.7615 10.4674 11.3988 9.11875 11.0775C6.80408 10.5248 4.16608 7.92083 4.16608 6.18883C4.16675 5.53016 4.62875 4.8335 4.87741 4.8335Z" fill="#B5AB9F"/>
<path d="M0.0553391 15.3899C-0.0319943 15.7059 0.204672 16.0226 0.537339 16.0226C0.657339 16.0226 0.461339 16.0533 4.43601 15.0226C6.05401 15.8466 7.28401 15.8206 8.06934 15.8946C15.106 15.8946 18.5527 7.31261 13.71 2.31927C7.07201 -4.09673 -3.26599 3.87661 1.06001 11.7373L0.0553391 15.3899ZM12.914 2.94194C13.0293 3.15261 16.3373 6.13594 14.4953 10.5939C13.3613 13.3406 10.7447 15.0333 7.81267 14.8746C5.42734 14.7419 4.81001 13.8899 4.37067 14.0066L1.24867 14.8199L2.07867 11.8039C2.11467 11.6746 2.09667 11.5366 2.03001 11.4206C-1.95866 4.53794 7.06067 -2.53873 12.914 2.94194Z" fill="#B5AB9F"/>
</g>
<defs>
<clipPath id="clip0">
<rect width="16" height="16" fill="white"/>
</clipPath>
</defs>
</svg>
