<svg width="21" height="22" viewBox="0 0 21 22" fill="none" xmlns="http://www.w3.org/2000/svg">
<g clip-path="url(#clip0)">
<path d="M11.6637 16.3165C15.2075 17.16 16.4544 14.129 15.8296 12.9976C15.5794 12.5461 13.3306 11.679 13.2212 11.637C12.2552 11.2853 11.8983 11.9415 11.2289 12.8051C9.9435 12.162 9.08162 11.6554 8.19612 10.2151C8.246 10.153 8.3125 10.0795 8.36238 10.0235C8.67213 9.677 9.25225 9.03125 8.85675 8.24113C8.52425 7.57875 8.35887 7.11675 8.23725 6.77813C7.88462 5.79725 7.616 5.53125 6.4015 5.53125C5.13712 5.53125 4.15625 7.19288 4.15625 8.6235C4.15625 11.7464 8.3545 15.5264 11.6637 16.3165ZM6.4015 6.84375C6.664 6.84375 6.797 6.8525 6.8635 6.863C7.00525 7.16312 7.14875 7.78962 7.67725 8.76437C7.595 9.0715 6.42688 9.79163 6.9685 10.7226C8.07538 12.6021 9.18313 13.254 10.7704 14.0433C11.8274 14.521 12.1651 13.6556 12.8354 12.8953C13.146 13.0213 14.1942 13.485 14.6545 13.7178C14.6134 14.6243 13.7384 15.4607 11.9683 15.039C8.93025 14.3136 5.46788 10.8959 5.46788 8.62263C5.46875 7.75813 6.07512 6.84375 6.4015 6.84375Z" fill="#3B3B3B"/>
<path d="M0.0726249 20.6995C-0.0420001 21.1142 0.268625 21.5299 0.70525 21.5299C0.86275 21.5299 0.6055 21.5701 5.82225 20.2174C7.94588 21.2989 9.56025 21.2647 10.591 21.3619C19.8266 21.3619 24.3504 10.098 17.9944 3.54423C9.282 -4.87677 -4.28663 5.58823 1.39125 15.9054L0.0726249 20.6995ZM16.9496 4.36148C17.101 4.63798 21.4428 8.5536 19.0251 14.4047C17.5368 18.0097 14.1024 20.2314 10.2541 20.0231C7.12338 19.849 6.31313 18.7307 5.7365 18.8839L1.63888 19.9514L2.72825 15.9929C2.7755 15.8231 2.75188 15.642 2.66438 15.4897C-2.57075 6.45623 9.26713 -2.8319 16.9496 4.36148Z" fill="#3B3B3B"/>
</g>
<defs>
<clipPath id="clip0">
<rect width="21" height="21" fill="white" transform="translate(0 0.5)"/>
</clipPath>
</defs>
</svg>
