<svg width="100" height="100" viewBox="0 0 100 100" fill="none" xmlns="http://www.w3.org/2000/svg">
<path d="M98.0469 5.97626H68.3593C67.2805 5.97626 66.4061 6.85067 66.4061 7.92939V15.7425C66.4061 16.8212 67.2805 17.6956 68.3593 17.6956H72.2657V32.3039H35.1562C34.0777 32.3039 33.2031 33.1783 33.2031 34.257V42.07C33.2031 43.1487 34.0777 44.0231 35.1562 44.0231H39.0627V58.6317H1.95313C0.874418 58.6317 0 59.5062 0 60.5849V68.3976C0 69.4763 0.874418 70.3507 1.95313 70.3507H4.68674V92.0707C4.68674 93.1495 5.56115 94.0239 6.63987 94.0239H42.14C42.5806 94.0239 43.0082 93.8748 43.3535 93.601L99.2606 49.2704C99.7277 48.9001 100 48.3364 100 47.7401V15.7425V7.92939C100 6.85067 99.1258 5.97626 98.0469 5.97626ZM37.1093 40.1168V36.2102H72.2657V40.1168H37.1093ZM3.90627 66.4445V62.538H39.0627V66.4445H3.90627ZM96.0937 21.4609H88.0791C87.0004 21.4609 86.1259 22.3353 86.1259 23.414C86.1259 24.4927 87.0004 25.3672 88.0791 25.3672H96.0937V46.796L41.4593 90.1176H8.593V77.9588H16.6079C17.6864 77.9588 18.561 77.0844 18.561 76.0056C18.561 74.9269 17.6864 74.0525 16.6079 74.0525H8.593V70.3507H41.0158C42.0945 70.3507 42.9689 69.4763 42.9689 68.3976V60.5849V44.0231H74.2188C75.2976 44.0231 76.172 43.1487 76.172 42.07V34.257V17.6956H96.0937V21.4609ZM96.0937 13.7894H70.3124V9.88252H96.0937V13.7894Z" fill="#ABD0D3"/>
</svg>
